<?xml version="1.0" encoding="utf-8" standalone="no"?>
<!DOCTYPE svg PUBLIC "-//W3C//DTD SVG 1.1//EN"
  "http://www.w3.org/Graphics/SVG/1.1/DTD/svg11.dtd">
<svg xmlns:xlink="http://www.w3.org/1999/xlink" width="739.38014pt" height="299.898047pt" viewBox="0 0 739.38014 299.898047" xmlns="http://www.w3.org/2000/svg" version="1.1">
 <metadata>
  <rdf:RDF xmlns:dc="http://purl.org/dc/elements/1.1/" xmlns:cc="http://creativecommons.org/ns#" xmlns:rdf="http://www.w3.org/1999/02/22-rdf-syntax-ns#">
   <cc:Work>
    <dc:type rdf:resource="http://purl.org/dc/dcmitype/StillImage"/>
    <dc:date>2026-04-23T01:34:13.232652</dc:date>
    <dc:format>image/svg+xml</dc:format>
    <dc:creator>
     <cc:Agent>
      <dc:title>Matplotlib v3.10.8, https://matplotlib.org/</dc:title>
     </cc:Agent>
    </dc:creator>
   </cc:Work>
  </rdf:RDF>
 </metadata>
 <defs>
  <style type="text/css">*{stroke-linejoin: round; stroke-linecap: butt}</style>
 </defs>
 <g id="figure_1">
  <g id="patch_1">
   <path d="M 0 299.898047 
L 739.38014 299.898047 
L 739.38014 0 
L 0 0 
z
" style="fill: #ffffff"/>
  </g>
  <g id="axes_1">
   <g id="patch_2">
    <path d="M 29.822098 196.079585 
L 141.266014 196.079585 
Q 145.012028 196.079585 145.012028 191.81497 
L 145.012028 128.911893 
Q 145.012028 124.647278 141.266014 124.647278 
L 29.822098 124.647278 
Q 26.076084 124.647278 26.076084 128.911893 
L 26.076084 191.81497 
Q 26.076084 196.079585 29.822098 196.079585 
z
" clip-path="url(#pcd08aa9a4f)" style="fill: #eaf2ff; stroke: #2d5fb3; stroke-width: 1.5; stroke-linejoin: miter"/>
   </g>
   <g id="patch_3">
    <path d="M 184.345175 134.775739 
L 326.225455 134.775739 
Q 329.971469 134.775739 329.971469 130.511124 
L 329.971469 70.273431 
Q 329.971469 66.008816 326.225455 66.008816 
L 184.345175 66.008816 
Q 180.599161 66.008816 180.599161 70.273431 
L 180.599161 130.511124 
Q 180.599161 134.775739 184.345175 134.775739 
z
" clip-path="url(#pcd08aa9a4f)" style="fill: #f4ebff; stroke: #6e3ab2; stroke-width: 1.5; stroke-linejoin: miter"/>
   </g>
   <g id="patch_4">
    <path d="M 184.345175 252.052662 
L 326.225455 252.052662 
Q 329.971469 252.052662 329.971469 247.788047 
L 329.971469 187.550355 
Q 329.971469 183.285739 326.225455 183.285739 
L 184.345175 183.285739 
Q 180.599161 183.285739 180.599161 187.550355 
L 180.599161 247.788047 
Q 180.599161 252.052662 184.345175 252.052662 
z
" clip-path="url(#pcd08aa9a4f)" style="fill: #ffeef0; stroke: #ba3f4b; stroke-width: 1.5; stroke-linejoin: miter"/>
   </g>
   <g id="patch_5">
    <path d="M 378.66965 196.079585 
L 529.914965 196.079585 
Q 533.660979 196.079585 533.660979 191.81497 
L 533.660979 128.911893 
Q 533.660979 124.647278 529.914965 124.647278 
L 378.66965 124.647278 
Q 374.923636 124.647278 374.923636 128.911893 
L 374.923636 191.81497 
Q 374.923636 196.079585 378.66965 196.079585 
z
" clip-path="url(#pcd08aa9a4f)" style="fill: #eaf6f6; stroke: #2b7f8d; stroke-width: 1.5; stroke-linejoin: miter"/>
   </g>
   <g id="patch_6">
    <path d="M 568.311608 196.079585 
L 646.977902 196.079585 
Q 650.723916 196.079585 650.723916 191.81497 
L 650.723916 128.911893 
Q 650.723916 124.647278 646.977902 124.647278 
L 568.311608 124.647278 
Q 564.565594 124.647278 564.565594 128.911893 
L 564.565594 191.81497 
Q 564.565594 196.079585 568.311608 196.079585 
z
" clip-path="url(#pcd08aa9a4f)" style="fill: #e9f8ef; stroke: #2c8c4d; stroke-width: 1.5; stroke-linejoin: miter"/>
   </g>
   <g id="patch_7">
    <path d="M 144.075524 160.363431 
Q 162.805594 129.711508 180.719519 100.395215 
" clip-path="url(#pcd08aa9a4f)" style="fill: none; stroke: #2a3243; stroke-width: 1.4; stroke-linecap: round"/>
    <path d="M 176.548021 103.002629 
L 180.719519 100.395215 
L 180.302552 105.296861 
z
" clip-path="url(#pcd08aa9a4f)" style="fill: #2a3243; stroke: #2a3243; stroke-width: 1.4; stroke-linecap: round"/>
   </g>
   <g id="patch_8">
    <path d="M 144.075524 160.363431 
Q 162.805594 189.682662 180.693005 217.682831 
" clip-path="url(#pcd08aa9a4f)" style="fill: none; stroke: #2a3243; stroke-width: 1.4; stroke-linecap: round"/>
    <path d="M 180.178221 212.79049 
L 180.693005 217.682831 
L 176.470262 215.159254 
z
" clip-path="url(#pcd08aa9a4f)" style="fill: #2a3243; stroke: #2a3243; stroke-width: 1.4; stroke-linecap: round"/>
   </g>
   <g id="patch_9">
    <path d="M 329.034965 99.059585 
Q 352.447552 121.715355 374.735312 143.282656 
" clip-path="url(#pcd08aa9a4f)" style="fill: none; stroke: #2a3243; stroke-width: 1.4; stroke-linecap: round"/>
    <path d="M 373.103228 138.641934 
L 374.735312 143.282656 
L 370.043484 141.803889 
z
" clip-path="url(#pcd08aa9a4f)" style="fill: #2a3243; stroke: #2a3243; stroke-width: 1.4; stroke-linecap: round"/>
   </g>
   <g id="patch_10">
    <path d="M 329.034965 219.001893 
Q 352.447552 197.678816 374.702908 177.409691 
" clip-path="url(#pcd08aa9a4f)" style="fill: none; stroke: #2a3243; stroke-width: 1.4; stroke-linecap: round"/>
    <path d="M 369.968504 178.745888 
L 374.702908 177.409691 
L 372.931223 181.998932 
z
" clip-path="url(#pcd08aa9a4f)" style="fill: #2a3243; stroke: #2a3243; stroke-width: 1.4; stroke-linecap: round"/>
   </g>
   <g id="patch_11">
    <path d="M 532.724476 160.363431 
Q 549.113287 160.363431 563.93685 160.363431 
" clip-path="url(#pcd08aa9a4f)" style="fill: none; stroke: #2a3243; stroke-width: 1.4; stroke-linecap: round"/>
    <path d="M 559.53685 158.163431 
L 563.93685 160.363431 
L 559.53685 162.563431 
z
" clip-path="url(#pcd08aa9a4f)" style="fill: #2a3243; stroke: #2a3243; stroke-width: 1.4; stroke-linecap: round"/>
   </g>
   <g id="text_1">
    <g clip-path="url(#p2c5b3eb5e6)">
     <text style="font-weight: 600; font-size: 9.55px; font-family: 'DejaVu Serif'; text-anchor: middle; fill: #1d2433" x="85.544056" y="153.22874" transform="rotate(-0 85.544056 153.22874)">Shared graph input</text>
    </g>
   </g>
   <g id="text_2">
    <g clip-path="url(#pa8ca3dab40)">
     <text style="font-size: 9px; font-family: 'DejaVu Serif'; fill: #5d6578" transform="translate(33.9164 168.031889)">same molecule to both</text>
    </g>
    <g clip-path="url(#p41b911eff7)">
     <text style="font-size: 9px; font-family: 'DejaVu Serif'; fill: #5d6578" transform="translate(70.0514 178.451849)">towers</text>
    </g>
   </g>
   <g id="text_3">
    <g clip-path="url(#pbb068180cd)">
     <text style="font-weight: 600; font-size: 10.8px; font-family: 'DejaVu Serif'; text-anchor: middle; fill: #1d2433" x="255.285315" y="93.889994" transform="rotate(-0 255.285315 93.889994)">V1 Frequency Tower</text>
    </g>
   </g>
   <g id="text_4">
    <g clip-path="url(#p78719449dc)">
     <!-- outputs $p^{(f)}$, $\omega^{(f)}$ -->
     <g style="fill: #5d6578" transform="translate(221.400315 113.17747)">
      <text>
       <tspan x="0" y="-0.548438" style="font-size: 9px; font-family: 'DejaVu Serif'; fill: #5d6578">o</tspan>
       <tspan x="5.418457" y="-0.548438" style="font-size: 9px; font-family: 'DejaVu Serif'; fill: #5d6578">u</tspan>
       <tspan x="11.214844" y="-0.548438" style="font-size: 9px; font-family: 'DejaVu Serif'; fill: #5d6578">t</tspan>
       <tspan x="14.831543" y="-0.548438" style="font-size: 9px; font-family: 'DejaVu Serif'; fill: #5d6578">p</tspan>
       <tspan x="20.592773" y="-0.548438" style="font-size: 9px; font-family: 'DejaVu Serif'; fill: #5d6578">u</tspan>
       <tspan x="26.38916" y="-0.548438" style="font-size: 9px; font-family: 'DejaVu Serif'; fill: #5d6578">t</tspan>
       <tspan x="30.005859" y="-0.548438" style="font-size: 9px; font-family: 'DejaVu Serif'; fill: #5d6578">s</tspan>
       <tspan x="34.624512" y="-0.548438" style="font-size: 9px; font-family: 'DejaVu Serif'; fill: #5d6578"> </tspan>
       <tspan x="48.921038" y="-0.548438" style="font-size: 9px; font-family: 'DejaVu Serif'; fill: #5d6578">,</tspan>
       <tspan x="51.781878" y="-0.548438" style="font-size: 9px; font-family: 'DejaVu Serif'; fill: #5d6578"> </tspan>
       <tspan x="37.485352" y="-0.548438" style="font-style: italic; font-size: 9px; font-family: 'STIXGeneral'; fill: #5d6578">p</tspan>
       <tspan x="54.642718" y="-0.548438" style="font-style: italic; font-size: 9px; font-family: 'STIXGeneral'; fill: #5d6578">ω</tspan>
       <tspan x="42.576972" y="-3.723438" style="font-size: 6.3px; font-family: 'STIXGeneral'; fill: #5d6578">(</tspan>
       <tspan x="46.426267" y="-3.723438" style="font-size: 6.3px; font-family: 'STIXGeneral'; fill: #5d6578">)</tspan>
       <tspan x="61.369057" y="-3.723438" style="font-size: 6.3px; font-family: 'STIXGeneral'; fill: #5d6578">(</tspan>
       <tspan x="65.218352" y="-3.723438" style="font-size: 6.3px; font-family: 'STIXGeneral'; fill: #5d6578">)</tspan>
       <tspan x="44.674868" y="-3.723438" style="font-style: italic; font-size: 6.3px; font-family: 'STIXGeneral'; fill: #5d6578">f</tspan>
       <tspan x="63.466953" y="-3.723438" style="font-style: italic; font-size: 6.3px; font-family: 'STIXGeneral'; fill: #5d6578">f</tspan>
      </text>
     </g>
    </g>
   </g>
   <g id="text_5">
    <g clip-path="url(#p3527260207)">
     <text style="font-weight: 600; font-size: 10.8px; font-family: 'DejaVu Serif'; text-anchor: middle; fill: #1d2433" x="255.285315" y="211.32048" transform="rotate(-0 255.285315 211.32048)">V2 Amplitude Tower</text>
    </g>
   </g>
   <g id="text_6">
    <g clip-path="url(#p353e3dfd67)">
     <!-- outputs $p^{(a)}$, $\omega^{(a)}$, $B^{(a)}$, $\hat K$ -->
     <g style="fill: #5d6578" transform="translate(203.940315 230.994393)">
      <text>
       <tspan x="0" y="-0.5" style="font-size: 9px; font-family: 'DejaVu Serif'; fill: #5d6578">o</tspan>
       <tspan x="5.418457" y="-0.5" style="font-size: 9px; font-family: 'DejaVu Serif'; fill: #5d6578">u</tspan>
       <tspan x="11.214844" y="-0.5" style="font-size: 9px; font-family: 'DejaVu Serif'; fill: #5d6578">t</tspan>
       <tspan x="14.831543" y="-0.5" style="font-size: 9px; font-family: 'DejaVu Serif'; fill: #5d6578">p</tspan>
       <tspan x="20.592773" y="-0.5" style="font-size: 9px; font-family: 'DejaVu Serif'; fill: #5d6578">u</tspan>
       <tspan x="26.38916" y="-0.5" style="font-size: 9px; font-family: 'DejaVu Serif'; fill: #5d6578">t</tspan>
       <tspan x="30.005859" y="-0.5" style="font-size: 9px; font-family: 'DejaVu Serif'; fill: #5d6578">s</tspan>
       <tspan x="34.624512" y="-0.5" style="font-size: 9px; font-family: 'DejaVu Serif'; fill: #5d6578"> </tspan>
       <tspan x="50.32593" y="-0.5" style="font-size: 9px; font-family: 'DejaVu Serif'; fill: #5d6578">,</tspan>
       <tspan x="53.18677" y="-0.5" style="font-size: 9px; font-family: 'DejaVu Serif'; fill: #5d6578"> </tspan>
       <tspan x="70.522907" y="-0.5" style="font-size: 9px; font-family: 'DejaVu Serif'; fill: #5d6578">,</tspan>
       <tspan x="73.383747" y="-0.5" style="font-size: 9px; font-family: 'DejaVu Serif'; fill: #5d6578"> </tspan>
       <tspan x="90.448475" y="-0.5" style="font-size: 9px; font-family: 'DejaVu Serif'; fill: #5d6578">,</tspan>
       <tspan x="93.309315" y="-0.5" style="font-size: 9px; font-family: 'DejaVu Serif'; fill: #5d6578"> </tspan>
       <tspan x="37.485352" y="-0.5" style="font-style: italic; font-size: 9px; font-family: 'STIXGeneral'; fill: #5d6578">p</tspan>
       <tspan x="56.04761" y="-0.5" style="font-style: italic; font-size: 9px; font-family: 'STIXGeneral'; fill: #5d6578">ω</tspan>
       <tspan x="76.244587" y="-0.5" style="font-style: italic; font-size: 9px; font-family: 'STIXGeneral'; fill: #5d6578">B</tspan>
       <tspan x="96.170155" y="-0.5" style="font-style: italic; font-size: 9px; font-family: 'STIXGeneral'; fill: #5d6578">K</tspan>
       <tspan x="42.576972" y="-3.675" style="font-size: 6.3px; font-family: 'STIXGeneral'; fill: #5d6578">(</tspan>
       <tspan x="47.831159" y="-3.675" style="font-size: 6.3px; font-family: 'STIXGeneral'; fill: #5d6578">)</tspan>
       <tspan x="62.773949" y="-3.675" style="font-size: 6.3px; font-family: 'STIXGeneral'; fill: #5d6578">(</tspan>
       <tspan x="68.028136" y="-3.675" style="font-size: 6.3px; font-family: 'STIXGeneral'; fill: #5d6578">)</tspan>
       <tspan x="82.699517" y="-3.675" style="font-size: 6.3px; font-family: 'STIXGeneral'; fill: #5d6578">(</tspan>
       <tspan x="87.953704" y="-3.675" style="font-size: 6.3px; font-family: 'STIXGeneral'; fill: #5d6578">)</tspan>
       <tspan x="44.674868" y="-3.675" style="font-style: italic; font-size: 6.3px; font-family: 'STIXGeneral'; fill: #5d6578">a</tspan>
       <tspan x="64.871845" y="-3.675" style="font-style: italic; font-size: 6.3px; font-family: 'STIXGeneral'; fill: #5d6578">a</tspan>
       <tspan x="84.797413" y="-3.675" style="font-style: italic; font-size: 6.3px; font-family: 'STIXGeneral'; fill: #5d6578">a</tspan>
       <tspan x="102.244373" y="-2.9375" style="font-size: 9px; font-family: 'STIXGeneral'; fill: #5d6578">̂</tspan>
      </text>
     </g>
    </g>
   </g>
   <g id="text_7">
    <g clip-path="url(#p9e9b5938a2)">
     <text style="font-weight: 600; font-size: 10.8px; font-family: 'DejaVu Serif'; text-anchor: middle; fill: #1d2433" x="454.292308" y="153.564775" transform="rotate(-0 454.292308 153.564775)">Hybrid Combiner</text>
    </g>
   </g>
   <g id="text_8">
    <g clip-path="url(#pb3b4783b3e)">
     <text style="font-size: 8.5px; font-family: 'DejaVu Serif'; fill: #5d6578" transform="translate(382.845823 168.062504)">count-aware decode + frequency</text>
    </g>
    <g clip-path="url(#pf73fc1d9f1)">
     <text style="font-size: 8.5px; font-family: 'DejaVu Serif'; fill: #5d6578" transform="translate(434.08555 178.024437)">matching</text>
    </g>
   </g>
   <g id="text_9">
    <g clip-path="url(#p354fa22433)">
     <text style="font-weight: 600; font-size: 9.8px; font-family: 'DejaVu Serif'; text-anchor: middle; fill: #1d2433" x="607.644755" y="153.365619" transform="rotate(-0 607.644755 153.365619)">Final peak set</text>
    </g>
   </g>
   <g id="text_10">
    <g clip-path="url(#p2cdfcba426)">
     <!-- $\{(\omega_k,B_k)\}_{k=1}^{\hat K}$ -->
     <g style="fill: #5d6578" transform="translate(583.209755 174.088431)">
      <text>
       <tspan x="0" y="-0.875" style="font-size: 9px; font-family: 'STIXGeneral'; fill: #5d6578">{</tspan>
       <tspan x="4.319992" y="-0.875" style="font-size: 9px; font-family: 'STIXGeneral'; fill: #5d6578">(</tspan>
       <tspan x="16.685059" y="-0.875" style="font-size: 9px; font-family: 'STIXGeneral'; fill: #5d6578">,</tspan>
       <tspan x="28.927728" y="-0.875" style="font-size: 9px; font-family: 'STIXGeneral'; fill: #5d6578">)</tspan>
       <tspan x="31.924722" y="-0.875" style="font-size: 9px; font-family: 'STIXGeneral'; fill: #5d6578">}</tspan>
       <tspan x="7.316986" y="-0.875" style="font-style: italic; font-size: 9px; font-family: 'STIXGeneral'; fill: #5d6578">ω</tspan>
       <tspan x="20.234659" y="-0.875" style="font-style: italic; font-size: 9px; font-family: 'STIXGeneral'; fill: #5d6578">B</tspan>
       <tspan x="13.490982" y="0.315625" style="font-style: italic; font-size: 6.3px; font-family: 'STIXGeneral'; fill: #5d6578">k</tspan>
       <tspan x="25.733652" y="0.315625" style="font-style: italic; font-size: 6.3px; font-family: 'STIXGeneral'; fill: #5d6578">k</tspan>
       <tspan x="36.383621" y="-4.05" style="font-style: italic; font-size: 6.3px; font-family: 'STIXGeneral'; fill: #5d6578">K</tspan>
       <tspan x="36.383621" y="1.50625" style="font-style: italic; font-size: 6.3px; font-family: 'STIXGeneral'; fill: #5d6578">k</tspan>
       <tspan x="40.090542" y="1.50625" style="font-size: 6.3px; font-family: 'STIXGeneral'; fill: #5d6578">=</tspan>
       <tspan x="40.913699" y="-5.903125" style="font-size: 6.3px; font-family: 'STIXGeneral'; fill: #5d6578">̂</tspan>
       <tspan x="45.315758" y="1.50625" style="font-size: 6.3px; font-family: 'STIXGeneral'; fill: #5d6578">1</tspan>
      </text>
     </g>
    </g>
   </g>
   <g id="text_11">
    <!-- Assignment cost: $C_{ij}=|\omega_i^{(f)}-\omega_j^{(a)}| + \lambda_c(1-p_j^{(a)})$ -->
    <g style="fill: #5d6578" transform="translate(375.86014 257.916508)">
     <text>
      <tspan x="0" y="-0.554688" style="font-size: 9px; font-family: 'DejaVu Serif'; fill: #5d6578">A</tspan>
      <tspan x="6.499512" y="-0.554688" style="font-size: 9px; font-family: 'DejaVu Serif'; fill: #5d6578">s</tspan>
      <tspan x="11.118164" y="-0.554688" style="font-size: 9px; font-family: 'DejaVu Serif'; fill: #5d6578">s</tspan>
      <tspan x="15.736816" y="-0.554688" style="font-size: 9px; font-family: 'DejaVu Serif'; fill: #5d6578">i</tspan>
      <tspan x="18.615234" y="-0.554688" style="font-size: 9px; font-family: 'DejaVu Serif'; fill: #5d6578">g</tspan>
      <tspan x="24.376465" y="-0.554688" style="font-size: 9px; font-family: 'DejaVu Serif'; fill: #5d6578">n</tspan>
      <tspan x="30.172852" y="-0.554688" style="font-size: 9px; font-family: 'DejaVu Serif'; fill: #5d6578">m</tspan>
      <tspan x="38.707031" y="-0.554688" style="font-size: 9px; font-family: 'DejaVu Serif'; fill: #5d6578">e</tspan>
      <tspan x="44.033203" y="-0.554688" style="font-size: 9px; font-family: 'DejaVu Serif'; fill: #5d6578">n</tspan>
      <tspan x="49.82959" y="-0.554688" style="font-size: 9px; font-family: 'DejaVu Serif'; fill: #5d6578">t</tspan>
      <tspan x="53.446289" y="-0.554688" style="font-size: 9px; font-family: 'DejaVu Serif'; fill: #5d6578"> </tspan>
      <tspan x="56.307129" y="-0.554688" style="font-size: 9px; font-family: 'DejaVu Serif'; fill: #5d6578">c</tspan>
      <tspan x="61.347656" y="-0.554688" style="font-size: 9px; font-family: 'DejaVu Serif'; fill: #5d6578">o</tspan>
      <tspan x="66.766113" y="-0.554688" style="font-size: 9px; font-family: 'DejaVu Serif'; fill: #5d6578">s</tspan>
      <tspan x="71.384766" y="-0.554688" style="font-size: 9px; font-family: 'DejaVu Serif'; fill: #5d6578">t</tspan>
      <tspan x="75.001465" y="-0.554688" style="font-size: 9px; font-family: 'DejaVu Serif'; fill: #5d6578">:</tspan>
      <tspan x="78.033691" y="-0.554688" style="font-size: 9px; font-family: 'DejaVu Serif'; fill: #5d6578"> </tspan>
      <tspan x="80.894531" y="-0.554688" style="font-style: italic; font-size: 9px; font-family: 'STIXGeneral'; fill: #5d6578">C</tspan>
      <tspan x="101.361377" y="-0.554688" style="font-style: italic; font-size: 9px; font-family: 'STIXGeneral'; fill: #5d6578">ω</tspan>
      <tspan x="123.195976" y="-0.554688" style="font-style: italic; font-size: 9px; font-family: 'STIXGeneral'; fill: #5d6578">ω</tspan>
      <tspan x="148.235455" y="-0.554688" style="font-style: italic; font-size: 9px; font-family: 'STIXGeneral'; fill: #5d6578">λ</tspan>
      <tspan x="171.812714" y="-0.554688" style="font-style: italic; font-size: 9px; font-family: 'STIXGeneral'; fill: #5d6578">p</tspan>
      <tspan x="86.897522" y="0.635937" style="font-style: italic; font-size: 6.3px; font-family: 'STIXGeneral'; fill: #5d6578">i</tspan>
      <tspan x="88.648921" y="0.635937" style="font-style: italic; font-size: 6.3px; font-family: 'STIXGeneral'; fill: #5d6578">j</tspan>
      <tspan x="107.535373" y="1.826562" style="font-style: italic; font-size: 6.3px; font-family: 'STIXGeneral'; fill: #5d6578">i</tspan>
      <tspan x="110.185612" y="-4.723438" style="font-style: italic; font-size: 6.3px; font-family: 'STIXGeneral'; fill: #5d6578">f</tspan>
      <tspan x="129.369972" y="1.826562" style="font-style: italic; font-size: 6.3px; font-family: 'STIXGeneral'; fill: #5d6578">j</tspan>
      <tspan x="132.020212" y="-4.526563" style="font-style: italic; font-size: 6.3px; font-family: 'STIXGeneral'; fill: #5d6578">a</tspan>
      <tspan x="152.357449" y="0.635937" style="font-style: italic; font-size: 6.3px; font-family: 'STIXGeneral'; fill: #5d6578">c</tspan>
      <tspan x="176.348709" y="1.826562" style="font-style: italic; font-size: 6.3px; font-family: 'STIXGeneral'; fill: #5d6578">j</tspan>
      <tspan x="179.00223" y="-4.526563" style="font-style: italic; font-size: 6.3px; font-family: 'STIXGeneral'; fill: #5d6578">a</tspan>
      <tspan x="92.096796" y="-0.554688" style="font-size: 9px; font-family: 'STIXGeneral'; fill: #5d6578">=</tspan>
      <tspan x="99.561389" y="-0.554688" style="font-size: 9px; font-family: 'STIXGeneral'; fill: #5d6578">|</tspan>
      <tspan x="115.731383" y="-0.554688" style="font-size: 9px; font-family: 'STIXGeneral'; fill: #5d6578">−</tspan>
      <tspan x="137.671274" y="-0.554688" style="font-size: 9px; font-family: 'STIXGeneral'; fill: #5d6578">|</tspan>
      <tspan x="140.770862" y="-0.554688" style="font-size: 9px; font-family: 'STIXGeneral'; fill: #5d6578">+</tspan>
      <tspan x="155.551526" y="-0.554688" style="font-size: 9px; font-family: 'STIXGeneral'; fill: #5d6578">(</tspan>
      <tspan x="158.54852" y="-0.554688" style="font-size: 9px; font-family: 'STIXGeneral'; fill: #5d6578">1</tspan>
      <tspan x="164.34812" y="-0.554688" style="font-size: 9px; font-family: 'STIXGeneral'; fill: #5d6578">−</tspan>
      <tspan x="184.653292" y="-0.554688" style="font-size: 9px; font-family: 'STIXGeneral'; fill: #5d6578">)</tspan>
      <tspan x="108.087717" y="-4.723438" style="font-size: 6.3px; font-family: 'STIXGeneral'; fill: #5d6578">(</tspan>
      <tspan x="111.937012" y="-4.723438" style="font-size: 6.3px; font-family: 'STIXGeneral'; fill: #5d6578">)</tspan>
      <tspan x="129.922316" y="-4.526563" style="font-size: 6.3px; font-family: 'STIXGeneral'; fill: #5d6578">(</tspan>
      <tspan x="135.176503" y="-4.526563" style="font-size: 6.3px; font-family: 'STIXGeneral'; fill: #5d6578">)</tspan>
      <tspan x="176.904334" y="-4.526563" style="font-size: 6.3px; font-family: 'STIXGeneral'; fill: #5d6578">(</tspan>
      <tspan x="182.158521" y="-4.526563" style="font-size: 6.3px; font-family: 'STIXGeneral'; fill: #5d6578">)</tspan>
     </text>
    </g>
   </g>
   <g id="text_12">
    <!-- Overflow option: borrow extra $\omega$ from amplitude tower when $\hat K$ exceeds V1 slots. -->
    <g style="fill: #5d6578" transform="translate(375.86014 274.97497)">
     <text>
      <tspan x="0" y="-0.525" style="font-size: 8.8px; font-family: 'DejaVu Serif'; fill: #5d6578">O</tspan>
      <tspan x="7.173462" y="-0.525" style="font-size: 8.8px; font-family: 'DejaVu Serif'; fill: #5d6578">v</tspan>
      <tspan x="12.116699" y="-0.525" style="font-size: 8.8px; font-family: 'DejaVu Serif'; fill: #5d6578">e</tspan>
      <tspan x="17.294922" y="-0.525" style="font-size: 8.8px; font-family: 'DejaVu Serif'; fill: #5d6578">r</tspan>
      <tspan x="21.477661" y="-0.525" style="font-size: 8.8px; font-family: 'DejaVu Serif'; fill: #5d6578">f</tspan>
      <tspan x="24.716187" y="-0.525" style="font-size: 8.8px; font-family: 'DejaVu Serif'; fill: #5d6578">l</tspan>
      <tspan x="27.514648" y="-0.525" style="font-size: 8.8px; font-family: 'DejaVu Serif'; fill: #5d6578">o</tspan>
      <tspan x="32.782593" y="-0.525" style="font-size: 8.8px; font-family: 'DejaVu Serif'; fill: #5d6578">w</tspan>
      <tspan x="40.272217" y="-0.525" style="font-size: 8.8px; font-family: 'DejaVu Serif'; fill: #5d6578"> </tspan>
      <tspan x="43.053589" y="-0.525" style="font-size: 8.8px; font-family: 'DejaVu Serif'; fill: #5d6578">o</tspan>
      <tspan x="48.321533" y="-0.525" style="font-size: 8.8px; font-family: 'DejaVu Serif'; fill: #5d6578">p</tspan>
      <tspan x="53.922729" y="-0.525" style="font-size: 8.8px; font-family: 'DejaVu Serif'; fill: #5d6578">t</tspan>
      <tspan x="57.438965" y="-0.525" style="font-size: 8.8px; font-family: 'DejaVu Serif'; fill: #5d6578">i</tspan>
      <tspan x="60.237427" y="-0.525" style="font-size: 8.8px; font-family: 'DejaVu Serif'; fill: #5d6578">o</tspan>
      <tspan x="65.505371" y="-0.525" style="font-size: 8.8px; font-family: 'DejaVu Serif'; fill: #5d6578">n</tspan>
      <tspan x="71.140747" y="-0.525" style="font-size: 8.8px; font-family: 'DejaVu Serif'; fill: #5d6578">:</tspan>
      <tspan x="74.088745" y="-0.525" style="font-size: 8.8px; font-family: 'DejaVu Serif'; fill: #5d6578"> </tspan>
      <tspan x="76.870117" y="-0.525" style="font-size: 8.8px; font-family: 'DejaVu Serif'; fill: #5d6578">b</tspan>
      <tspan x="82.471313" y="-0.525" style="font-size: 8.8px; font-family: 'DejaVu Serif'; fill: #5d6578">o</tspan>
      <tspan x="87.739258" y="-0.525" style="font-size: 8.8px; font-family: 'DejaVu Serif'; fill: #5d6578">r</tspan>
      <tspan x="91.921997" y="-0.525" style="font-size: 8.8px; font-family: 'DejaVu Serif'; fill: #5d6578">r</tspan>
      <tspan x="96.104736" y="-0.525" style="font-size: 8.8px; font-family: 'DejaVu Serif'; fill: #5d6578">o</tspan>
      <tspan x="101.372681" y="-0.525" style="font-size: 8.8px; font-family: 'DejaVu Serif'; fill: #5d6578">w</tspan>
      <tspan x="108.862305" y="-0.525" style="font-size: 8.8px; font-family: 'DejaVu Serif'; fill: #5d6578"> </tspan>
      <tspan x="111.643677" y="-0.525" style="font-size: 8.8px; font-family: 'DejaVu Serif'; fill: #5d6578">e</tspan>
      <tspan x="116.821899" y="-0.525" style="font-size: 8.8px; font-family: 'DejaVu Serif'; fill: #5d6578">x</tspan>
      <tspan x="121.756592" y="-0.525" style="font-size: 8.8px; font-family: 'DejaVu Serif'; fill: #5d6578">t</tspan>
      <tspan x="125.272827" y="-0.525" style="font-size: 8.8px; font-family: 'DejaVu Serif'; fill: #5d6578">r</tspan>
      <tspan x="129.455566" y="-0.525" style="font-size: 8.8px; font-family: 'DejaVu Serif'; fill: #5d6578">a</tspan>
      <tspan x="134.672241" y="-0.525" style="font-size: 8.8px; font-family: 'DejaVu Serif'; fill: #5d6578"> </tspan>
      <tspan x="143.4561" y="-0.525" style="font-size: 8.8px; font-family: 'DejaVu Serif'; fill: #5d6578"> </tspan>
      <tspan x="146.237473" y="-0.525" style="font-size: 8.8px; font-family: 'DejaVu Serif'; fill: #5d6578">f</tspan>
      <tspan x="149.475998" y="-0.525" style="font-size: 8.8px; font-family: 'DejaVu Serif'; fill: #5d6578">r</tspan>
      <tspan x="153.658737" y="-0.525" style="font-size: 8.8px; font-family: 'DejaVu Serif'; fill: #5d6578">o</tspan>
      <tspan x="158.926682" y="-0.525" style="font-size: 8.8px; font-family: 'DejaVu Serif'; fill: #5d6578">m</tspan>
      <tspan x="167.223801" y="-0.525" style="font-size: 8.8px; font-family: 'DejaVu Serif'; fill: #5d6578"> </tspan>
      <tspan x="170.005173" y="-0.525" style="font-size: 8.8px; font-family: 'DejaVu Serif'; fill: #5d6578">a</tspan>
      <tspan x="175.221848" y="-0.525" style="font-size: 8.8px; font-family: 'DejaVu Serif'; fill: #5d6578">m</tspan>
      <tspan x="183.518967" y="-0.525" style="font-size: 8.8px; font-family: 'DejaVu Serif'; fill: #5d6578">p</tspan>
      <tspan x="189.120163" y="-0.525" style="font-size: 8.8px; font-family: 'DejaVu Serif'; fill: #5d6578">l</tspan>
      <tspan x="191.918625" y="-0.525" style="font-size: 8.8px; font-family: 'DejaVu Serif'; fill: #5d6578">i</tspan>
      <tspan x="194.717087" y="-0.525" style="font-size: 8.8px; font-family: 'DejaVu Serif'; fill: #5d6578">t</tspan>
      <tspan x="198.233322" y="-0.525" style="font-size: 8.8px; font-family: 'DejaVu Serif'; fill: #5d6578">u</tspan>
      <tspan x="203.868698" y="-0.525" style="font-size: 8.8px; font-family: 'DejaVu Serif'; fill: #5d6578">d</tspan>
      <tspan x="209.469894" y="-0.525" style="font-size: 8.8px; font-family: 'DejaVu Serif'; fill: #5d6578">e</tspan>
      <tspan x="214.648117" y="-0.525" style="font-size: 8.8px; font-family: 'DejaVu Serif'; fill: #5d6578"> </tspan>
      <tspan x="217.429489" y="-0.525" style="font-size: 8.8px; font-family: 'DejaVu Serif'; fill: #5d6578">t</tspan>
      <tspan x="220.945724" y="-0.525" style="font-size: 8.8px; font-family: 'DejaVu Serif'; fill: #5d6578">o</tspan>
      <tspan x="226.213669" y="-0.525" style="font-size: 8.8px; font-family: 'DejaVu Serif'; fill: #5d6578">w</tspan>
      <tspan x="233.703293" y="-0.525" style="font-size: 8.8px; font-family: 'DejaVu Serif'; fill: #5d6578">e</tspan>
      <tspan x="238.881516" y="-0.525" style="font-size: 8.8px; font-family: 'DejaVu Serif'; fill: #5d6578">r</tspan>
      <tspan x="243.064255" y="-0.525" style="font-size: 8.8px; font-family: 'DejaVu Serif'; fill: #5d6578"> </tspan>
      <tspan x="245.845627" y="-0.525" style="font-size: 8.8px; font-family: 'DejaVu Serif'; fill: #5d6578">w</tspan>
      <tspan x="253.335251" y="-0.525" style="font-size: 8.8px; font-family: 'DejaVu Serif'; fill: #5d6578">h</tspan>
      <tspan x="258.970627" y="-0.525" style="font-size: 8.8px; font-family: 'DejaVu Serif'; fill: #5d6578">e</tspan>
      <tspan x="264.148849" y="-0.525" style="font-size: 8.8px; font-family: 'DejaVu Serif'; fill: #5d6578">n</tspan>
      <tspan x="269.784225" y="-0.525" style="font-size: 8.8px; font-family: 'DejaVu Serif'; fill: #5d6578"> </tspan>
      <tspan x="278.815598" y="-0.525" style="font-size: 8.8px; font-family: 'DejaVu Serif'; fill: #5d6578"> </tspan>
      <tspan x="281.59697" y="-0.525" style="font-size: 8.8px; font-family: 'DejaVu Serif'; fill: #5d6578">e</tspan>
      <tspan x="286.775192" y="-0.525" style="font-size: 8.8px; font-family: 'DejaVu Serif'; fill: #5d6578">x</tspan>
      <tspan x="291.709885" y="-0.525" style="font-size: 8.8px; font-family: 'DejaVu Serif'; fill: #5d6578">c</tspan>
      <tspan x="296.610397" y="-0.525" style="font-size: 8.8px; font-family: 'DejaVu Serif'; fill: #5d6578">e</tspan>
      <tspan x="301.78862" y="-0.525" style="font-size: 8.8px; font-family: 'DejaVu Serif'; fill: #5d6578">e</tspan>
      <tspan x="306.966843" y="-0.525" style="font-size: 8.8px; font-family: 'DejaVu Serif'; fill: #5d6578">d</tspan>
      <tspan x="312.568039" y="-0.525" style="font-size: 8.8px; font-family: 'DejaVu Serif'; fill: #5d6578">s</tspan>
      <tspan x="317.058395" y="-0.525" style="font-size: 8.8px; font-family: 'DejaVu Serif'; fill: #5d6578"> </tspan>
      <tspan x="319.839767" y="-0.525" style="font-size: 8.8px; font-family: 'DejaVu Serif'; fill: #5d6578">V</tspan>
      <tspan x="326.158737" y="-0.525" style="font-size: 8.8px; font-family: 'DejaVu Serif'; fill: #5d6578">1</tspan>
      <tspan x="331.725754" y="-0.525" style="font-size: 8.8px; font-family: 'DejaVu Serif'; fill: #5d6578"> </tspan>
      <tspan x="334.507126" y="-0.525" style="font-size: 8.8px; font-family: 'DejaVu Serif'; fill: #5d6578">s</tspan>
      <tspan x="338.997482" y="-0.525" style="font-size: 8.8px; font-family: 'DejaVu Serif'; fill: #5d6578">l</tspan>
      <tspan x="341.795944" y="-0.525" style="font-size: 8.8px; font-family: 'DejaVu Serif'; fill: #5d6578">o</tspan>
      <tspan x="347.063889" y="-0.525" style="font-size: 8.8px; font-family: 'DejaVu Serif'; fill: #5d6578">t</tspan>
      <tspan x="350.580124" y="-0.525" style="font-size: 8.8px; font-family: 'DejaVu Serif'; fill: #5d6578">s</tspan>
      <tspan x="355.07048" y="-0.525" style="font-size: 8.8px; font-family: 'DejaVu Serif'; fill: #5d6578">.</tspan>
      <tspan x="137.453613" y="-0.525" style="font-style: italic; font-size: 8.8px; font-family: 'STIXGeneral'; fill: #5d6578">ω</tspan>
      <tspan x="272.565598" y="-0.525" style="font-style: italic; font-size: 8.8px; font-family: 'STIXGeneral'; fill: #5d6578">K</tspan>
      <tspan x="278.503098" y="-2.9375" style="font-size: 8.8px; font-family: 'STIXGeneral'; fill: #5d6578">̂</tspan>
     </text>
    </g>
   </g>
   <g id="text_13">
    <text style="font-weight: 600; font-size: 12.5px; font-family: 'DejaVu Serif'; text-anchor: start" x="3.6" y="13.098047" transform="rotate(-0 3.6 13.098047)">V3 Hybrid Inference: frequency prior + amplitude calibration</text>
   </g>
  </g>
 </g>
 <defs>
  <clipPath id="pcd08aa9a4f">
   <rect x="3.6" y="19.098047" width="669.6" height="277.2"/>
  </clipPath>
  <clipPath id="p2c5b3eb5e6">
   <path d="M 29.822098 196.079585 
L 141.266014 196.079585 
Q 145.012028 196.079585 145.012028 191.81497 
L 145.012028 128.911893 
Q 145.012028 124.647278 141.266014 124.647278 
L 29.822098 124.647278 
Q 26.076084 124.647278 26.076084 128.911893 
L 26.076084 191.81497 
Q 26.076084 196.079585 29.822098 196.079585 
z
"/>
  </clipPath>
  <clipPath id="pa8ca3dab40">
   <path d="M 29.822098 196.079585 
L 141.266014 196.079585 
Q 145.012028 196.079585 145.012028 191.81497 
L 145.012028 128.911893 
Q 145.012028 124.647278 141.266014 124.647278 
L 29.822098 124.647278 
Q 26.076084 124.647278 26.076084 128.911893 
L 26.076084 191.81497 
Q 26.076084 196.079585 29.822098 196.079585 
z
"/>
  </clipPath>
  <clipPath id="p41b911eff7">
   <path d="M 29.822098 196.079585 
L 141.266014 196.079585 
Q 145.012028 196.079585 145.012028 191.81497 
L 145.012028 128.911893 
Q 145.012028 124.647278 141.266014 124.647278 
L 29.822098 124.647278 
Q 26.076084 124.647278 26.076084 128.911893 
L 26.076084 191.81497 
Q 26.076084 196.079585 29.822098 196.079585 
z
"/>
  </clipPath>
  <clipPath id="pbb068180cd">
   <path d="M 184.345175 134.775739 
L 326.225455 134.775739 
Q 329.971469 134.775739 329.971469 130.511124 
L 329.971469 70.273431 
Q 329.971469 66.008816 326.225455 66.008816 
L 184.345175 66.008816 
Q 180.599161 66.008816 180.599161 70.273431 
L 180.599161 130.511124 
Q 180.599161 134.775739 184.345175 134.775739 
z
"/>
  </clipPath>
  <clipPath id="p78719449dc">
   <path d="M 184.345175 134.775739 
L 326.225455 134.775739 
Q 329.971469 134.775739 329.971469 130.511124 
L 329.971469 70.273431 
Q 329.971469 66.008816 326.225455 66.008816 
L 184.345175 66.008816 
Q 180.599161 66.008816 180.599161 70.273431 
L 180.599161 130.511124 
Q 180.599161 134.775739 184.345175 134.775739 
z
"/>
  </clipPath>
  <clipPath id="p3527260207">
   <path d="M 184.345175 252.052662 
L 326.225455 252.052662 
Q 329.971469 252.052662 329.971469 247.788047 
L 329.971469 187.550355 
Q 329.971469 183.285739 326.225455 183.285739 
L 184.345175 183.285739 
Q 180.599161 183.285739 180.599161 187.550355 
L 180.599161 247.788047 
Q 180.599161 252.052662 184.345175 252.052662 
z
"/>
  </clipPath>
  <clipPath id="p353e3dfd67">
   <path d="M 184.345175 252.052662 
L 326.225455 252.052662 
Q 329.971469 252.052662 329.971469 247.788047 
L 329.971469 187.550355 
Q 329.971469 183.285739 326.225455 183.285739 
L 184.345175 183.285739 
Q 180.599161 183.285739 180.599161 187.550355 
L 180.599161 247.788047 
Q 180.599161 252.052662 184.345175 252.052662 
z
"/>
  </clipPath>
  <clipPath id="p9e9b5938a2">
   <path d="M 378.66965 196.079585 
L 529.914965 196.079585 
Q 533.660979 196.079585 533.660979 191.81497 
L 533.660979 128.911893 
Q 533.660979 124.647278 529.914965 124.647278 
L 378.66965 124.647278 
Q 374.923636 124.647278 374.923636 128.911893 
L 374.923636 191.81497 
Q 374.923636 196.079585 378.66965 196.079585 
z
"/>
  </clipPath>
  <clipPath id="pb3b4783b3e">
   <path d="M 378.66965 196.079585 
L 529.914965 196.079585 
Q 533.660979 196.079585 533.660979 191.81497 
L 533.660979 128.911893 
Q 533.660979 124.647278 529.914965 124.647278 
L 378.66965 124.647278 
Q 374.923636 124.647278 374.923636 128.911893 
L 374.923636 191.81497 
Q 374.923636 196.079585 378.66965 196.079585 
z
"/>
  </clipPath>
  <clipPath id="pf73fc1d9f1">
   <path d="M 378.66965 196.079585 
L 529.914965 196.079585 
Q 533.660979 196.079585 533.660979 191.81497 
L 533.660979 128.911893 
Q 533.660979 124.647278 529.914965 124.647278 
L 378.66965 124.647278 
Q 374.923636 124.647278 374.923636 128.911893 
L 374.923636 191.81497 
Q 374.923636 196.079585 378.66965 196.079585 
z
"/>
  </clipPath>
  <clipPath id="p354fa22433">
   <path d="M 568.311608 196.079585 
L 646.977902 196.079585 
Q 650.723916 196.079585 650.723916 191.81497 
L 650.723916 128.911893 
Q 650.723916 124.647278 646.977902 124.647278 
L 568.311608 124.647278 
Q 564.565594 124.647278 564.565594 128.911893 
L 564.565594 191.81497 
Q 564.565594 196.079585 568.311608 196.079585 
z
"/>
  </clipPath>
  <clipPath id="p2cdfcba426">
   <path d="M 568.311608 196.079585 
L 646.977902 196.079585 
Q 650.723916 196.079585 650.723916 191.81497 
L 650.723916 128.911893 
Q 650.723916 124.647278 646.977902 124.647278 
L 568.311608 124.647278 
Q 564.565594 124.647278 564.565594 128.911893 
L 564.565594 191.81497 
Q 564.565594 196.079585 568.311608 196.079585 
z
"/>
  </clipPath>
 </defs>
</svg>
