<?xml version="1.0" encoding="utf-8" standalone="no"?>
<!DOCTYPE svg PUBLIC "-//W3C//DTD SVG 1.1//EN"
  "http://www.w3.org/Graphics/SVG/1.1/DTD/svg11.dtd">
<svg xmlns:xlink="http://www.w3.org/1999/xlink" width="526.219375pt" height="276.37pt" viewBox="0 0 526.219375 276.37" xmlns="http://www.w3.org/2000/svg" version="1.1">
 <metadata>
  <rdf:RDF xmlns:dc="http://purl.org/dc/elements/1.1/" xmlns:cc="http://creativecommons.org/ns#" xmlns:rdf="http://www.w3.org/1999/02/22-rdf-syntax-ns#">
   <cc:Work>
    <dc:type rdf:resource="http://purl.org/dc/dcmitype/StillImage"/>
    <dc:date>2026-04-22T05:11:50.347101</dc:date>
    <dc:format>image/svg+xml</dc:format>
    <dc:creator>
     <cc:Agent>
      <dc:title>Matplotlib v3.10.8, https://matplotlib.org/</dc:title>
     </cc:Agent>
    </dc:creator>
   </cc:Work>
  </rdf:RDF>
 </metadata>
 <defs>
  <style type="text/css">*{stroke-linejoin: round; stroke-linecap: butt}</style>
 </defs>
 <g id="figure_1">
  <g id="patch_1">
   <path d="M 0 276.37 
L 526.219375 276.37 
L 526.219375 0 
L 0 0 
z
" style="fill: #ffffff"/>
  </g>
  <g id="axes_1">
   <g id="patch_2">
    <path d="M 42.739375 240.478125 
L 522.619375 240.478125 
L 522.619375 18.718125 
L 42.739375 18.718125 
z
" style="fill: #ffffff"/>
   </g>
   <g id="matplotlib.axis_1">
    <g id="xtick_1">
     <g id="line2d_1">
      <defs>
       <path id="m250effc500" d="M 0 0 
L 0 3.5 
" style="stroke: #000000; stroke-width: 0.8"/>
      </defs>
      <g>
       <use xlink:href="#m250effc500" x="49.508842" y="240.478125" style="stroke: #000000; stroke-width: 0.8"/>
      </g>
     </g>
     <g id="text_1">
      <text style="font-size: 11px; font-family: 'DejaVu Sans'; text-anchor: middle" x="49.508842" y="255.836406" transform="rotate(-0 49.508842 255.836406)">0.0</text>
     </g>
    </g>
    <g id="xtick_2">
     <g id="line2d_2">
      <g>
       <use xlink:href="#m250effc500" x="109.681883" y="240.478125" style="stroke: #000000; stroke-width: 0.8"/>
      </g>
     </g>
     <g id="text_2">
      <text style="font-size: 11px; font-family: 'DejaVu Sans'; text-anchor: middle" x="109.681883" y="255.836406" transform="rotate(-0 109.681883 255.836406)">0.2</text>
     </g>
    </g>
    <g id="xtick_3">
     <g id="line2d_3">
      <g>
       <use xlink:href="#m250effc500" x="169.854924" y="240.478125" style="stroke: #000000; stroke-width: 0.8"/>
      </g>
     </g>
     <g id="text_3">
      <text style="font-size: 11px; font-family: 'DejaVu Sans'; text-anchor: middle" x="169.854924" y="255.836406" transform="rotate(-0 169.854924 255.836406)">0.4</text>
     </g>
    </g>
    <g id="xtick_4">
     <g id="line2d_4">
      <g>
       <use xlink:href="#m250effc500" x="230.027964" y="240.478125" style="stroke: #000000; stroke-width: 0.8"/>
      </g>
     </g>
     <g id="text_4">
      <text style="font-size: 11px; font-family: 'DejaVu Sans'; text-anchor: middle" x="230.027964" y="255.836406" transform="rotate(-0 230.027964 255.836406)">0.6</text>
     </g>
    </g>
    <g id="xtick_5">
     <g id="line2d_5">
      <g>
       <use xlink:href="#m250effc500" x="290.201005" y="240.478125" style="stroke: #000000; stroke-width: 0.8"/>
      </g>
     </g>
     <g id="text_5">
      <text style="font-size: 11px; font-family: 'DejaVu Sans'; text-anchor: middle" x="290.201005" y="255.836406" transform="rotate(-0 290.201005 255.836406)">0.8</text>
     </g>
    </g>
    <g id="xtick_6">
     <g id="line2d_6">
      <g>
       <use xlink:href="#m250effc500" x="350.374046" y="240.478125" style="stroke: #000000; stroke-width: 0.8"/>
      </g>
     </g>
     <g id="text_6">
      <text style="font-size: 11px; font-family: 'DejaVu Sans'; text-anchor: middle" x="350.374046" y="255.836406" transform="rotate(-0 350.374046 255.836406)">1.0</text>
     </g>
    </g>
    <g id="xtick_7">
     <g id="line2d_7">
      <g>
       <use xlink:href="#m250effc500" x="410.547087" y="240.478125" style="stroke: #000000; stroke-width: 0.8"/>
      </g>
     </g>
     <g id="text_7">
      <text style="font-size: 11px; font-family: 'DejaVu Sans'; text-anchor: middle" x="410.547087" y="255.836406" transform="rotate(-0 410.547087 255.836406)">1.2</text>
     </g>
    </g>
    <g id="xtick_8">
     <g id="line2d_8">
      <g>
       <use xlink:href="#m250effc500" x="470.720127" y="240.478125" style="stroke: #000000; stroke-width: 0.8"/>
      </g>
     </g>
     <g id="text_8">
      <text style="font-size: 11px; font-family: 'DejaVu Sans'; text-anchor: middle" x="470.720127" y="255.836406" transform="rotate(-0 470.720127 255.836406)">1.4</text>
     </g>
    </g>
    <g id="text_9">
     <text style="font-size: 11px; font-family: 'DejaVu Sans'; text-anchor: middle" x="282.679375" y="270.482344" transform="rotate(-0 282.679375 270.482344)">Frequency ω  (a.u.)</text>
    </g>
   </g>
   <g id="matplotlib.axis_2">
    <g id="ytick_1">
     <g id="line2d_9">
      <defs>
       <path id="m82f8927e51" d="M 0 0 
L -3.5 0 
" style="stroke: #000000; stroke-width: 0.8"/>
      </defs>
      <g>
       <use xlink:href="#m82f8927e51" x="42.739375" y="230.953836" style="stroke: #000000; stroke-width: 0.8"/>
      </g>
     </g>
     <g id="text_10">
      <text style="font-size: 11px; font-family: 'DejaVu Sans'; text-anchor: end" x="35.739375" y="235.132977" transform="rotate(-0 35.739375 235.132977)">0.0</text>
     </g>
    </g>
    <g id="ytick_2">
     <g id="line2d_10">
      <g>
       <use xlink:href="#m82f8927e51" x="42.739375" y="190.522694" style="stroke: #000000; stroke-width: 0.8"/>
      </g>
     </g>
     <g id="text_11">
      <text style="font-size: 11px; font-family: 'DejaVu Sans'; text-anchor: end" x="35.739375" y="194.701834" transform="rotate(-0 35.739375 194.701834)">0.2</text>
     </g>
    </g>
    <g id="ytick_3">
     <g id="line2d_11">
      <g>
       <use xlink:href="#m82f8927e51" x="42.739375" y="150.091552" style="stroke: #000000; stroke-width: 0.8"/>
      </g>
     </g>
     <g id="text_12">
      <text style="font-size: 11px; font-family: 'DejaVu Sans'; text-anchor: end" x="35.739375" y="154.270692" transform="rotate(-0 35.739375 154.270692)">0.4</text>
     </g>
    </g>
    <g id="ytick_4">
     <g id="line2d_12">
      <g>
       <use xlink:href="#m82f8927e51" x="42.739375" y="109.660409" style="stroke: #000000; stroke-width: 0.8"/>
      </g>
     </g>
     <g id="text_13">
      <text style="font-size: 11px; font-family: 'DejaVu Sans'; text-anchor: end" x="35.739375" y="113.83955" transform="rotate(-0 35.739375 113.83955)">0.6</text>
     </g>
    </g>
    <g id="ytick_5">
     <g id="line2d_13">
      <g>
       <use xlink:href="#m82f8927e51" x="42.739375" y="69.229267" style="stroke: #000000; stroke-width: 0.8"/>
      </g>
     </g>
     <g id="text_14">
      <text style="font-size: 11px; font-family: 'DejaVu Sans'; text-anchor: end" x="35.739375" y="73.408408" transform="rotate(-0 35.739375 73.408408)">0.8</text>
     </g>
    </g>
    <g id="ytick_6">
     <g id="line2d_14">
      <g>
       <use xlink:href="#m82f8927e51" x="42.739375" y="28.798125" style="stroke: #000000; stroke-width: 0.8"/>
      </g>
     </g>
     <g id="text_15">
      <text style="font-size: 11px; font-family: 'DejaVu Sans'; text-anchor: end" x="35.739375" y="32.977266" transform="rotate(-0 35.739375 32.977266)">1.0</text>
     </g>
    </g>
    <g id="text_16">
     <text style="font-size: 11px; font-family: 'DejaVu Sans'; text-anchor: middle" x="11.958281" y="129.598125" transform="rotate(-90 11.958281 129.598125)">S(ω)   (normalized)</text>
    </g>
   </g>
   <g id="line2d_15">
    <path d="M 64.552102 230.398125 
L 91.831331 230.065444 
L 107.389017 229.670782 
L 116.979371 229.22196 
L 123.37294 228.712506 
L 127.848438 228.139784 
L 131.045223 227.517743 
L 133.389532 226.861202 
L 135.307603 226.116589 
L 137.012554 225.208818 
L 138.291268 224.300576 
L 139.569982 223.107909 
L 140.635577 221.809421 
L 141.701172 220.128224 
L 142.766767 217.932603 
L 143.619243 215.703565 
L 144.684838 212.223258 
L 145.963551 207.123125 
L 147.242265 202.025401 
L 147.881622 200.203932 
L 148.30786 199.495015 
L 148.734098 199.271094 
L 148.947217 199.348445 
L 149.373455 199.867774 
L 149.799693 200.819812 
L 150.43905 202.84956 
L 153.422716 213.52904 
L 154.48831 216.115782 
L 155.340786 217.681855 
L 156.406381 219.135389 
L 157.471976 220.154302 
L 158.537571 220.84316 
L 159.603166 221.277039 
L 160.88188 221.532917 
L 162.160594 221.553271 
L 163.439307 221.370809 
L 164.93114 220.919873 
L 166.422973 220.209398 
L 167.701687 219.373796 
L 168.980401 218.294864 
L 170.259115 216.921763 
L 171.537829 215.179957 
L 172.603423 213.370394 
L 173.669018 211.143797 
L 174.734613 208.380995 
L 175.800208 204.91745 
L 176.865803 200.524248 
L 177.718279 196.129375 
L 178.570755 190.717928 
L 179.423231 184.007907 
L 180.275707 175.648012 
L 181.128183 165.230191 
L 181.980658 152.354088 
L 183.046253 132.525071 
L 185.603681 81.129908 
L 186.029919 76.472947 
L 186.456157 74.261506 
L 186.669276 74.149349 
L 186.882395 74.706654 
L 187.308633 77.745598 
L 187.734871 83.057211 
L 188.374228 94.160491 
L 191.357893 151.778675 
L 192.210369 163.292103 
L 193.062845 172.35773 
L 193.915321 179.370092 
L 194.767797 184.706072 
L 195.620273 188.67511 
L 196.472749 191.511359 
L 197.112106 192.996964 
L 197.751463 193.986996 
L 198.39082 194.511841 
L 198.817058 194.611162 
L 199.243296 194.511164 
L 199.669534 194.209493 
L 200.30889 193.366281 
L 200.948247 192.025175 
L 201.587604 190.137887 
L 202.226961 187.637662 
L 203.079437 183.197849 
L 203.931913 177.251255 
L 204.784389 169.489526 
L 205.636865 159.618822 
L 206.70246 144.181831 
L 209.046769 107.433649 
L 209.473006 103.536813 
L 209.899244 101.534111 
L 210.112363 101.319011 
L 210.325482 101.642569 
L 210.538601 102.497799 
L 210.964839 105.707077 
L 211.604196 113.624157 
L 212.669791 131.373409 
L 214.161624 156.174558 
L 215.227219 170.303924 
L 216.292814 181.141107 
L 217.14529 187.806982 
L 217.997766 193.041932 
L 218.850241 197.124932 
L 219.702717 200.275936 
L 220.555193 202.658954 
L 221.407669 204.389865 
L 222.260145 205.543864 
L 222.899502 206.055992 
L 223.538859 206.271561 
L 224.178216 206.185558 
L 224.817573 205.783148 
L 225.45693 205.03972 
L 226.096287 203.921394 
L 226.735644 202.386848 
L 227.58812 199.617976 
L 228.440595 195.956572 
L 229.50619 190.218421 
L 231.211142 180.708808 
L 231.850499 178.543913 
L 232.276737 177.959049 
L 232.489856 177.961091 
L 232.702975 178.164722 
L 233.129213 179.1604 
L 233.555451 180.864477 
L 234.194808 184.427174 
L 237.391592 204.508339 
L 238.457187 209.115215 
L 239.522782 212.65195 
L 240.588377 215.363848 
L 241.653972 217.461053 
L 242.719567 219.10334 
L 243.998281 220.635042 
L 245.276995 221.818381 
L 246.768827 222.883906 
L 248.473779 223.80626 
L 250.39185 224.580053 
L 252.736159 225.263757 
L 255.506705 225.817176 
L 258.70349 226.219244 
L 262.326513 226.453144 
L 266.375773 226.490442 
L 270.425034 226.302331 
L 274.048056 225.914288 
L 277.244841 225.34497 
L 279.802269 224.676455 
L 282.146578 223.828254 
L 284.064648 222.900084 
L 285.7696 221.82995 
L 287.261433 220.636614 
L 288.540147 219.35896 
L 289.818861 217.769854 
L 291.097575 215.766655 
L 292.163169 213.677007 
L 293.228764 211.080344 
L 294.294359 207.812682 
L 295.359954 203.645758 
L 296.21243 199.454609 
L 297.064906 194.269149 
L 297.917382 187.813452 
L 298.769858 179.753216 
L 299.622334 169.72421 
L 300.687929 153.991125 
L 301.966642 130.896893 
L 303.245356 107.980802 
L 303.884713 99.984887 
L 304.310951 97.026881 
L 304.52407 96.386527 
L 304.737189 96.332151 
L 304.950308 96.864871 
L 305.376546 99.61939 
L 305.802784 104.371559 
L 306.442141 114.264525 
L 309.425807 165.884767 
L 310.491401 178.726708 
L 311.556996 188.468902 
L 312.622591 195.808741 
L 313.688186 201.358345 
L 314.753781 205.585414 
L 315.819376 208.829227 
L 316.884971 211.331203 
L 317.950566 213.262243 
L 319.016161 214.743968 
L 320.081755 215.865646 
L 321.14735 216.699196 
L 322.426064 217.410789 
L 323.704778 217.889583 
L 324.983492 218.154759 
L 326.049087 218.184273 
L 327.114682 218.008608 
L 328.180277 217.598442 
L 329.245871 216.916793 
L 330.311466 215.912321 
L 331.377061 214.518904 
L 332.442656 212.670324 
L 333.508251 210.350196 
L 336.491917 203.331427 
L 337.557512 201.621763 
L 338.836225 199.550494 
L 339.475582 198.113496 
L 340.114939 196.208872 
L 340.754296 193.713598 
L 341.606772 189.271454 
L 342.459248 183.303822 
L 343.311724 175.532993 
L 344.1642 165.747696 
L 345.229795 150.822458 
L 346.934746 125.877098 
L 347.574103 119.665127 
L 348.000341 117.533878 
L 348.21346 117.170969 
L 348.426579 117.295385 
L 348.639698 117.905243 
L 349.065936 120.510585 
L 349.492174 124.737525 
L 350.34465 136.508102 
L 352.688959 171.558771 
L 353.754554 183.467288 
L 354.820149 192.594075 
L 355.885744 199.504172 
L 356.951338 204.744733 
L 358.016933 208.747837 
L 359.082528 211.831874 
L 360.148123 214.229608 
L 361.213718 216.120716 
L 362.492432 217.93547 
L 364.197384 219.911668 
L 365.902335 221.537843 
L 367.394168 222.675628 
L 369.09912 223.689946 
L 371.017191 224.553872 
L 373.148381 225.268714 
L 375.705808 225.888916 
L 378.689474 226.383076 
L 382.312497 226.745353 
L 386.148638 226.905935 
L 389.98478 226.845018 
L 393.181564 226.57569 
L 396.804587 226.005508 
L 402.132561 225.073767 
L 403.837513 224.487312 
L 405.542465 223.665373 
L 407.673655 222.353046 
L 411.509796 219.784836 
L 412.575391 218.765213 
L 413.640986 217.445595 
L 414.706581 215.743951 
L 415.772176 213.556856 
L 416.837771 210.740055 
L 417.690247 207.898153 
L 418.542723 204.381331 
L 419.395199 200.004591 
L 420.247675 194.534271 
L 421.10015 187.692225 
L 421.952626 179.189252 
L 423.018221 165.947953 
L 424.723173 140.566362 
L 425.575649 129.422887 
L 426.215006 124.120552 
L 426.641244 122.688426 
L 426.854363 122.674514 
L 427.067482 123.133299 
L 427.49372 125.408647 
L 427.919958 129.286517 
L 428.559315 137.313966 
L 431.54298 179.005544 
L 432.608575 189.384311 
L 433.67417 197.27809 
L 434.739765 203.250087 
L 435.80536 207.794166 
L 436.870955 211.288301 
L 437.93655 214.007854 
L 439.002144 216.150337 
L 440.067739 217.85738 
L 441.346453 219.472978 
L 442.625167 220.733027 
L 444.117 221.868847 
L 445.608833 222.734683 
L 447.313785 223.476384 
L 449.231855 224.071624 
L 451.363045 224.505605 
L 453.707354 224.763557 
L 456.264782 224.821068 
L 458.822209 224.654718 
L 461.379637 224.264271 
L 464.576422 223.53419 
L 466.707611 222.83295 
L 468.625682 221.953682 
L 470.330634 220.916972 
L 471.822467 219.759031 
L 473.3143 218.299336 
L 474.593014 216.738136 
L 475.871727 214.804701 
L 476.937322 212.82778 
L 478.002917 210.423313 
L 479.068512 207.469727 
L 480.134107 203.801396 
L 481.199702 199.190152 
L 482.052178 194.612982 
L 482.904654 189.013559 
L 483.75713 182.107605 
L 484.609605 173.52903 
L 485.462081 162.819925 
L 486.314557 149.443606 
L 487.167033 132.861245 
L 488.232628 107.193891 
L 491.003175 35.456403 
L 491.429413 30.432112 
L 491.642532 29.17214 
L 491.855651 28.798125 
L 492.06877 29.3201 
L 492.281889 30.724336 
L 492.708127 36.012702 
L 493.347484 49.059694 
L 494.413078 78.269784 
L 495.904911 119.082402 
L 496.970506 142.425139 
L 498.036101 160.479596 
L 499.101696 174.184043 
L 500.167291 184.584834 
L 500.806648 189.608443 
L 500.806648 189.608443 
" clip-path="url(#pf9651c340e)" style="fill: none; stroke: #1565c0; stroke-width: 1.4; stroke-linecap: square"/>
   </g>
   <g id="line2d_16">
    <path d="M 64.552102 230.279053 
L 90.126379 229.871918 
L 103.552875 229.443752 
L 112.716991 228.942802 
L 119.323679 228.369663 
L 124.225416 227.733772 
L 128.061557 227.023276 
L 131.045223 226.264905 
L 133.602651 225.396798 
L 135.733841 224.44809 
L 137.651911 223.342926 
L 139.356863 222.078717 
L 140.848696 220.669789 
L 142.12741 219.155379 
L 143.406124 217.258205 
L 144.471719 215.287902 
L 145.537313 212.847114 
L 146.602908 209.78269 
L 147.668503 205.88138 
L 148.520979 201.961617 
L 149.373455 197.115936 
L 150.225931 191.089152 
L 151.078407 183.576308 
L 151.930883 174.255837 
L 152.996478 159.732763 
L 154.48831 135.187452 
L 155.553905 118.976162 
L 156.193262 112.672932 
L 156.6195 110.728073 
L 156.832619 110.521621 
L 157.045738 110.8363 
L 157.258857 111.662747 
L 157.685095 114.748806 
L 158.324452 122.315545 
L 159.390047 139.150032 
L 160.88188 162.48213 
L 161.947475 175.691597 
L 162.799951 183.986688 
L 163.652426 190.548129 
L 164.504902 195.690874 
L 165.357378 199.694916 
L 166.209854 202.784985 
L 167.06233 205.131574 
L 167.914806 206.858325 
L 168.767282 208.049785 
L 169.406639 208.624203 
L 170.045996 208.937966 
L 170.685353 208.993303 
L 171.32471 208.78405 
L 171.964067 208.295809 
L 172.603423 207.50632 
L 173.24278 206.386614 
L 174.095256 204.323737 
L 174.947732 201.55233 
L 176.013327 197.124314 
L 177.931398 188.560386 
L 178.570755 186.840036 
L 178.996993 186.363179 
L 179.210112 186.351857 
L 179.423231 186.49468 
L 179.849469 187.226181 
L 180.275707 188.487728 
L 180.915064 191.116557 
L 183.898729 204.674073 
L 184.751205 207.313451 
L 185.603681 209.333999 
L 186.456157 210.826481 
L 187.308633 211.878004 
L 188.161109 212.5596 
L 189.013585 212.923826 
L 189.866061 213.005781 
L 190.718537 212.825121 
L 191.571012 212.388048 
L 192.423488 211.688531 
L 193.275964 210.708382 
L 194.12844 209.4162 
L 194.980916 207.765222 
L 195.833392 205.689913 
L 196.685868 203.10105 
L 197.538344 199.878935 
L 198.39082 195.8645 
L 199.243296 190.848465 
L 200.095772 184.560159 
L 200.948247 176.661209 
L 201.800723 166.757974 
L 202.653199 154.46452 
L 203.718794 135.473505 
L 206.276222 86.28876 
L 206.70246 81.910695 
L 207.128698 79.914523 
L 207.341817 79.883556 
L 207.554936 80.503979 
L 207.981174 83.61667 
L 208.407412 88.939621 
L 209.046769 99.97454 
L 212.030434 157.280116 
L 213.096029 171.48453 
L 213.948505 180.320176 
L 214.800981 187.341106 
L 215.653457 192.917357 
L 216.719052 198.314197 
L 217.784647 202.37843 
L 218.850241 205.432772 
L 219.915836 207.702451 
L 220.768312 209.058667 
L 221.620788 210.066352 
L 222.473264 210.762245 
L 223.32574 211.168443 
L 224.178216 211.293896 
L 225.030692 211.134851 
L 225.883168 210.674288 
L 226.735644 209.880313 
L 227.58812 208.70339 
L 228.440595 207.072292 
L 229.293071 204.888797 
L 230.145547 202.021655 
L 230.998023 198.301829 
L 231.850499 193.524568 
L 232.702975 187.471674 
L 233.555451 179.981889 
L 234.834165 166.315552 
L 236.325998 150.504217 
L 236.965354 146.250148 
L 237.391592 144.960141 
L 237.604711 144.843236 
L 237.81783 145.087141 
L 238.030949 145.686487 
L 238.457187 147.884754 
L 239.096544 153.244629 
L 240.162139 165.187638 
L 241.653972 181.859606 
L 242.719567 191.405654 
L 243.785162 198.800789 
L 244.850757 204.424442 
L 245.916352 208.700169 
L 246.981946 211.977991 
L 248.047541 214.520217 
L 249.113136 216.516616 
L 250.178731 218.103191 
L 251.457445 219.601694 
L 252.736159 220.768516 
L 254.227992 221.818617 
L 255.932943 222.714151 
L 257.851014 223.434214 
L 259.982204 223.965294 
L 262.113394 224.271063 
L 264.457702 224.381081 
L 266.802011 224.257146 
L 268.933201 223.914836 
L 270.851272 223.371018 
L 272.556224 222.636432 
L 274.048056 221.727214 
L 275.32677 220.675926 
L 276.392365 219.54112 
L 277.45796 218.092741 
L 278.523555 216.226728 
L 279.376031 214.337255 
L 280.228507 211.98909 
L 281.080983 209.055818 
L 281.933459 205.383844 
L 282.785934 200.804829 
L 283.851529 193.603271 
L 285.130243 182.986736 
L 286.408957 172.355823 
L 287.048314 168.58508 
L 287.474552 167.150972 
L 287.687671 166.818728 
L 287.90079 166.756778 
L 288.113909 166.9667 
L 288.540147 168.172816 
L 288.966385 170.315117 
L 289.605742 174.838161 
L 292.802526 200.124262 
L 293.868121 205.806262 
L 294.933716 210.108369 
L 295.999311 213.35231 
L 297.064906 215.81103 
L 298.130501 217.690892 
L 299.196096 219.141489 
L 300.47481 220.464065 
L 301.753523 221.450039 
L 303.245356 222.289576 
L 304.737189 222.880912 
L 306.442141 223.329002 
L 308.360212 223.609467 
L 310.491401 223.698523 
L 312.83571 223.562835 
L 315.180019 223.191322 
L 317.311209 222.632137 
L 319.22928 221.916133 
L 320.934231 221.070645 
L 322.639183 219.974757 
L 324.131016 218.750724 
L 325.40973 217.446615 
L 326.688444 215.838663 
L 327.967158 213.835844 
L 329.032752 211.774233 
L 330.098347 209.24796 
L 331.163942 206.117327 
L 332.229537 202.189736 
L 333.295132 197.197692 
L 334.147608 192.192202 
L 335.000084 186.017685 
L 335.85256 178.355914 
L 336.705036 168.825433 
L 337.557512 157.016434 
L 338.623106 138.577973 
L 339.90182 111.59737 
L 341.180534 84.636737 
L 341.819891 74.94825 
L 342.246129 71.119362 
L 342.459248 70.140619 
L 342.672367 69.819391 
L 342.885486 70.16048 
L 343.098605 71.151823 
L 343.524843 74.958538 
L 344.1642 84.433599 
L 345.229795 105.77675 
L 346.721628 135.635709 
L 347.787222 152.47484 
L 348.639698 162.879708 
L 349.492174 170.884455 
L 350.34465 176.869308 
L 351.197126 181.169323 
L 351.836483 183.445744 
L 352.47584 184.997126 
L 353.115197 185.875254 
L 353.541435 186.101363 
L 353.967673 186.04367 
L 354.393911 185.700246 
L 354.820149 185.064653 
L 355.459506 183.538056 
L 356.098862 181.271046 
L 356.738219 178.181913 
L 357.377576 174.164568 
L 358.230052 167.142241 
L 359.082528 157.919127 
L 359.935004 146.259112 
L 361.000599 128.511604 
L 362.705551 99.56902 
L 363.344908 92.866879 
L 363.771146 90.890841 
L 363.984265 90.753004 
L 364.197384 91.195265 
L 364.410503 92.208283 
L 364.836741 95.836139 
L 365.476097 104.569246 
L 366.541692 123.86005 
L 368.033525 150.526165 
L 369.09912 165.602739 
L 370.164715 177.156036 
L 371.23031 185.958582 
L 372.295905 192.886749 
L 373.574619 199.576649 
L 374.640213 204.106014 
L 375.705808 207.809284 
L 376.771403 210.806072 
L 377.836998 213.22874 
L 379.115712 215.547122 
L 380.394426 217.378534 
L 381.67314 218.844598 
L 383.164973 220.207784 
L 384.656805 221.287688 
L 386.361757 222.25902 
L 388.279828 223.095004 
L 390.411018 223.775925 
L 392.755327 224.279882 
L 395.099635 224.554497 
L 397.230825 224.599036 
L 399.148896 224.439291 
L 400.853848 224.085418 
L 402.34568 223.544959 
L 403.624394 222.837113 
L 404.689989 222.007605 
L 405.755584 220.886288 
L 406.821179 219.394411 
L 407.886774 217.480375 
L 410.87044 211.667103 
L 411.296677 211.312703 
L 411.722915 211.195182 
L 412.149153 211.312409 
L 412.575391 211.636844 
L 413.214748 212.406914 
L 415.345938 215.333531 
L 415.985295 215.874797 
L 416.624652 216.17227 
L 417.264009 216.212429 
L 417.903366 215.988599 
L 418.542723 215.497168 
L 419.18208 214.739023 
L 420.034556 213.337244 
L 421.313269 210.643266 
L 422.591983 208.087559 
L 423.23134 207.273865 
L 423.657578 206.99645 
L 424.083816 206.954883 
L 424.510054 207.154436 
L 424.936292 207.588599 
L 425.575649 208.638803 
L 426.428125 210.611407 
L 429.411791 218.195444 
L 430.477385 220.131837 
L 431.54298 221.618252 
L 432.608575 222.748216 
L 433.887289 223.754714 
L 435.166003 224.486774 
L 436.657836 225.098361 
L 438.575907 225.622804 
L 440.920215 225.999468 
L 443.690762 226.198205 
L 446.887547 226.196065 
L 450.29745 225.974321 
L 453.707354 225.531878 
L 456.69102 224.935838 
L 459.461566 224.159455 
L 461.805875 223.280207 
L 463.937065 222.243148 
L 465.855136 221.050052 
L 467.560087 219.713252 
L 469.05192 218.261194 
L 470.330634 216.743469 
L 471.609348 214.900085 
L 472.888062 212.63479 
L 473.953657 210.330149 
L 475.019252 207.536958 
L 476.084846 204.117748 
L 477.150441 199.890242 
L 478.216036 194.607527 
L 479.281631 187.92138 
L 480.134107 181.235514 
L 480.986583 173.00933 
L 481.839059 162.860065 
L 482.691535 150.405638 
L 483.75713 131.269137 
L 485.462081 94.885991 
L 486.527676 74.374897 
L 487.167033 65.444935 
L 487.80639 59.485634 
L 488.445747 55.786242 
L 489.724461 49.813619 
L 490.363818 45.376287 
L 492.281889 29.691172 
L 492.495008 29.003244 
L 492.708127 28.798125 
L 492.921246 29.135342 
L 493.134365 30.060118 
L 493.560603 33.766631 
L 493.98684 39.918816 
L 494.626197 53.059782 
L 495.904911 86.767122 
L 497.396744 124.471668 
L 498.462339 145.748694 
L 499.527934 162.243913 
L 500.593529 174.858452 
L 500.806648 177.000722 
L 500.806648 177.000722 
" clip-path="url(#pf9651c340e)" style="fill: none; stroke: #2e7d32; stroke-width: 1.4; stroke-linecap: square"/>
   </g>
   <g id="patch_3">
    <path d="M 42.739375 240.478125 
L 42.739375 18.718125 
" style="fill: none; stroke: #000000; stroke-width: 0.8; stroke-linejoin: miter; stroke-linecap: square"/>
   </g>
   <g id="patch_4">
    <path d="M 42.739375 240.478125 
L 522.619375 240.478125 
" style="fill: none; stroke: #000000; stroke-width: 0.8; stroke-linejoin: miter; stroke-linecap: square"/>
   </g>
   <g id="text_17">
    <text style="font-size: 12px; font-family: 'DejaVu Sans'; text-anchor: start" x="42.739375" y="12.718125" transform="rotate(-0 42.739375 12.718125)">Lorentzian-reconstructed target spectra (data/processed)</text>
   </g>
   <g id="legend_1">
    <g id="line2d_17">
     <path d="M 430.250312 33.126406 
L 441.250312 33.126406 
L 452.250312 33.126406 
" style="fill: none; stroke: #1565c0; stroke-width: 1.4; stroke-linecap: square"/>
    </g>
    <g id="text_18">
     <text style="font-size: 11px; font-family: 'DejaVu Sans'; text-anchor: start" x="461.050312" y="36.976406" transform="rotate(-0 461.050312 36.976406)">ammonia</text>
    </g>
    <g id="line2d_18">
     <path d="M 430.250312 49.272344 
L 441.250312 49.272344 
L 452.250312 49.272344 
" style="fill: none; stroke: #2e7d32; stroke-width: 1.4; stroke-linecap: square"/>
    </g>
    <g id="text_19">
     <text style="font-size: 11px; font-family: 'DejaVu Sans'; text-anchor: start" x="461.050312" y="53.122344" transform="rotate(-0 461.050312 53.122344)">water</text>
    </g>
   </g>
  </g>
 </g>
 <defs>
  <clipPath id="pf9651c340e">
   <rect x="42.739375" y="18.718125" width="479.88" height="221.76"/>
  </clipPath>
 </defs>
</svg>
