<?xml version="1.0" encoding="utf-8" standalone="no"?>
<!DOCTYPE svg PUBLIC "-//W3C//DTD SVG 1.1//EN"
  "http://www.w3.org/Graphics/SVG/1.1/DTD/svg11.dtd">
<svg xmlns:xlink="http://www.w3.org/1999/xlink" width="558.420313pt" height="298.191078pt" viewBox="0 0 558.420313 298.191078" xmlns="http://www.w3.org/2000/svg" version="1.1">
 <metadata>
  <rdf:RDF xmlns:dc="http://purl.org/dc/elements/1.1/" xmlns:cc="http://creativecommons.org/ns#" xmlns:rdf="http://www.w3.org/1999/02/22-rdf-syntax-ns#">
   <cc:Work>
    <dc:type rdf:resource="http://purl.org/dc/dcmitype/StillImage"/>
    <dc:date>2026-04-23T01:34:13.696195</dc:date>
    <dc:format>image/svg+xml</dc:format>
    <dc:creator>
     <cc:Agent>
      <dc:title>Matplotlib v3.10.8, https://matplotlib.org/</dc:title>
     </cc:Agent>
    </dc:creator>
   </cc:Work>
  </rdf:RDF>
 </metadata>
 <defs>
  <style type="text/css">*{stroke-linejoin: round; stroke-linecap: butt}</style>
 </defs>
 <g id="figure_1">
  <g id="patch_1">
   <path d="M 0 298.191078 
L 558.420313 298.191078 
L 558.420313 0 
L 0 0 
z
" style="fill: #ffffff"/>
  </g>
  <g id="axes_1">
   <g id="patch_2">
    <path d="M 41.460313 263.034047 
L 554.820312 263.034047 
L 554.820312 19.098047 
L 41.460313 19.098047 
z
" style="fill: #ffffff"/>
   </g>
   <g id="matplotlib.axis_1">
    <g id="xtick_1">
     <g id="line2d_1">
      <path d="M 61.662704 263.034047 
L 61.662704 19.098047 
" clip-path="url(#p4f9ea13e52)" style="fill: none; stroke-dasharray: 2.22,0.96; stroke-dashoffset: 0; stroke: #b0b0b0; stroke-opacity: 0.2; stroke-width: 0.6"/>
     </g>
     <g id="line2d_2">
      <defs>
       <path id="m2406ff07dc" d="M 0 0 
L 0 3.5 
" style="stroke: #000000; stroke-width: 0.8"/>
      </defs>
      <g>
       <use xlink:href="#m2406ff07dc" x="61.662704" y="263.034047" style="stroke: #000000; stroke-width: 0.8"/>
      </g>
     </g>
     <g id="text_1">
      <text style="font-size: 10.5px; font-family: 'DejaVu Serif'; text-anchor: middle" x="61.662704" y="278.012406" transform="rotate(-0 61.662704 278.012406)">0.0</text>
     </g>
    </g>
    <g id="xtick_2">
     <g id="line2d_3">
      <path d="M 124.305779 263.034047 
L 124.305779 19.098047 
" clip-path="url(#p4f9ea13e52)" style="fill: none; stroke-dasharray: 2.22,0.96; stroke-dashoffset: 0; stroke: #b0b0b0; stroke-opacity: 0.2; stroke-width: 0.6"/>
     </g>
     <g id="line2d_4">
      <g>
       <use xlink:href="#m2406ff07dc" x="124.305779" y="263.034047" style="stroke: #000000; stroke-width: 0.8"/>
      </g>
     </g>
     <g id="text_2">
      <text style="font-size: 10.5px; font-family: 'DejaVu Serif'; text-anchor: middle" x="124.305779" y="278.012406" transform="rotate(-0 124.305779 278.012406)">0.2</text>
     </g>
    </g>
    <g id="xtick_3">
     <g id="line2d_5">
      <path d="M 186.948854 263.034047 
L 186.948854 19.098047 
" clip-path="url(#p4f9ea13e52)" style="fill: none; stroke-dasharray: 2.22,0.96; stroke-dashoffset: 0; stroke: #b0b0b0; stroke-opacity: 0.2; stroke-width: 0.6"/>
     </g>
     <g id="line2d_6">
      <g>
       <use xlink:href="#m2406ff07dc" x="186.948854" y="263.034047" style="stroke: #000000; stroke-width: 0.8"/>
      </g>
     </g>
     <g id="text_3">
      <text style="font-size: 10.5px; font-family: 'DejaVu Serif'; text-anchor: middle" x="186.948854" y="278.012406" transform="rotate(-0 186.948854 278.012406)">0.4</text>
     </g>
    </g>
    <g id="xtick_4">
     <g id="line2d_7">
      <path d="M 249.591929 263.034047 
L 249.591929 19.098047 
" clip-path="url(#p4f9ea13e52)" style="fill: none; stroke-dasharray: 2.22,0.96; stroke-dashoffset: 0; stroke: #b0b0b0; stroke-opacity: 0.2; stroke-width: 0.6"/>
     </g>
     <g id="line2d_8">
      <g>
       <use xlink:href="#m2406ff07dc" x="249.591929" y="263.034047" style="stroke: #000000; stroke-width: 0.8"/>
      </g>
     </g>
     <g id="text_4">
      <text style="font-size: 10.5px; font-family: 'DejaVu Serif'; text-anchor: middle" x="249.591929" y="278.012406" transform="rotate(-0 249.591929 278.012406)">0.6</text>
     </g>
    </g>
    <g id="xtick_5">
     <g id="line2d_9">
      <path d="M 312.235004 263.034047 
L 312.235004 19.098047 
" clip-path="url(#p4f9ea13e52)" style="fill: none; stroke-dasharray: 2.22,0.96; stroke-dashoffset: 0; stroke: #b0b0b0; stroke-opacity: 0.2; stroke-width: 0.6"/>
     </g>
     <g id="line2d_10">
      <g>
       <use xlink:href="#m2406ff07dc" x="312.235004" y="263.034047" style="stroke: #000000; stroke-width: 0.8"/>
      </g>
     </g>
     <g id="text_5">
      <text style="font-size: 10.5px; font-family: 'DejaVu Serif'; text-anchor: middle" x="312.235004" y="278.012406" transform="rotate(-0 312.235004 278.012406)">0.8</text>
     </g>
    </g>
    <g id="xtick_6">
     <g id="line2d_11">
      <path d="M 374.878079 263.034047 
L 374.878079 19.098047 
" clip-path="url(#p4f9ea13e52)" style="fill: none; stroke-dasharray: 2.22,0.96; stroke-dashoffset: 0; stroke: #b0b0b0; stroke-opacity: 0.2; stroke-width: 0.6"/>
     </g>
     <g id="line2d_12">
      <g>
       <use xlink:href="#m2406ff07dc" x="374.878079" y="263.034047" style="stroke: #000000; stroke-width: 0.8"/>
      </g>
     </g>
     <g id="text_6">
      <text style="font-size: 10.5px; font-family: 'DejaVu Serif'; text-anchor: middle" x="374.878079" y="278.012406" transform="rotate(-0 374.878079 278.012406)">1.0</text>
     </g>
    </g>
    <g id="xtick_7">
     <g id="line2d_13">
      <path d="M 437.521154 263.034047 
L 437.521154 19.098047 
" clip-path="url(#p4f9ea13e52)" style="fill: none; stroke-dasharray: 2.22,0.96; stroke-dashoffset: 0; stroke: #b0b0b0; stroke-opacity: 0.2; stroke-width: 0.6"/>
     </g>
     <g id="line2d_14">
      <g>
       <use xlink:href="#m2406ff07dc" x="437.521154" y="263.034047" style="stroke: #000000; stroke-width: 0.8"/>
      </g>
     </g>
     <g id="text_7">
      <text style="font-size: 10.5px; font-family: 'DejaVu Serif'; text-anchor: middle" x="437.521154" y="278.012406" transform="rotate(-0 437.521154 278.012406)">1.2</text>
     </g>
    </g>
    <g id="xtick_8">
     <g id="line2d_15">
      <path d="M 500.16423 263.034047 
L 500.16423 19.098047 
" clip-path="url(#p4f9ea13e52)" style="fill: none; stroke-dasharray: 2.22,0.96; stroke-dashoffset: 0; stroke: #b0b0b0; stroke-opacity: 0.2; stroke-width: 0.6"/>
     </g>
     <g id="line2d_16">
      <g>
       <use xlink:href="#m2406ff07dc" x="500.16423" y="263.034047" style="stroke: #000000; stroke-width: 0.8"/>
      </g>
     </g>
     <g id="text_8">
      <text style="font-size: 10.5px; font-family: 'DejaVu Serif'; text-anchor: middle" x="500.16423" y="278.012406" transform="rotate(-0 500.16423 278.012406)">1.4</text>
     </g>
    </g>
    <g id="text_9">
     <!-- Frequency $\omega$ (a.u.) -->
     <g transform="translate(248.842813 292.176078)">
      <text>
       <tspan x="0" y="-0.640625" style="font-size: 10.5px; font-family: 'DejaVu Serif'">F</tspan>
       <tspan x="7.2854" y="-0.640625" style="font-size: 10.5px; font-family: 'DejaVu Serif'">r</tspan>
       <tspan x="12.304688" y="-0.640625" style="font-size: 10.5px; font-family: 'DejaVu Serif'">e</tspan>
       <tspan x="18.518555" y="-0.640625" style="font-size: 10.5px; font-family: 'DejaVu Serif'">q</tspan>
       <tspan x="25.23999" y="-0.640625" style="font-size: 10.5px; font-family: 'DejaVu Serif'">u</tspan>
       <tspan x="32.002441" y="-0.640625" style="font-size: 10.5px; font-family: 'DejaVu Serif'">e</tspan>
       <tspan x="38.216309" y="-0.640625" style="font-size: 10.5px; font-family: 'DejaVu Serif'">n</tspan>
       <tspan x="44.97876" y="-0.640625" style="font-size: 10.5px; font-family: 'DejaVu Serif'">c</tspan>
       <tspan x="50.859375" y="-0.640625" style="font-size: 10.5px; font-family: 'DejaVu Serif'">y</tspan>
       <tspan x="56.79126" y="-0.640625" style="font-size: 10.5px; font-family: 'DejaVu Serif'"> </tspan>
       <tspan x="67.331909" y="-0.640625" style="font-size: 10.5px; font-family: 'DejaVu Serif'"> </tspan>
       <tspan x="70.669556" y="-0.640625" style="font-size: 10.5px; font-family: 'DejaVu Serif'">(</tspan>
       <tspan x="74.765991" y="-0.640625" style="font-size: 10.5px; font-family: 'DejaVu Serif'">a</tspan>
       <tspan x="81.026001" y="-0.640625" style="font-size: 10.5px; font-family: 'DejaVu Serif'">.</tspan>
       <tspan x="84.363647" y="-0.640625" style="font-size: 10.5px; font-family: 'DejaVu Serif'">u</tspan>
       <tspan x="91.126099" y="-0.640625" style="font-size: 10.5px; font-family: 'DejaVu Serif'">.</tspan>
       <tspan x="94.463745" y="-0.640625" style="font-size: 10.5px; font-family: 'DejaVu Serif'">)</tspan>
       <tspan x="60.128906" y="-0.640625" style="font-style: italic; font-size: 10.5px; font-family: 'STIXGeneral'">ω</tspan>
      </text>
     </g>
    </g>
   </g>
   <g id="matplotlib.axis_2">
    <g id="ytick_1">
     <g id="line2d_17">
      <path d="M 41.460313 252.467187 
L 554.820312 252.467187 
" clip-path="url(#p4f9ea13e52)" style="fill: none; stroke-dasharray: 2.22,0.96; stroke-dashoffset: 0; stroke: #b0b0b0; stroke-opacity: 0.2; stroke-width: 0.6"/>
     </g>
     <g id="line2d_18">
      <defs>
       <path id="m4441582983" d="M 0 0 
L -3.5 0 
" style="stroke: #000000; stroke-width: 0.8"/>
      </defs>
      <g>
       <use xlink:href="#m4441582983" x="41.460313" y="252.467187" style="stroke: #000000; stroke-width: 0.8"/>
      </g>
     </g>
     <g id="text_10">
      <text style="font-size: 10.5px; font-family: 'DejaVu Serif'; text-anchor: end" x="34.460313" y="256.456366" transform="rotate(-0 34.460313 256.456366)">0.0</text>
     </g>
    </g>
    <g id="ytick_2">
     <g id="line2d_19">
      <path d="M 41.460313 208.010959 
L 554.820312 208.010959 
" clip-path="url(#p4f9ea13e52)" style="fill: none; stroke-dasharray: 2.22,0.96; stroke-dashoffset: 0; stroke: #b0b0b0; stroke-opacity: 0.2; stroke-width: 0.6"/>
     </g>
     <g id="line2d_20">
      <g>
       <use xlink:href="#m4441582983" x="41.460313" y="208.010959" style="stroke: #000000; stroke-width: 0.8"/>
      </g>
     </g>
     <g id="text_11">
      <text style="font-size: 10.5px; font-family: 'DejaVu Serif'; text-anchor: end" x="34.460313" y="212.000138" transform="rotate(-0 34.460313 212.000138)">0.2</text>
     </g>
    </g>
    <g id="ytick_3">
     <g id="line2d_21">
      <path d="M 41.460313 163.554731 
L 554.820312 163.554731 
" clip-path="url(#p4f9ea13e52)" style="fill: none; stroke-dasharray: 2.22,0.96; stroke-dashoffset: 0; stroke: #b0b0b0; stroke-opacity: 0.2; stroke-width: 0.6"/>
     </g>
     <g id="line2d_22">
      <g>
       <use xlink:href="#m4441582983" x="41.460313" y="163.554731" style="stroke: #000000; stroke-width: 0.8"/>
      </g>
     </g>
     <g id="text_12">
      <text style="font-size: 10.5px; font-family: 'DejaVu Serif'; text-anchor: end" x="34.460313" y="167.54391" transform="rotate(-0 34.460313 167.54391)">0.4</text>
     </g>
    </g>
    <g id="ytick_4">
     <g id="line2d_23">
      <path d="M 41.460313 119.098503 
L 554.820312 119.098503 
" clip-path="url(#p4f9ea13e52)" style="fill: none; stroke-dasharray: 2.22,0.96; stroke-dashoffset: 0; stroke: #b0b0b0; stroke-opacity: 0.2; stroke-width: 0.6"/>
     </g>
     <g id="line2d_24">
      <g>
       <use xlink:href="#m4441582983" x="41.460313" y="119.098503" style="stroke: #000000; stroke-width: 0.8"/>
      </g>
     </g>
     <g id="text_13">
      <text style="font-size: 10.5px; font-family: 'DejaVu Serif'; text-anchor: end" x="34.460313" y="123.087682" transform="rotate(-0 34.460313 123.087682)">0.6</text>
     </g>
    </g>
    <g id="ytick_5">
     <g id="line2d_25">
      <path d="M 41.460313 74.642275 
L 554.820312 74.642275 
" clip-path="url(#p4f9ea13e52)" style="fill: none; stroke-dasharray: 2.22,0.96; stroke-dashoffset: 0; stroke: #b0b0b0; stroke-opacity: 0.2; stroke-width: 0.6"/>
     </g>
     <g id="line2d_26">
      <g>
       <use xlink:href="#m4441582983" x="41.460313" y="74.642275" style="stroke: #000000; stroke-width: 0.8"/>
      </g>
     </g>
     <g id="text_14">
      <text style="font-size: 10.5px; font-family: 'DejaVu Serif'; text-anchor: end" x="34.460313" y="78.631455" transform="rotate(-0 34.460313 78.631455)">0.8</text>
     </g>
    </g>
    <g id="ytick_6">
     <g id="line2d_27">
      <path d="M 41.460313 30.186047 
L 554.820312 30.186047 
" clip-path="url(#p4f9ea13e52)" style="fill: none; stroke-dasharray: 2.22,0.96; stroke-dashoffset: 0; stroke: #b0b0b0; stroke-opacity: 0.2; stroke-width: 0.6"/>
     </g>
     <g id="line2d_28">
      <g>
       <use xlink:href="#m4441582983" x="41.460313" y="30.186047" style="stroke: #000000; stroke-width: 0.8"/>
      </g>
     </g>
     <g id="text_15">
      <text style="font-size: 10.5px; font-family: 'DejaVu Serif'; text-anchor: end" x="34.460313" y="34.175227" transform="rotate(-0 34.460313 34.175227)">1.0</text>
     </g>
    </g>
    <g id="text_16">
     <!-- $S(\omega)$ (normalized) -->
     <g transform="translate(11.578359 186.321047) rotate(-90)">
      <text>
       <tspan x="0" y="-0.640625" style="font-style: italic; font-size: 10.5px; font-family: 'STIXGeneral'">S</tspan>
       <tspan x="8.74649" y="-0.640625" style="font-style: italic; font-size: 10.5px; font-family: 'STIXGeneral'">ω</tspan>
       <tspan x="5.25" y="-0.640625" style="font-size: 10.5px; font-family: 'STIXGeneral'">(</tspan>
       <tspan x="15.949493" y="-0.640625" style="font-size: 10.5px; font-family: 'STIXGeneral'">)</tspan>
       <tspan x="19.445984" y="-0.640625" style="font-size: 10.5px; font-family: 'DejaVu Serif'"> </tspan>
       <tspan x="22.78363" y="-0.640625" style="font-size: 10.5px; font-family: 'DejaVu Serif'">(</tspan>
       <tspan x="26.880066" y="-0.640625" style="font-size: 10.5px; font-family: 'DejaVu Serif'">n</tspan>
       <tspan x="33.642517" y="-0.640625" style="font-size: 10.5px; font-family: 'DejaVu Serif'">o</tspan>
       <tspan x="39.96405" y="-0.640625" style="font-size: 10.5px; font-family: 'DejaVu Serif'">r</tspan>
       <tspan x="44.983337" y="-0.640625" style="font-size: 10.5px; font-family: 'DejaVu Serif'">m</tspan>
       <tspan x="54.93988" y="-0.640625" style="font-size: 10.5px; font-family: 'DejaVu Serif'">a</tspan>
       <tspan x="61.19989" y="-0.640625" style="font-size: 10.5px; font-family: 'DejaVu Serif'">l</tspan>
       <tspan x="64.558044" y="-0.640625" style="font-size: 10.5px; font-family: 'DejaVu Serif'">i</tspan>
       <tspan x="67.916199" y="-0.640625" style="font-size: 10.5px; font-family: 'DejaVu Serif'">z</tspan>
       <tspan x="73.448181" y="-0.640625" style="font-size: 10.5px; font-family: 'DejaVu Serif'">e</tspan>
       <tspan x="79.662048" y="-0.640625" style="font-size: 10.5px; font-family: 'DejaVu Serif'">d</tspan>
       <tspan x="86.383484" y="-0.640625" style="font-size: 10.5px; font-family: 'DejaVu Serif'">)</tspan>
      </text>
     </g>
    </g>
   </g>
   <g id="line2d_29">
    <path d="M 64.794858 251.946047 
L 97.820162 251.620818 
L 116.501142 251.23252 
L 127.843165 250.796413 
L 135.515711 250.293774 
L 140.853133 249.729254 
L 144.522612 249.139452 
L 147.524912 248.433846 
L 149.860034 247.648531 
L 151.527979 246.885194 
L 153.195924 245.86388 
L 154.530279 244.774811 
L 155.864635 243.333344 
L 156.865402 241.930272 
L 157.866169 240.153648 
L 158.866935 237.891417 
L 159.867702 235.02086 
L 160.868469 231.454543 
L 162.536414 224.304193 
L 163.53718 220.301102 
L 164.204358 218.47566 
L 164.537947 217.95601 
L 164.871536 217.739099 
L 165.205125 217.834935 
L 165.538714 218.234918 
L 166.205892 219.82967 
L 167.206659 223.514367 
L 169.208192 231.352481 
L 170.208959 234.391529 
L 171.209726 236.741932 
L 172.210492 238.507839 
L 173.211259 239.808685 
L 174.212026 240.747021 
L 175.212793 241.402133 
L 176.21356 241.832404 
L 177.547915 242.126643 
L 178.882271 242.159319 
L 180.216627 241.967563 
L 181.550982 241.567927 
L 182.885338 240.960545 
L 184.219694 240.130697 
L 185.55405 239.048218 
L 186.888405 237.664765 
L 188.222761 235.90851 
L 189.557117 233.675269 
L 190.557883 231.59897 
L 191.55865 229.08337 
L 192.559417 226.011569 
L 193.560184 222.226536 
L 194.560951 217.516239 
L 195.561717 211.5941 
L 196.562484 204.075774 
L 197.563251 194.458832 
L 198.564018 182.127517 
L 199.564785 166.442848 
L 200.565551 147.053374 
L 203.234263 89.872468 
L 203.901441 82.252217 
L 204.23503 80.710884 
L 204.568618 80.821854 
L 204.902207 82.57077 
L 205.235796 85.847574 
L 205.902974 96.168913 
L 206.903741 117.151917 
L 208.571686 152.457879 
L 209.572452 169.347711 
L 210.573219 182.528518 
L 211.573986 192.510761 
L 212.574753 199.913948 
L 213.575519 205.271117 
L 214.242697 207.90948 
L 214.909875 209.906872 
L 215.577053 211.3283 
L 216.244231 212.21877 
L 216.911409 212.605099 
L 217.244998 212.612911 
L 217.578587 212.497049 
L 218.245764 211.887745 
L 218.912942 210.753377 
L 219.58012 209.052242 
L 220.247298 206.723259 
L 220.914476 203.68424 
L 221.581654 199.830579 
L 222.248832 195.035675 
L 223.249598 185.76222 
L 224.250365 173.578538 
L 225.251132 158.318462 
L 227.586254 119.089433 
L 228.253432 112.376849 
L 228.587021 110.742839 
L 228.92061 110.412646 
L 229.254199 111.412122 
L 229.587788 113.687863 
L 230.254966 121.513984 
L 231.255733 138.403751 
L 232.923677 168.104458 
L 233.924444 182.702094 
L 234.925211 194.290106 
L 235.925978 203.246634 
L 236.926744 210.082692 
L 237.927511 215.254898 
L 238.928278 219.117972 
L 239.929045 221.927467 
L 240.596223 223.302861 
L 241.2634 224.320818 
L 241.930578 225.002157 
L 242.597756 225.356245 
L 243.264934 225.381454 
L 243.932112 225.065283 
L 244.59929 224.384375 
L 245.266468 223.304814 
L 245.933645 221.783486 
L 246.600823 219.771931 
L 247.268001 217.225133 
L 248.268768 212.36178 
L 249.603124 204.347509 
L 250.60389 198.460869 
L 251.271068 195.621679 
L 251.604657 194.766105 
L 251.938246 194.369097 
L 252.271835 194.463966 
L 252.605424 195.054953 
L 252.939013 196.116669 
L 253.606191 199.427931 
L 254.606958 206.20337 
L 256.274902 217.841067 
L 257.275669 223.561871 
L 258.276436 228.154011 
L 259.277202 231.77328 
L 260.277969 234.619261 
L 261.278736 236.870162 
L 262.279503 238.667476 
L 263.613859 240.539543 
L 264.948214 241.974336 
L 266.28257 243.094208 
L 267.950515 244.175411 
L 269.618459 245.001306 
L 271.619993 245.752562 
L 273.955115 246.393656 
L 276.623827 246.906612 
L 279.959716 247.312921 
L 283.629194 247.535154 
L 287.632261 247.556697 
L 291.635328 247.355236 
L 295.304807 246.945463 
L 298.307107 246.403281 
L 300.975818 245.708228 
L 303.310941 244.872828 
L 305.312474 243.923664 
L 306.980419 242.909272 
L 308.648364 241.620882 
L 309.982719 240.328472 
L 311.317075 238.727929 
L 312.651431 236.720251 
L 313.652198 234.864841 
L 314.652964 232.621512 
L 315.653731 229.882391 
L 316.654498 226.502753 
L 317.655265 222.287321 
L 318.656032 216.972463 
L 319.656798 210.205697 
L 320.657565 201.52978 
L 321.658332 190.394789 
L 322.659099 176.259902 
L 323.659865 158.917575 
L 325.994988 114.906813 
L 326.662166 107.290757 
L 326.995755 105.364884 
L 327.329344 104.86332 
L 327.662933 105.814671 
L 327.996521 108.161453 
L 328.663699 116.440884 
L 329.664466 134.527706 
L 331.666 172.162856 
L 332.666766 186.876024 
L 333.667533 198.490582 
L 334.6683 207.511599 
L 335.669067 214.499023 
L 336.669834 219.931202 
L 337.6706 224.180192 
L 338.671367 227.524275 
L 339.672134 230.168294 
L 340.672901 232.262247 
L 341.673667 233.916144 
L 342.674434 235.211819 
L 343.675201 236.213177 
L 345.009557 237.18558 
L 346.343912 237.851283 
L 347.678268 238.280402 
L 349.012624 238.460007 
L 350.013391 238.398878 
L 351.014157 238.144277 
L 352.014924 237.671322 
L 353.015691 236.947669 
L 354.016458 235.929812 
L 355.017225 234.563665 
L 356.017991 232.794747 
L 357.018758 230.599324 
L 358.686703 226.263567 
L 360.021058 222.991985 
L 361.021825 221.109607 
L 363.023359 217.691319 
L 363.690537 216.004127 
L 364.357715 213.768086 
L 365.024892 210.851124 
L 365.69207 207.128465 
L 366.359248 202.47264 
L 367.360015 193.453674 
L 368.360782 181.671701 
L 369.361548 167.155364 
L 371.363082 136.45914 
L 372.03026 129.986934 
L 372.363849 128.267688 
L 372.697438 127.716399 
L 373.031027 128.371198 
L 373.364616 130.198349 
L 374.031793 136.914192 
L 375.03256 151.963119 
L 377.034094 183.882609 
L 378.034861 196.488814 
L 379.035627 206.48287 
L 380.036394 214.275715 
L 381.037161 220.336376 
L 382.037928 225.068846 
L 383.038694 228.788387 
L 384.039461 231.732282 
L 385.040228 234.079927 
L 386.040995 235.974267 
L 387.375351 238.007377 
L 389.043295 240.080741 
L 390.71124 241.811115 
L 392.379184 243.204376 
L 394.047129 244.291783 
L 396.048663 245.285748 
L 398.050196 246.034032 
L 400.385319 246.686409 
L 403.387619 247.277202 
L 406.723508 247.698612 
L 410.392986 247.944938 
L 414.396054 247.984908 
L 417.731943 247.811745 
L 420.734243 247.435208 
L 428.406789 246.076169 
L 430.074733 245.521702 
L 431.742678 244.747204 
L 433.744211 243.522003 
L 438.414456 240.26661 
L 439.415223 239.295332 
L 440.41599 238.070149 
L 441.416757 236.527049 
L 442.417523 234.590936 
L 443.41829 232.16242 
L 444.419057 229.105422 
L 445.419824 225.23331 
L 446.420591 220.292824 
L 447.421357 213.948899 
L 448.422124 205.782986 
L 449.422891 195.34076 
L 450.423658 182.31305 
L 452.091602 156.271727 
L 453.092369 141.981657 
L 453.759547 135.750809 
L 454.093136 134.137933 
L 454.426725 133.668417 
L 454.760314 134.369986 
L 455.093903 136.200928 
L 455.761081 142.7815 
L 456.761847 157.313307 
L 458.763381 187.784744 
L 459.764148 199.749235 
L 460.764914 209.216467 
L 461.765681 216.590704 
L 462.766448 222.324921 
L 463.767215 226.807792 
L 464.767982 230.342701 
L 465.768748 233.1576 
L 466.769515 235.421461 
L 467.770282 237.259346 
L 469.104638 239.204443 
L 470.438993 240.713727 
L 471.773349 241.896951 
L 473.441294 243.032683 
L 475.109238 243.88173 
L 477.110772 244.61826 
L 479.112305 245.119601 
L 481.447428 245.471851 
L 483.78255 245.615256 
L 486.451262 245.546154 
L 489.119973 245.226278 
L 492.122274 244.600905 
L 494.790985 243.835159 
L 496.792519 243.021315 
L 498.460463 242.122855 
L 500.128408 240.973847 
L 501.796353 239.507087 
L 503.130708 238.040245 
L 504.465064 236.237232 
L 505.79942 234.000708 
L 507.133775 231.195036 
L 508.134542 228.604624 
L 509.135309 225.47741 
L 510.136076 221.667029 
L 511.136842 216.977652 
L 512.137609 211.145458 
L 513.138376 203.813983 
L 514.139143 194.503933 
L 515.13991 182.583837 
L 516.140676 167.264663 
L 517.141443 147.683835 
L 518.14221 123.232611 
L 519.476566 84.23872 
L 520.810921 46.80846 
L 521.478099 34.631299 
L 521.811688 31.335777 
L 522.145277 30.186047 
L 522.478866 31.249551 
L 522.812455 34.462429 
L 523.479633 46.496366 
L 524.4804 73.655886 
L 526.481933 131.349754 
L 527.4827 154.098771 
L 528.483467 172.094314 
L 529.484233 186.083643 
L 530.485 196.919354 
L 531.485767 205.334812 
L 531.485767 205.334812 
" clip-path="url(#p4f9ea13e52)" style="fill: none; stroke: #2d5fb3; stroke-width: 1.7; stroke-linecap: square"/>
   </g>
   <g id="line2d_30">
    <path d="M 64.794858 251.82015 
L 91.815561 251.484121 
L 111.497308 251.033003 
L 122.505742 250.556986 
L 130.511877 249.998588 
L 136.182888 249.40088 
L 140.853133 248.689497 
L 144.522612 247.903468 
L 147.524912 247.026942 
L 149.860034 246.128426 
L 151.861568 245.141842 
L 153.529513 244.109176 
L 155.197457 242.815575 
L 156.531813 241.529424 
L 157.866169 239.945306 
L 159.200524 237.964924 
L 160.201291 236.137323 
L 161.202058 233.927918 
L 162.202825 231.228203 
L 163.203591 227.892225 
L 164.204358 223.722901 
L 165.205125 218.454998 
L 166.205892 211.737716 
L 167.206659 203.128248 
L 168.207425 192.129259 
L 169.208192 178.34999 
L 170.542548 156.087053 
L 171.876904 133.857073 
L 172.544081 126.004394 
L 172.87767 123.580604 
L 173.211259 122.351829 
L 173.544848 122.386744 
L 173.878437 123.679557 
L 174.212026 126.150839 
L 174.879204 134.018042 
L 175.879971 150.14673 
L 177.547915 177.515265 
L 178.548682 190.724883 
L 179.549449 201.132437 
L 180.550216 209.13129 
L 181.550982 215.206006 
L 182.551749 219.779503 
L 183.552516 223.177945 
L 184.553283 225.63659 
L 185.220461 226.835062 
L 185.887639 227.719597 
L 186.554816 228.310922 
L 187.221994 228.619845 
L 187.889172 228.647773 
L 188.55635 228.386977 
L 189.223528 227.820768 
L 189.890706 226.92396 
L 190.557883 225.664305 
L 191.225061 224.006126 
L 192.225828 220.708178 
L 193.226595 216.453767 
L 195.561717 205.874271 
L 195.895306 204.969843 
L 196.228895 204.388312 
L 196.562484 204.16621 
L 196.896073 204.319581 
L 197.229662 204.841701 
L 197.89684 206.860477 
L 198.897607 211.494995 
L 200.89914 221.346111 
L 201.899907 225.131842 
L 202.900674 228.008236 
L 203.901441 230.095192 
L 204.902207 231.533096 
L 205.902974 232.440372 
L 206.570152 232.794523 
L 207.23733 232.969915 
L 207.904508 232.978864 
L 208.571686 232.828647 
L 209.572452 232.309704 
L 210.573219 231.429307 
L 211.573986 230.157605 
L 212.574753 228.441144 
L 213.575519 226.198109 
L 214.576286 223.31065 
L 215.577053 219.613512 
L 216.57782 214.878219 
L 217.578587 208.792732 
L 218.579353 200.93956 
L 219.58012 190.784309 
L 220.580887 177.710457 
L 221.581654 161.189259 
L 222.916009 134.06087 
L 224.250365 105.937713 
L 224.917543 95.318097 
L 225.251132 91.74255 
L 225.584721 89.599928 
L 225.91831 89.013996 
L 226.251899 90.0191 
L 226.585488 92.555184 
L 227.252665 101.571374 
L 228.253432 121.355239 
L 230.254966 162.624304 
L 231.255733 178.757203 
L 232.256499 191.474001 
L 233.257266 201.324234 
L 234.258033 208.919851 
L 235.2588 214.783569 
L 236.259567 219.320945 
L 237.260333 222.833719 
L 238.2611 225.541811 
L 239.261867 227.60324 
L 240.262634 229.129448 
L 241.2634 230.196184 
L 242.264167 230.850732 
L 242.931345 231.070432 
L 243.598523 231.118963 
L 244.265701 230.993242 
L 244.932879 230.685589 
L 245.600056 230.183318 
L 246.267234 229.468102 
L 246.934412 228.5151 
L 247.60159 227.291823 
L 248.602357 224.856455 
L 249.603124 221.530506 
L 250.60389 217.06324 
L 251.604657 211.1411 
L 252.605424 203.430874 
L 253.606191 193.732969 
L 256.608491 161.929407 
L 256.94208 160.247512 
L 257.275669 159.381502 
L 257.609258 159.386203 
L 257.942847 160.265397 
L 258.276436 161.971283 
L 258.943614 167.460681 
L 259.94438 178.844185 
L 261.612325 198.424521 
L 262.613092 208.005218 
L 263.613859 215.652609 
L 264.614625 221.637988 
L 265.615392 226.306154 
L 266.616159 229.963981 
L 267.616926 232.854531 
L 268.617692 235.16154 
L 269.618459 237.021489 
L 270.952815 238.976693 
L 272.287171 240.484587 
L 273.621526 241.661488 
L 275.289471 242.787184 
L 276.957416 243.625868 
L 278.958949 244.349192 
L 280.960483 244.833566 
L 283.295605 245.154319 
L 285.630728 245.242086 
L 287.96585 245.097353 
L 289.967384 244.764281 
L 291.968917 244.190554 
L 293.636862 243.470759 
L 294.971218 242.683295 
L 296.305573 241.644607 
L 297.639929 240.268024 
L 298.640696 238.939001 
L 299.641463 237.273398 
L 300.642229 235.16859 
L 301.642996 232.48627 
L 302.643763 229.043403 
L 303.64453 224.609024 
L 304.645297 218.924309 
L 305.646063 211.787903 
L 306.980419 200.253822 
L 308.314775 188.78081 
L 308.981953 184.77213 
L 309.315542 183.557414 
L 309.64913 182.96859 
L 309.982719 183.040064 
L 310.316308 183.767312 
L 310.649897 185.107539 
L 311.317075 189.304626 
L 312.317842 197.83291 
L 313.985787 212.270024 
L 314.986553 219.265621 
L 315.98732 224.818568 
L 316.988087 229.140182 
L 317.988854 232.488895 
L 318.98962 235.092196 
L 319.990387 237.129395 
L 320.991154 238.735677 
L 321.991921 240.011261 
L 323.326277 241.322715 
L 324.660632 242.30058 
L 325.994988 243.029491 
L 327.662933 243.677197 
L 329.330877 244.101149 
L 331.332411 244.381004 
L 333.667533 244.452025 
L 336.002656 244.282958 
L 338.337778 243.880056 
L 340.339312 243.333182 
L 342.340845 242.568418 
L 344.00879 241.728229 
L 345.676735 240.656462 
L 347.344679 239.288243 
L 348.679035 237.918184 
L 350.013391 236.230881 
L 351.347746 234.132255 
L 352.682102 231.490079 
L 353.682869 229.040917 
L 354.683636 226.071854 
L 355.684402 222.436626 
L 356.685169 217.938666 
L 357.685936 212.313171 
L 358.686703 205.205476 
L 359.68747 196.150749 
L 360.688236 184.57166 
L 361.689003 169.838062 
L 362.68977 151.48868 
L 364.024126 122.107321 
L 365.358481 93.120018 
L 366.025659 82.973123 
L 366.359248 79.845913 
L 366.692837 78.249529 
L 367.026426 78.262393 
L 367.360015 79.871378 
L 367.693604 82.974168 
L 368.360782 92.899107 
L 369.361548 113.372595 
L 371.029493 148.333566 
L 372.03026 165.139212 
L 373.031027 178.176306 
L 374.031793 187.891689 
L 375.03256 194.869251 
L 375.699738 198.253496 
L 376.366916 200.761318 
L 377.034094 202.47805 
L 377.701272 203.461393 
L 378.034861 203.688892 
L 378.368449 203.742896 
L 378.702038 203.623427 
L 379.035627 203.328958 
L 379.702805 202.201101 
L 380.369983 200.315512 
L 381.037161 197.602143 
L 381.704339 193.964004 
L 382.371517 189.278059 
L 383.038694 183.400378 
L 384.039461 172.025485 
L 385.040228 157.297398 
L 386.374584 133.315512 
L 387.708939 110.259127 
L 388.376117 102.956087 
L 388.709706 101.10348 
L 389.043295 100.626982 
L 389.376884 101.564209 
L 389.710473 103.868089 
L 390.377651 112.015393 
L 391.378418 129.88911 
L 393.379951 167.152171 
L 394.380718 181.643441 
L 395.381485 193.029322 
L 396.382252 201.922509 
L 397.383018 209.035128 
L 398.717374 216.679729 
L 400.05173 222.77657 
L 401.052497 226.481523 
L 402.053263 229.544455 
L 403.05403 232.07044 
L 404.388386 234.775575 
L 405.722742 236.901379 
L 407.057097 238.594297 
L 408.391453 239.959253 
L 410.059398 241.316293 
L 411.727342 242.378403 
L 413.728876 243.358592 
L 415.730409 244.089773 
L 418.065532 244.691098 
L 420.400654 245.058441 
L 422.735777 245.198753 
L 424.73731 245.116354 
L 426.405255 244.867909 
L 428.0732 244.398333 
L 429.407555 243.801719 
L 430.741911 242.928085 
L 431.742678 242.026129 
L 432.743445 240.847541 
L 433.744211 239.330251 
L 434.744978 237.439112 
L 437.747279 231.253304 
L 438.414456 230.675578 
L 438.748045 230.603195 
L 439.081634 230.674736 
L 439.748812 231.19608 
L 440.749579 232.580053 
L 442.083935 234.543648 
L 442.751112 235.280969 
L 443.41829 235.771413 
L 444.085468 235.99043 
L 444.752646 235.926781 
L 445.419824 235.574562 
L 446.087002 234.931128 
L 446.75418 234.000725 
L 447.754946 232.12014 
L 450.090069 227.101486 
L 450.757247 226.23518 
L 451.090836 225.996243 
L 451.424425 225.900277 
L 451.758013 225.951434 
L 452.091602 226.149584 
L 452.75878 226.967021 
L 453.425958 228.275868 
L 454.426725 230.861096 
L 456.428258 236.332491 
L 457.429025 238.557956 
L 458.429792 240.343177 
L 459.430559 241.743048 
L 460.431326 242.833002 
L 461.765681 243.921804 
L 463.100037 244.707673 
L 464.767982 245.39477 
L 466.769515 245.926021 
L 469.104638 246.278457 
L 471.773349 246.44461 
L 474.775649 246.415782 
L 478.111539 246.168012 
L 481.447428 245.704906 
L 484.449728 245.084426 
L 487.11844 244.335285 
L 489.787151 243.34665 
L 492.122274 242.221813 
L 494.123807 240.999997 
L 495.791752 239.742831 
L 497.459696 238.202057 
L 498.794052 236.706957 
L 500.128408 234.912435 
L 501.462764 232.734664 
L 502.797119 230.058725 
L 504.131475 226.725177 
L 505.132242 223.662577 
L 506.133009 219.981446 
L 507.133775 215.519605 
L 508.134542 210.061459 
L 509.135309 203.310774 
L 510.136076 194.862204 
L 511.136842 184.193251 
L 512.137609 170.702144 
L 513.138376 153.854726 
L 514.472732 126.200657 
L 516.474265 82.878087 
L 517.141443 72.419276 
L 517.808621 65.217346 
L 518.475799 60.708769 
L 520.143744 52.062728 
L 520.810921 46.723832 
L 522.478866 31.853426 
L 522.812455 30.439362 
L 523.146044 30.186047 
L 523.479633 31.302614 
L 523.813222 33.913475 
L 524.146811 38.042062 
L 524.813989 50.446777 
L 525.814755 76.106906 
L 527.816289 129.688411 
L 528.817056 150.929919 
L 529.817822 167.806954 
L 530.818589 180.971094 
L 531.485767 188.065432 
L 531.485767 188.065432 
" clip-path="url(#p4f9ea13e52)" style="fill: none; stroke: #2c8c4d; stroke-width: 1.7; stroke-linecap: square"/>
   </g>
   <g id="patch_3">
    <path d="M 41.460313 263.034047 
L 41.460313 19.098047 
" style="fill: none; stroke: #000000; stroke-width: 0.8; stroke-linejoin: miter; stroke-linecap: square"/>
   </g>
   <g id="patch_4">
    <path d="M 41.460313 263.034047 
L 554.820312 263.034047 
" style="fill: none; stroke: #000000; stroke-width: 0.8; stroke-linejoin: miter; stroke-linecap: square"/>
   </g>
   <g id="text_17">
    <text style="font-weight: 600; font-size: 12.5px; font-family: 'DejaVu Serif'; text-anchor: middle" x="298.140313" y="13.098047" transform="rotate(-0 298.140313 13.098047)">Lorentzian-Reconstructed Target Spectra</text>
   </g>
   <g id="legend_1">
    <g id="line2d_31">
     <path d="M 467.092812 32.851406 
L 477.592812 32.851406 
L 488.092812 32.851406 
" style="fill: none; stroke: #2d5fb3; stroke-width: 1.7; stroke-linecap: square"/>
    </g>
    <g id="text_18">
     <text style="font-size: 10.5px; font-family: 'DejaVu Serif'; text-anchor: start" x="496.492812" y="36.526406" transform="rotate(-0 496.492812 36.526406)">ammonia</text>
    </g>
    <g id="line2d_32">
     <path d="M 467.092812 48.263437 
L 477.592812 48.263437 
L 488.092812 48.263437 
" style="fill: none; stroke: #2c8c4d; stroke-width: 1.7; stroke-linecap: square"/>
    </g>
    <g id="text_19">
     <text style="font-size: 10.5px; font-family: 'DejaVu Serif'; text-anchor: start" x="496.492812" y="51.938437" transform="rotate(-0 496.492812 51.938437)">water</text>
    </g>
   </g>
  </g>
 </g>
 <defs>
  <clipPath id="p4f9ea13e52">
   <rect x="41.460313" y="19.098047" width="513.36" height="243.936"/>
  </clipPath>
 </defs>
</svg>
