<?xml version="1.0" encoding="utf-8" standalone="no"?>
<!DOCTYPE svg PUBLIC "-//W3C//DTD SVG 1.1//EN"
  "http://www.w3.org/Graphics/SVG/1.1/DTD/svg11.dtd">
<svg xmlns:xlink="http://www.w3.org/1999/xlink" width="692.180234pt" height="323.589031pt" viewBox="0 0 692.180234 323.589031" xmlns="http://www.w3.org/2000/svg" version="1.1">
 <metadata>
  <rdf:RDF xmlns:dc="http://purl.org/dc/elements/1.1/" xmlns:cc="http://creativecommons.org/ns#" xmlns:rdf="http://www.w3.org/1999/02/22-rdf-syntax-ns#">
   <cc:Work>
    <dc:type rdf:resource="http://purl.org/dc/dcmitype/StillImage"/>
    <dc:date>2026-04-23T01:34:14.349631</dc:date>
    <dc:format>image/svg+xml</dc:format>
    <dc:creator>
     <cc:Agent>
      <dc:title>Matplotlib v3.10.8, https://matplotlib.org/</dc:title>
     </cc:Agent>
    </dc:creator>
   </cc:Work>
  </rdf:RDF>
 </metadata>
 <defs>
  <style type="text/css">*{stroke-linejoin: round; stroke-linecap: butt}</style>
 </defs>
 <g id="figure_1">
  <g id="patch_1">
   <path d="M 0 323.589031 
L 692.180234 323.589031 
L 692.180234 0 
L 0 0 
z
" style="fill: #ffffff"/>
  </g>
  <g id="axes_1">
   <g id="patch_2">
    <path d="M 63.620234 288.432 
L 347.692962 288.432 
L 347.692962 50.04 
L 63.620234 50.04 
z
" style="fill: #ffffff"/>
   </g>
   <g id="matplotlib.axis_1">
    <g id="xtick_1">
     <g id="line2d_1">
      <path d="M 76.532631 288.432 
L 76.532631 50.04 
" clip-path="url(#p2bc8bb71ed)" style="fill: none; stroke-dasharray: 2.22,0.96; stroke-dashoffset: 0; stroke: #b0b0b0; stroke-opacity: 0.2; stroke-width: 0.6"/>
     </g>
     <g id="line2d_2">
      <defs>
       <path id="m4a13026df9" d="M 0 0 
L 0 3.5 
" style="stroke: #000000; stroke-width: 0.8"/>
      </defs>
      <g>
       <use xlink:href="#m4a13026df9" x="76.532631" y="288.432" style="stroke: #000000; stroke-width: 0.8"/>
      </g>
     </g>
     <g id="text_1">
      <text style="font-size: 10.5px; font-family: 'DejaVu Serif'; text-anchor: middle" x="76.532631" y="303.410359" transform="rotate(-0 76.532631 303.410359)">0</text>
     </g>
    </g>
    <g id="xtick_2">
     <g id="line2d_3">
      <path d="M 116.883871 288.432 
L 116.883871 50.04 
" clip-path="url(#p2bc8bb71ed)" style="fill: none; stroke-dasharray: 2.22,0.96; stroke-dashoffset: 0; stroke: #b0b0b0; stroke-opacity: 0.2; stroke-width: 0.6"/>
     </g>
     <g id="line2d_4">
      <g>
       <use xlink:href="#m4a13026df9" x="116.883871" y="288.432" style="stroke: #000000; stroke-width: 0.8"/>
      </g>
     </g>
     <g id="text_2">
      <text style="font-size: 10.5px; font-family: 'DejaVu Serif'; text-anchor: middle" x="116.883871" y="303.410359" transform="rotate(-0 116.883871 303.410359)">50</text>
     </g>
    </g>
    <g id="xtick_3">
     <g id="line2d_5">
      <path d="M 157.23511 288.432 
L 157.23511 50.04 
" clip-path="url(#p2bc8bb71ed)" style="fill: none; stroke-dasharray: 2.22,0.96; stroke-dashoffset: 0; stroke: #b0b0b0; stroke-opacity: 0.2; stroke-width: 0.6"/>
     </g>
     <g id="line2d_6">
      <g>
       <use xlink:href="#m4a13026df9" x="157.23511" y="288.432" style="stroke: #000000; stroke-width: 0.8"/>
      </g>
     </g>
     <g id="text_3">
      <text style="font-size: 10.5px; font-family: 'DejaVu Serif'; text-anchor: middle" x="157.23511" y="303.410359" transform="rotate(-0 157.23511 303.410359)">100</text>
     </g>
    </g>
    <g id="xtick_4">
     <g id="line2d_7">
      <path d="M 197.58635 288.432 
L 197.58635 50.04 
" clip-path="url(#p2bc8bb71ed)" style="fill: none; stroke-dasharray: 2.22,0.96; stroke-dashoffset: 0; stroke: #b0b0b0; stroke-opacity: 0.2; stroke-width: 0.6"/>
     </g>
     <g id="line2d_8">
      <g>
       <use xlink:href="#m4a13026df9" x="197.58635" y="288.432" style="stroke: #000000; stroke-width: 0.8"/>
      </g>
     </g>
     <g id="text_4">
      <text style="font-size: 10.5px; font-family: 'DejaVu Serif'; text-anchor: middle" x="197.58635" y="303.410359" transform="rotate(-0 197.58635 303.410359)">150</text>
     </g>
    </g>
    <g id="xtick_5">
     <g id="line2d_9">
      <path d="M 237.93759 288.432 
L 237.93759 50.04 
" clip-path="url(#p2bc8bb71ed)" style="fill: none; stroke-dasharray: 2.22,0.96; stroke-dashoffset: 0; stroke: #b0b0b0; stroke-opacity: 0.2; stroke-width: 0.6"/>
     </g>
     <g id="line2d_10">
      <g>
       <use xlink:href="#m4a13026df9" x="237.93759" y="288.432" style="stroke: #000000; stroke-width: 0.8"/>
      </g>
     </g>
     <g id="text_5">
      <text style="font-size: 10.5px; font-family: 'DejaVu Serif'; text-anchor: middle" x="237.93759" y="303.410359" transform="rotate(-0 237.93759 303.410359)">200</text>
     </g>
    </g>
    <g id="xtick_6">
     <g id="line2d_11">
      <path d="M 278.288829 288.432 
L 278.288829 50.04 
" clip-path="url(#p2bc8bb71ed)" style="fill: none; stroke-dasharray: 2.22,0.96; stroke-dashoffset: 0; stroke: #b0b0b0; stroke-opacity: 0.2; stroke-width: 0.6"/>
     </g>
     <g id="line2d_12">
      <g>
       <use xlink:href="#m4a13026df9" x="278.288829" y="288.432" style="stroke: #000000; stroke-width: 0.8"/>
      </g>
     </g>
     <g id="text_6">
      <text style="font-size: 10.5px; font-family: 'DejaVu Serif'; text-anchor: middle" x="278.288829" y="303.410359" transform="rotate(-0 278.288829 303.410359)">250</text>
     </g>
    </g>
    <g id="xtick_7">
     <g id="line2d_13">
      <path d="M 318.640069 288.432 
L 318.640069 50.04 
" clip-path="url(#p2bc8bb71ed)" style="fill: none; stroke-dasharray: 2.22,0.96; stroke-dashoffset: 0; stroke: #b0b0b0; stroke-opacity: 0.2; stroke-width: 0.6"/>
     </g>
     <g id="line2d_14">
      <g>
       <use xlink:href="#m4a13026df9" x="318.640069" y="288.432" style="stroke: #000000; stroke-width: 0.8"/>
      </g>
     </g>
     <g id="text_7">
      <text style="font-size: 10.5px; font-family: 'DejaVu Serif'; text-anchor: middle" x="318.640069" y="303.410359" transform="rotate(-0 318.640069 303.410359)">300</text>
     </g>
    </g>
    <g id="text_8">
     <!-- Time $t$ (a.u.) -->
     <g transform="translate(173.631598 317.572391)">
      <text>
       <tspan x="0" y="-0.640625" style="font-size: 10.5px; font-family: 'DejaVu Serif'">T</tspan>
       <tspan x="7.003418" y="-0.640625" style="font-size: 10.5px; font-family: 'DejaVu Serif'">i</tspan>
       <tspan x="10.361572" y="-0.640625" style="font-size: 10.5px; font-family: 'DejaVu Serif'">m</tspan>
       <tspan x="20.318115" y="-0.640625" style="font-size: 10.5px; font-family: 'DejaVu Serif'">e</tspan>
       <tspan x="26.531982" y="-0.640625" style="font-size: 10.5px; font-family: 'DejaVu Serif'"> </tspan>
       <tspan x="32.78862" y="-0.640625" style="font-size: 10.5px; font-family: 'DejaVu Serif'"> </tspan>
       <tspan x="36.126266" y="-0.640625" style="font-size: 10.5px; font-family: 'DejaVu Serif'">(</tspan>
       <tspan x="40.222702" y="-0.640625" style="font-size: 10.5px; font-family: 'DejaVu Serif'">a</tspan>
       <tspan x="46.482712" y="-0.640625" style="font-size: 10.5px; font-family: 'DejaVu Serif'">.</tspan>
       <tspan x="49.820358" y="-0.640625" style="font-size: 10.5px; font-family: 'DejaVu Serif'">u</tspan>
       <tspan x="56.582809" y="-0.640625" style="font-size: 10.5px; font-family: 'DejaVu Serif'">.</tspan>
       <tspan x="59.920456" y="-0.640625" style="font-size: 10.5px; font-family: 'DejaVu Serif'">)</tspan>
       <tspan x="29.869629" y="-0.640625" style="font-style: italic; font-size: 10.5px; font-family: 'STIXGeneral'">t</tspan>
      </text>
     </g>
    </g>
   </g>
   <g id="matplotlib.axis_2">
    <g id="ytick_1">
     <g id="line2d_15">
      <path d="M 63.620234 282.318904 
L 347.692962 282.318904 
" clip-path="url(#p2bc8bb71ed)" style="fill: none; stroke-dasharray: 2.22,0.96; stroke-dashoffset: 0; stroke: #b0b0b0; stroke-opacity: 0.2; stroke-width: 0.6"/>
     </g>
     <g id="line2d_16">
      <defs>
       <path id="m9c492a3cb2" d="M 0 0 
L -3.5 0 
" style="stroke: #000000; stroke-width: 0.8"/>
      </defs>
      <g>
       <use xlink:href="#m9c492a3cb2" x="63.620234" y="282.318904" style="stroke: #000000; stroke-width: 0.8"/>
      </g>
     </g>
     <g id="text_9">
      <text style="font-size: 10.5px; font-family: 'DejaVu Serif'; text-anchor: end" x="56.620234" y="286.308084" transform="rotate(-0 56.620234 286.308084)">−0.006</text>
     </g>
    </g>
    <g id="ytick_2">
     <g id="line2d_17">
      <path d="M 63.620234 246.298261 
L 347.692962 246.298261 
" clip-path="url(#p2bc8bb71ed)" style="fill: none; stroke-dasharray: 2.22,0.96; stroke-dashoffset: 0; stroke: #b0b0b0; stroke-opacity: 0.2; stroke-width: 0.6"/>
     </g>
     <g id="line2d_18">
      <g>
       <use xlink:href="#m9c492a3cb2" x="63.620234" y="246.298261" style="stroke: #000000; stroke-width: 0.8"/>
      </g>
     </g>
     <g id="text_10">
      <text style="font-size: 10.5px; font-family: 'DejaVu Serif'; text-anchor: end" x="56.620234" y="250.287441" transform="rotate(-0 56.620234 250.287441)">−0.004</text>
     </g>
    </g>
    <g id="ytick_3">
     <g id="line2d_19">
      <path d="M 63.620234 210.277618 
L 347.692962 210.277618 
" clip-path="url(#p2bc8bb71ed)" style="fill: none; stroke-dasharray: 2.22,0.96; stroke-dashoffset: 0; stroke: #b0b0b0; stroke-opacity: 0.2; stroke-width: 0.6"/>
     </g>
     <g id="line2d_20">
      <g>
       <use xlink:href="#m9c492a3cb2" x="63.620234" y="210.277618" style="stroke: #000000; stroke-width: 0.8"/>
      </g>
     </g>
     <g id="text_11">
      <text style="font-size: 10.5px; font-family: 'DejaVu Serif'; text-anchor: end" x="56.620234" y="214.266798" transform="rotate(-0 56.620234 214.266798)">−0.002</text>
     </g>
    </g>
    <g id="ytick_4">
     <g id="line2d_21">
      <path d="M 63.620234 174.256975 
L 347.692962 174.256975 
" clip-path="url(#p2bc8bb71ed)" style="fill: none; stroke-dasharray: 2.22,0.96; stroke-dashoffset: 0; stroke: #b0b0b0; stroke-opacity: 0.2; stroke-width: 0.6"/>
     </g>
     <g id="line2d_22">
      <g>
       <use xlink:href="#m9c492a3cb2" x="63.620234" y="174.256975" style="stroke: #000000; stroke-width: 0.8"/>
      </g>
     </g>
     <g id="text_12">
      <text style="font-size: 10.5px; font-family: 'DejaVu Serif'; text-anchor: end" x="56.620234" y="178.246155" transform="rotate(-0 56.620234 178.246155)">0.000</text>
     </g>
    </g>
    <g id="ytick_5">
     <g id="line2d_23">
      <path d="M 63.620234 138.236332 
L 347.692962 138.236332 
" clip-path="url(#p2bc8bb71ed)" style="fill: none; stroke-dasharray: 2.22,0.96; stroke-dashoffset: 0; stroke: #b0b0b0; stroke-opacity: 0.2; stroke-width: 0.6"/>
     </g>
     <g id="line2d_24">
      <g>
       <use xlink:href="#m9c492a3cb2" x="63.620234" y="138.236332" style="stroke: #000000; stroke-width: 0.8"/>
      </g>
     </g>
     <g id="text_13">
      <text style="font-size: 10.5px; font-family: 'DejaVu Serif'; text-anchor: end" x="56.620234" y="142.225512" transform="rotate(-0 56.620234 142.225512)">0.002</text>
     </g>
    </g>
    <g id="ytick_6">
     <g id="line2d_25">
      <path d="M 63.620234 102.215689 
L 347.692962 102.215689 
" clip-path="url(#p2bc8bb71ed)" style="fill: none; stroke-dasharray: 2.22,0.96; stroke-dashoffset: 0; stroke: #b0b0b0; stroke-opacity: 0.2; stroke-width: 0.6"/>
     </g>
     <g id="line2d_26">
      <g>
       <use xlink:href="#m9c492a3cb2" x="63.620234" y="102.215689" style="stroke: #000000; stroke-width: 0.8"/>
      </g>
     </g>
     <g id="text_14">
      <text style="font-size: 10.5px; font-family: 'DejaVu Serif'; text-anchor: end" x="56.620234" y="106.204869" transform="rotate(-0 56.620234 106.204869)">0.004</text>
     </g>
    </g>
    <g id="ytick_7">
     <g id="line2d_27">
      <path d="M 63.620234 66.195046 
L 347.692962 66.195046 
" clip-path="url(#p2bc8bb71ed)" style="fill: none; stroke-dasharray: 2.22,0.96; stroke-dashoffset: 0; stroke: #b0b0b0; stroke-opacity: 0.2; stroke-width: 0.6"/>
     </g>
     <g id="line2d_28">
      <g>
       <use xlink:href="#m9c492a3cb2" x="63.620234" y="66.195046" style="stroke: #000000; stroke-width: 0.8"/>
      </g>
     </g>
     <g id="text_15">
      <text style="font-size: 10.5px; font-family: 'DejaVu Serif'; text-anchor: end" x="56.620234" y="70.184226" transform="rotate(-0 56.620234 70.184226)">0.006</text>
     </g>
    </g>
    <g id="text_16">
     <!-- $\mu_x(t)$ -->
     <g transform="translate(11.557031 178.8435) rotate(-90)">
      <text>
       <tspan x="0" y="-0.5625" style="font-style: italic; font-size: 10.5px; font-family: 'STIXGeneral'">μ</tspan>
       <tspan x="12.767262" y="-0.5625" style="font-style: italic; font-size: 10.5px; font-family: 'STIXGeneral'">t</tspan>
       <tspan x="5.522995" y="0.890625" style="font-style: italic; font-size: 7.35px; font-family: 'STIXGeneral'">x</tspan>
       <tspan x="9.270772" y="-0.5625" style="font-size: 10.5px; font-family: 'STIXGeneral'">(</tspan>
       <tspan x="15.686253" y="-0.5625" style="font-size: 10.5px; font-family: 'STIXGeneral'">)</tspan>
      </text>
     </g>
    </g>
   </g>
   <g id="line2d_29">
    <path d="M 76.532631 174.256975 
L 77.049471 91.973943 
L 77.394032 67.261032 
L 77.566312 64.786056 
L 77.738592 67.534133 
L 78.083152 84.232137 
L 79.289113 167.566766 
L 79.461393 170.508474 
L 79.633674 170.422779 
L 79.978234 164.6264 
L 80.495074 154.344594 
L 80.667354 152.596901 
L 80.839635 152.202878 
L 81.011915 153.410568 
L 81.356475 161.131132 
L 82.734716 207.679875 
L 82.906996 208.218953 
L 83.079276 206.942279 
L 83.423837 198.941263 
L 84.112957 175.719048 
L 84.285237 173.921425 
L 84.457518 175.182383 
L 84.802078 186.024233 
L 85.663479 224.281739 
L 86.008039 230.559194 
L 86.180319 229.899979 
L 86.352599 226.060775 
L 86.697159 208.318367 
L 87.73084 136.345103 
L 88.075401 130.193675 
L 88.247681 130.596836 
L 88.592241 135.707246 
L 89.281362 149.52932 
L 89.453642 151.044048 
L 89.625922 151.168468 
L 89.798202 149.954651 
L 90.487323 140.820241 
L 90.659603 140.75095 
L 90.831883 142.746976 
L 91.176443 153.717154 
L 92.554684 217.674725 
L 92.726964 217.916854 
L 92.899245 215.543686 
L 93.243805 203.363839 
L 94.277486 154.463665 
L 94.449766 154.552624 
L 94.622046 158.291743 
L 94.966606 174.292472 
L 95.655727 209.740754 
L 95.828007 213.345141 
L 96.000287 213.777576 
L 96.172567 211.072917 
L 96.517128 197.641839 
L 97.895369 122.066876 
L 98.067649 121.539734 
L 98.239929 125.113965 
L 98.584489 143.93206 
L 99.61817 218.901292 
L 99.79045 222.556529 
L 99.96273 222.38008 
L 100.135011 218.419831 
L 100.479571 199.860906 
L 101.685532 110.908748 
L 101.857812 112.526686 
L 102.202372 129.671132 
L 103.063773 188.108472 
L 103.408333 198.26975 
L 103.580613 199.605773 
L 103.752894 198.602942 
L 104.097454 191.191618 
L 104.614294 177.909621 
L 104.786574 176.148282 
L 104.958855 176.477145 
L 105.131135 178.843887 
L 105.475695 188.129553 
L 106.164816 208.676842 
L 106.337096 210.998983 
L 106.509376 211.36284 
L 106.681656 209.583966 
L 107.026216 199.809044 
L 107.543057 174.497986 
L 108.232177 140.554514 
L 108.576738 132.6915 
L 108.749018 132.834971 
L 108.921298 136.076913 
L 109.265858 151.217231 
L 110.127259 202.829365 
L 110.471819 211.328229 
L 110.644099 211.68609 
L 110.816379 209.666405 
L 111.16094 199.586518 
L 112.366901 152.738741 
L 112.711461 150.354371 
L 112.883741 149.837397 
L 113.056021 148.917874 
L 113.400582 144.846165 
L 114.089702 134.226669 
L 114.434262 132.252532 
L 114.606543 132.694346 
L 114.778823 134.483195 
L 115.123383 143.944143 
L 115.467943 163.456609 
L 116.501624 235.920958 
L 116.673904 238.916207 
L 116.846184 237.910501 
L 117.018465 233.231928 
L 117.363025 215.15127 
L 118.568986 137.816402 
L 118.741266 136.164067 
L 118.913546 138.439845 
L 119.258106 153.169982 
L 120.291787 218.036873 
L 120.464067 222.067704 
L 120.636348 222.250303 
L 120.808628 218.645003 
L 121.153188 202.996997 
L 121.842309 169.050589 
L 122.186869 160.440604 
L 122.359149 158.474111 
L 122.531429 158.288136 
L 122.703709 160.187105 
L 123.04827 170.530375 
L 123.56511 191.624226 
L 123.73739 195.028545 
L 123.90967 194.895748 
L 124.08195 191.028313 
L 124.426511 174.015966 
L 125.632472 97.501243 
L 125.804752 95.005327 
L 125.977032 97.310874 
L 126.321592 116.540698 
L 127.355273 205.534484 
L 127.527553 211.31808 
L 127.699833 213.040342 
L 127.872114 210.935078 
L 128.216674 197.773413 
L 128.905794 167.43969 
L 129.078075 165.531214 
L 129.250355 166.700864 
L 129.594915 176.224312 
L 130.973156 231.244331 
L 131.145436 231.616489 
L 131.317716 228.676687 
L 131.662277 214.310312 
L 132.695958 159.072599 
L 133.040518 149.61622 
L 133.212798 148.250112 
L 133.385078 149.366612 
L 133.729638 157.385949 
L 134.246479 169.97496 
L 134.418759 171.050548 
L 134.591039 170.210003 
L 134.935599 164.149913 
L 135.96928 139.463163 
L 136.14156 138.217636 
L 136.313841 138.715293 
L 136.486121 141.005569 
L 136.830681 149.815416 
L 137.347521 164.266034 
L 137.519802 166.671037 
L 137.692082 167.100948 
L 137.864362 165.493465 
L 138.208922 157.62028 
L 138.553482 148.855368 
L 138.725763 146.627383 
L 138.898043 146.991947 
L 139.070323 150.462491 
L 139.414883 166.950513 
L 139.931724 208.90827 
L 140.620844 265.328955 
L 140.965404 277.596 
L 141.137685 276.895856 
L 141.309965 271.215417 
L 141.654525 246.333674 
L 142.860486 131.145694 
L 143.205046 121.03396 
L 143.377326 121.343444 
L 143.549607 124.698736 
L 144.583287 157.098105 
L 144.755568 156.415038 
L 144.927848 153.007992 
L 145.272408 139.557671 
L 145.789248 116.216451 
L 145.961529 112.488815 
L 146.133809 112.577346 
L 146.306089 116.867568 
L 146.650649 136.361015 
L 147.68433 207.600108 
L 148.02889 218.525864 
L 148.20117 219.545439 
L 148.373451 216.849407 
L 148.718011 200.225279 
L 149.579412 144.272196 
L 149.751692 141.268338 
L 149.923972 142.509134 
L 150.096252 147.92599 
L 150.440812 170.082742 
L 151.646773 269.909213 
L 151.819053 270.377427 
L 151.991334 265.596255 
L 152.335894 242.969516 
L 153.541855 139.796587 
L 153.714135 134.817455 
L 153.886415 133.066562 
L 154.058695 133.734199 
L 154.747816 140.899438 
L 154.920096 140.964866 
L 155.264656 139.411608 
L 155.781497 135.351466 
L 156.298337 131.302484 
L 156.470617 131.95308 
L 156.642897 134.617584 
L 156.987458 146.291228 
L 157.848858 182.90514 
L 158.365699 195.330175 
L 158.537979 197.573838 
L 158.710259 198.087159 
L 158.882539 196.361248 
L 159.2271 186.174769 
L 159.74394 166.82737 
L 159.91622 163.848594 
L 160.0885 163.65612 
L 160.26078 166.110024 
L 160.605341 176.706527 
L 161.466741 206.83006 
L 161.639022 209.06106 
L 161.811302 208.794296 
L 161.983582 205.735496 
L 162.328142 191.777709 
L 163.017263 155.3315 
L 163.189543 150.748721 
L 163.361823 149.518993 
L 163.534103 151.765108 
L 163.878663 165.162489 
L 164.740064 209.009364 
L 164.912344 212.450335 
L 165.084624 213.000575 
L 165.256905 210.691851 
L 165.601465 198.634093 
L 166.290585 158.377122 
L 166.807426 134.307264 
L 166.979706 131.555349 
L 167.151986 132.36149 
L 167.324266 136.718098 
L 167.668827 153.569862 
L 168.185667 181.938224 
L 168.530227 191.514061 
L 168.702507 192.502036 
L 168.874788 191.109557 
L 169.219348 181.869309 
L 169.736188 155.42315 
L 170.253029 131.786988 
L 170.425309 130.316804 
L 170.597589 133.625497 
L 170.942149 154.018599 
L 171.80355 223.523342 
L 171.97583 229.290653 
L 172.14811 230.857924 
L 172.32039 228.342549 
L 172.664951 212.407537 
L 173.354071 154.72194 
L 173.870912 121.70605 
L 174.043192 117.8584 
L 174.215472 118.061295 
L 174.387752 122.062444 
L 174.732312 139.526414 
L 175.938273 224.56987 
L 176.110554 228.541801 
L 176.282834 229.120087 
L 176.455114 226.620828 
L 176.799674 214.488374 
L 177.833355 166.872185 
L 178.177915 162.823549 
L 178.350195 162.932858 
L 178.522476 163.31488 
L 178.694756 163.084772 
L 178.867036 161.647008 
L 179.211596 154.925275 
L 179.900717 138.707683 
L 180.245277 134.990048 
L 180.417557 134.78493 
L 180.589837 136.039753 
L 180.762117 139.1195 
L 181.106678 151.691722 
L 182.312639 213.930616 
L 182.484919 216.40172 
L 182.657199 216.624729 
L 182.829479 214.750481 
L 183.174039 205.236273 
L 183.69088 179.671662 
L 184.20772 154.441005 
L 184.38 150.069749 
L 184.552281 148.693443 
L 184.724561 150.312356 
L 185.069121 160.43839 
L 185.758242 183.647365 
L 186.102802 187.104866 
L 186.275082 186.772527 
L 186.619642 183.84322 
L 187.136483 178.506472 
L 187.308763 177.491086 
L 187.481043 177.420991 
L 187.653323 178.754267 
L 187.997883 187.074354 
L 188.859284 220.60145 
L 189.031564 220.519542 
L 189.203844 216.074359 
L 189.548405 195.148104 
L 190.754366 99.608254 
L 190.926646 95.081995 
L 191.098926 94.240578 
L 191.271206 97.058419 
L 191.615766 112.672313 
L 192.132607 153.678658 
L 192.649447 195.489627 
L 192.994008 209.116351 
L 193.166288 209.651731 
L 193.338568 206.258432 
L 193.683128 190.98239 
L 194.544529 145.668976 
L 194.716809 141.618072 
L 194.889089 141.260445 
L 195.061369 145.33163 
L 195.40593 167.019899 
L 196.26733 239.317063 
L 196.43961 244.386487 
L 196.611891 245.084388 
L 196.784171 241.992573 
L 197.128731 227.496725 
L 198.162412 168.341241 
L 198.334692 164.709542 
L 198.506972 164.48066 
L 198.679252 167.334759 
L 199.712933 197.436175 
L 199.885213 198.015836 
L 200.057493 196.507578 
L 200.402054 186.464224 
L 200.918894 155.951312 
L 201.435735 126.448052 
L 201.780295 118.206775 
L 201.952575 117.668915 
L 202.124855 119.012746 
L 202.469415 126.044721 
L 203.330816 150.469304 
L 203.503096 151.37841 
L 203.675376 150.162629 
L 204.364497 139.80048 
L 204.536777 139.932161 
L 204.709057 141.697374 
L 205.053618 149.415967 
L 205.398178 163.099995 
L 205.915018 198.644928 
L 206.431859 238.186238 
L 206.776419 251.179398 
L 206.948699 252.362269 
L 207.120979 250.692026 
L 207.46554 241.887784 
L 207.98238 221.613009 
L 208.843781 186.428197 
L 209.188341 181.842738 
L 209.532901 180.781433 
L 209.705181 179.500133 
L 209.877462 176.731348 
L 210.222022 165.383107 
L 210.738862 136.222335 
L 211.255703 108.758532 
L 211.427983 104.727204 
L 211.600263 104.737141 
L 211.772543 109.106563 
L 212.117103 129.485062 
L 213.150784 208.217504 
L 213.323064 213.290488 
L 213.495345 213.968901 
L 213.667625 209.821076 
L 214.012185 187.753794 
L 214.873586 115.074906 
L 215.045866 110.017679 
L 215.218146 109.710866 
L 215.390426 113.853768 
L 215.734986 133.362175 
L 216.251827 181.638632 
L 216.940947 246.383793 
L 217.285508 260.578647 
L 217.457788 260.90365 
L 217.630068 256.826344 
L 217.974628 238.095331 
L 218.836029 178.281077 
L 219.180589 166.416761 
L 219.352869 164.186677 
L 219.525149 164.233488 
L 219.69743 166.192406 
L 220.38655 177.811515 
L 220.55883 176.574241 
L 220.73111 172.042731 
L 221.075671 153.399755 
L 221.764791 105.685909 
L 222.109352 96.25203 
L 222.281632 97.821674 
L 222.453912 103.735926 
L 222.798472 127.069865 
L 223.832153 214.666267 
L 224.004433 220.057048 
L 224.176713 221.51509 
L 224.348993 219.411122 
L 224.693554 207.107702 
L 225.727235 157.662804 
L 225.899515 154.257678 
L 226.071795 153.321014 
L 226.244075 154.82003 
L 226.588635 163.787528 
L 227.450036 194.553041 
L 227.794596 199.149927 
L 227.966876 198.547429 
L 228.311437 192.706938 
L 228.828277 183.528141 
L 229.000557 183.261296 
L 229.172837 184.677059 
L 230.034238 196.865538 
L 230.206518 197.116667 
L 230.378798 196.421829 
L 230.551079 194.777769 
L 230.895639 188.029929 
L 231.240199 175.618982 
L 232.1016 140.245188 
L 232.27388 138.254066 
L 232.44616 138.87593 
L 232.61844 141.931024 
L 232.963001 153.677488 
L 233.824401 189.145398 
L 233.996681 192.380686 
L 234.168962 193.068737 
L 234.341242 190.921052 
L 234.685802 178.235329 
L 235.719483 124.680614 
L 235.891763 124.277771 
L 236.064043 128.112134 
L 236.408603 147.418196 
L 237.270004 214.596204 
L 237.442284 220.881416 
L 237.614564 222.808631 
L 237.786845 220.380372 
L 238.131405 204.370328 
L 239.337366 126.018678 
L 239.509646 125.815031 
L 239.681926 130.435054 
L 240.026486 151.532722 
L 240.715607 201.872116 
L 241.060167 214.238324 
L 241.232447 216.85797 
L 241.404728 217.608891 
L 241.577008 216.76713 
L 241.921568 210.699071 
L 242.438408 192.732204 
L 242.955249 176.696593 
L 243.127529 174.775254 
L 243.299809 174.953195 
L 243.472089 177.009628 
L 243.81665 185.009615 
L 244.50577 202.000517 
L 244.67805 202.749622 
L 244.85033 200.522599 
L 245.022611 194.713385 
L 245.367171 172.271523 
L 246.228572 104.959482 
L 246.400852 100.528376 
L 246.573132 100.67168 
L 246.745412 105.240057 
L 247.089972 125.793553 
L 248.123653 207.384437 
L 248.295933 211.962853 
L 248.468213 212.810371 
L 248.640494 210.528264 
L 248.985054 199.663232 
L 250.191015 152.206977 
L 250.363295 150.64957 
L 250.535575 150.940426 
L 251.741536 161.882136 
L 252.086096 168.017623 
L 253.292057 197.990317 
L 254.325738 235.363576 
L 254.498018 234.869458 
L 254.670299 231.524169 
L 255.014859 217.857376 
L 255.531699 184.935139 
L 256.3931 123.71137 
L 256.73766 115.248756 
L 256.90994 116.273646 
L 257.254501 127.119663 
L 258.460462 182.474431 
L 258.632742 182.169829 
L 258.977302 174.243929 
L 259.666423 152.53562 
L 260.010983 146.904739 
L 260.183263 146.453489 
L 260.355543 148.256834 
L 260.700104 160.290741 
L 261.733784 216.814712 
L 261.906065 216.952353 
L 262.078345 213.232393 
L 262.422905 197.107259 
L 263.112026 158.165889 
L 263.456586 150.730257 
L 263.628866 152.437212 
L 263.973426 167.15323 
L 265.179387 246.438255 
L 265.351667 246.113157 
L 265.523948 241.131096 
L 265.868508 219.529653 
L 267.074469 123.451607 
L 267.419029 112.563809 
L 267.591309 111.758256 
L 267.763589 114.123586 
L 268.10815 126.723065 
L 268.79727 157.902522 
L 269.141831 163.336406 
L 269.314111 162.54144 
L 269.486391 159.572851 
L 269.830951 148.140381 
L 270.520072 120.375802 
L 270.692352 118.426224 
L 270.864632 120.514906 
L 271.209192 137.580009 
L 271.898313 201.377439 
L 272.415153 238.817769 
L 272.759714 246.882505 
L 272.931994 245.598137 
L 273.276554 235.846238 
L 273.965675 214.46134 
L 274.310235 209.802992 
L 274.654795 208.000707 
L 274.999355 207.551669 
L 275.171636 206.91667 
L 275.343916 205.126196 
L 275.688476 195.441639 
L 276.205316 166.353773 
L 276.722157 141.523765 
L 277.066717 135.429651 
L 277.238997 134.753141 
L 277.411277 135.184932 
L 277.583558 136.726965 
L 277.928118 144.240097 
L 278.961799 179.049027 
L 279.134079 176.650212 
L 279.478639 162.279233 
L 280.34004 116.647095 
L 280.6846 109.715658 
L 280.85688 110.250551 
L 281.02916 113.83025 
L 281.373721 130.144576 
L 282.751962 220.523134 
L 282.924242 222.762805 
L 283.096522 221.976637 
L 283.441082 213.426512 
L 283.957923 199.033946 
L 284.130203 198.07521 
L 284.302483 199.760269 
L 284.647043 209.336376 
L 285.336164 232.347662 
L 285.508444 235.185759 
L 285.680724 235.609253 
L 285.853004 232.822851 
L 286.025285 226.079583 
L 286.369845 199.486997 
L 287.403526 91.023232 
L 287.575806 84.768719 
L 287.748086 83.944119 
L 287.920366 88.332679 
L 288.264926 110.761943 
L 289.470887 227.699725 
L 289.643168 231.588217 
L 289.815448 229.878219 
L 290.160008 212.536909 
L 291.193689 141.123919 
L 291.538249 134.182708 
L 291.710529 135.128891 
L 292.05509 144.785065 
L 293.08877 189.068284 
L 293.433331 193.976274 
L 293.605611 193.783707 
L 293.777891 191.947904 
L 294.122451 184.4557 
L 294.639292 171.900768 
L 294.811572 170.007548 
L 294.983852 170.048901 
L 295.156132 172.130105 
L 295.500692 181.555882 
L 296.189813 205.44043 
L 296.362093 207.864215 
L 296.534373 207.299251 
L 296.706653 203.341259 
L 297.051214 186.023219 
L 297.740334 143.827866 
L 297.912614 139.076166 
L 298.084895 137.83505 
L 298.257175 139.743826 
L 298.601735 149.88792 
L 299.635416 186.109018 
L 299.807696 189.188008 
L 299.979976 190.158432 
L 300.152256 188.623686 
L 300.496817 178.659692 
L 301.013657 160.747422 
L 301.185937 158.493073 
L 301.358217 158.930553 
L 301.702778 166.108617 
L 302.564178 189.708215 
L 302.908739 194.416815 
L 303.081019 194.56043 
L 303.253299 192.665113 
L 303.597859 182.248321 
L 304.63154 139.051983 
L 304.80382 138.130422 
L 304.9761 140.189782 
L 305.320661 152.568749 
L 306.354341 203.870775 
L 306.526622 206.548389 
L 306.698902 206.668638 
L 306.871182 204.30151 
L 307.215742 192.956333 
L 308.077143 155.626176 
L 308.249423 154.501281 
L 308.421703 157.281701 
L 308.766263 173.567127 
L 309.627664 227.938389 
L 309.799944 232.61855 
L 309.972224 233.796648 
L 310.144505 231.237769 
L 310.489065 214.645089 
L 311.005905 166.169483 
L 311.695026 102.53866 
L 311.867306 95.468869 
L 312.039586 93.41774 
L 312.211866 96.383347 
L 312.556427 115.466416 
L 313.762388 209.085441 
L 313.934668 211.586955 
L 314.106948 210.019651 
L 314.451508 196.764051 
L 315.312909 151.193232 
L 315.485189 147.54873 
L 315.657469 146.454165 
L 315.829749 147.457043 
L 316.17431 153.222206 
L 317.380271 176.806132 
L 317.552551 177.597683 
L 317.724831 177.22524 
L 318.241671 173.889453 
L 318.413951 174.193655 
L 318.586232 175.955274 
L 318.930792 183.868334 
L 319.447632 203.996397 
L 320.309033 241.516006 
L 320.481313 244.30126 
L 320.653593 244.036557 
L 320.825873 240.547787 
L 321.170434 224.470207 
L 321.687274 183.557014 
L 322.376395 130.833198 
L 322.548675 125.152899 
L 322.720955 123.541817 
L 322.893235 125.42856 
L 323.754636 146.171127 
L 324.099196 148.549897 
L 324.788317 151.385816 
L 324.960597 151.498348 
L 325.132877 151.452969 
L 325.305157 151.803277 
L 325.477437 153.270334 
L 325.821998 161.467441 
L 326.511118 185.581033 
L 326.683398 187.645445 
L 326.855678 187.212981 
L 327.200239 180.578878 
L 327.717079 163.432585 
L 328.4062 137.401058 
L 328.57848 133.973195 
L 328.75076 133.439454 
L 328.92304 136.272072 
L 329.2676 152.04043 
L 329.784441 195.08151 
L 330.473561 258.001556 
L 330.818122 269.97272 
L 330.990402 267.784416 
L 331.334962 249.102389 
L 332.713203 144.715077 
L 332.885483 141.678083 
L 333.057764 142.626415 
L 333.402324 154.340306 
L 333.919164 176.62435 
L 334.091444 179.903418 
L 334.263725 179.993011 
L 334.436005 176.977979 
L 334.780565 163.39069 
L 334.780565 163.39069 
" clip-path="url(#p2bc8bb71ed)" style="fill: none; stroke: #1f2d5f; stroke-width: 1.5; stroke-linecap: square"/>
   </g>
   <g id="line2d_30">
    <path d="M 76.532631 174.256975 
L 77.049471 89.359815 
L 77.394032 63.54061 
L 77.566312 60.876 
L 77.738592 63.72277 
L 78.083152 81.442308 
L 79.289113 171.941152 
L 79.461393 175.443562 
L 79.633674 175.513951 
L 79.978234 168.703259 
L 80.667354 151.91979 
L 80.839635 150.445864 
L 81.011915 150.694968 
L 81.184195 152.813028 
L 81.528755 162.421095 
L 82.734716 207.205897 
L 82.906996 209.248676 
L 83.079276 209.378663 
L 83.251557 207.481108 
L 83.596117 198.240916 
L 84.112957 181.002407 
L 84.285237 178.258082 
L 84.457518 178.225552 
L 84.629798 180.974579 
L 84.974358 192.849107 
L 85.835759 225.742757 
L 86.008039 228.639047 
L 86.180319 229.158657 
L 86.352599 226.699704 
L 86.697159 211.473419 
L 87.90312 129.61426 
L 88.075401 126.879784 
L 88.247681 126.683528 
L 88.419961 128.458588 
L 88.764521 135.754484 
L 89.453642 151.759578 
L 89.625922 153.386592 
L 89.798202 153.494759 
L 89.970482 152.17008 
L 90.659603 142.55212 
L 90.831883 142.564003 
L 91.004163 144.690346 
L 91.348723 155.503927 
L 92.554684 208.580361 
L 92.899245 212.689088 
L 93.071525 211.657451 
L 93.416085 203.199632 
L 94.277486 171.976409 
L 94.449766 170.98832 
L 94.622046 172.896806 
L 94.966606 183.903965 
L 95.655727 209.933873 
L 95.828007 211.807445 
L 96.000287 210.703596 
L 96.172567 206.626082 
L 96.517128 191.021397 
L 97.723089 119.654787 
L 97.895369 115.578523 
L 98.067649 115.1322 
L 98.239929 118.759408 
L 98.584489 137.922924 
L 99.61817 220.049976 
L 99.79045 225.862569 
L 99.96273 227.904084 
L 100.135011 226.028848 
L 100.307291 220.144567 
L 100.651851 196.575918 
L 101.685532 101.543998 
L 101.857812 98.928746 
L 102.030092 102.366797 
L 102.374652 123.609702 
L 103.408333 206.853311 
L 103.752894 217.475328 
L 103.925174 217.627516 
L 104.097454 214.653317 
L 105.131135 183.518268 
L 105.303415 183.379478 
L 105.475695 185.082261 
L 105.820255 192.30168 
L 106.337096 203.915181 
L 106.509376 205.449148 
L 106.681656 204.992719 
L 106.853936 202.382033 
L 107.198496 191.336984 
L 108.576738 129.690771 
L 108.749018 127.524766 
L 108.921298 128.382234 
L 109.093578 132.506384 
L 109.438138 149.74621 
L 110.471819 215.641226 
L 110.644099 220.124935 
L 110.816379 221.449391 
L 110.98866 219.427106 
L 111.33322 205.465938 
L 112.539181 130.014206 
L 112.711461 127.658073 
L 112.883741 127.840303 
L 113.228301 133.31175 
L 114.434262 161.95905 
L 114.778823 164.551459 
L 115.123383 165.977779 
L 115.295663 167.793212 
L 115.640223 176.068677 
L 116.673904 214.722914 
L 116.846184 216.226381 
L 117.018465 215.430938 
L 117.363025 207.795602 
L 117.879865 185.943278 
L 118.568986 156.686084 
L 118.741266 153.79507 
L 118.913546 153.724348 
L 119.085826 156.506435 
L 119.430387 169.251855 
L 120.291787 211.947989 
L 120.464067 215.926481 
L 120.636348 216.560851 
L 120.808628 213.537668 
L 121.153188 197.843528 
L 122.014589 148.066855 
L 122.359149 138.222099 
L 122.531429 136.486977 
L 122.703709 137.418992 
L 122.875989 141.437782 
L 123.22055 158.669053 
L 123.90967 201.093644 
L 124.08195 205.47638 
L 124.254231 206.040969 
L 124.426511 203.038285 
L 124.771071 188.388495 
L 125.287911 151.532291 
L 125.977032 103.263811 
L 126.149312 99.508758 
L 126.321592 101.107546 
L 126.493872 108.060827 
L 126.838433 134.647105 
L 127.527553 197.423117 
L 127.872114 213.187541 
L 128.044394 214.923326 
L 128.216674 212.681837 
L 128.561234 199.208428 
L 129.078075 175.512876 
L 129.250355 171.659471 
L 129.422635 170.891371 
L 129.594915 173.13572 
L 129.939475 184.904919 
L 130.973156 235.491227 
L 131.145436 237.490453 
L 131.317716 235.187232 
L 131.662277 217.690827 
L 132.868238 124.338734 
L 133.212798 115.061599 
L 133.385078 115.967561 
L 133.557358 120.931334 
L 133.901919 141.415824 
L 134.763319 200.940852 
L 135.10788 208.604522 
L 135.28016 207.823527 
L 135.45244 203.981977 
L 135.797 187.729125 
L 136.830681 122.244442 
L 137.002961 119.04845 
L 137.175241 119.307312 
L 137.347521 122.608895 
L 137.864362 142.992935 
L 138.381202 163.013646 
L 138.898043 174.846386 
L 139.414883 185.873157 
L 139.759443 197.921273 
L 140.448564 233.643677 
L 140.965404 255.15002 
L 141.137685 257.58289 
L 141.309965 256.622229 
L 141.482245 251.933276 
L 141.826805 231.639267 
L 143.205046 122.580611 
L 143.377326 118.622917 
L 143.549607 117.808256 
L 143.721887 120.01416 
L 144.066447 131.991071 
L 144.755568 163.505138 
L 144.927848 167.118915 
L 145.100128 167.523177 
L 145.272408 164.569113 
L 145.616968 150.308156 
L 146.133809 124.397073 
L 146.306089 119.684759 
L 146.478369 118.320024 
L 146.650649 120.344588 
L 146.995209 132.458641 
L 147.68433 170.973188 
L 148.373451 209.241326 
L 148.545731 213.926417 
L 148.718011 215.105503 
L 148.890291 212.734822 
L 149.234851 200.14222 
L 149.751692 178.954157 
L 150.096252 173.301753 
L 150.268532 174.058917 
L 150.440812 177.407785 
L 150.785373 192.145827 
L 151.819053 258.172146 
L 151.991334 260.366741 
L 152.163614 257.635654 
L 152.508174 237.705961 
L 153.025014 182.990248 
L 153.541855 130.678464 
L 153.886415 115.070808 
L 154.058695 114.663938 
L 154.230975 118.596055 
L 154.575536 135.255792 
L 155.264656 171.483265 
L 155.436936 175.671805 
L 155.609217 176.464401 
L 155.781497 173.411927 
L 156.126057 156.022269 
L 156.987458 99.579578 
L 157.159738 96.659691 
L 157.332018 97.45665 
L 157.504298 101.412891 
L 157.848858 116.614074 
L 158.365699 154.806842 
L 159.2271 230.052999 
L 159.57166 243.142638 
L 159.74394 244.961324 
L 159.91622 244.245035 
L 160.0885 241.428818 
L 160.433061 230.484979 
L 161.639022 178.272603 
L 161.811302 176.855861 
L 161.983582 177.079568 
L 162.328142 179.093772 
L 162.500422 179.178668 
L 162.672702 177.859377 
L 163.017263 170.772029 
L 163.706383 153.442439 
L 163.878663 152.350508 
L 164.050944 153.326925 
L 164.395504 161.148217 
L 165.601465 201.830108 
L 165.773745 201.688756 
L 165.946025 198.835406 
L 166.290585 185.146709 
L 167.496546 118.256796 
L 167.668827 117.726673 
L 167.841107 120.386843 
L 168.185667 132.46118 
L 169.736188 200.86796 
L 169.908468 202.270512 
L 170.080749 201.19228 
L 170.769869 189.386939 
L 170.942149 189.493614 
L 171.114429 191.623454 
L 171.97583 210.052768 
L 172.14811 210.968312 
L 172.32039 210.36964 
L 172.492671 208.172336 
L 172.837231 198.192651 
L 173.181791 179.435568 
L 174.215472 112.93645 
L 174.387752 111.022339 
L 174.560032 113.170081 
L 174.904593 128.489326 
L 175.421433 170.659327 
L 176.110554 226.078588 
L 176.455114 235.575679 
L 176.627394 233.814755 
L 176.799674 227.733611 
L 177.144234 204.05019 
L 178.177915 114.364515 
L 178.350195 111.420594 
L 178.522476 113.939488 
L 178.867036 132.297573 
L 179.900717 207.279429 
L 180.072997 212.295718 
L 180.245277 213.191801 
L 180.417557 209.719864 
L 180.762117 191.444446 
L 181.451238 147.688318 
L 181.623518 143.388077 
L 181.795798 142.800247 
L 181.968078 145.506971 
L 182.312639 157.995106 
L 183.5186 215.050529 
L 183.69088 216.971143 
L 183.86316 215.811243 
L 184.20772 205.767666 
L 185.069121 172.940411 
L 185.585961 162.968311 
L 185.758242 161.590484 
L 185.930522 161.522167 
L 186.102802 162.927768 
L 186.447362 169.766546 
L 186.964203 182.429996 
L 187.136483 184.421169 
L 187.308763 184.257815 
L 187.481043 181.649012 
L 187.825603 169.747886 
L 188.342444 147.413836 
L 188.514724 143.31268 
L 188.687004 142.317529 
L 188.859284 144.590686 
L 189.203844 157.077576 
L 190.065245 194.664244 
L 190.237525 197.712048 
L 190.409805 198.169971 
L 190.582086 195.75252 
L 190.926646 182.398398 
L 191.788047 133.579709 
L 191.960327 129.174151 
L 192.132607 127.93719 
L 192.304887 129.73924 
L 192.649447 140.385272 
L 193.510848 174.426376 
L 194.027688 185.318057 
L 194.372249 188.827236 
L 194.544529 189.450717 
L 194.716809 189.47937 
L 194.889089 189.325702 
L 195.061369 189.644918 
L 195.233649 191.20353 
L 195.57821 200.302748 
L 196.43961 238.562084 
L 196.611891 240.6728 
L 196.784171 239.288213 
L 196.956451 234.461327 
L 197.301011 215.811453 
L 197.817852 171.904611 
L 198.506972 113.731644 
L 198.679252 106.739362 
L 198.851532 104.672672 
L 199.023813 107.729991 
L 199.368373 127.503785 
L 200.574334 230.945132 
L 200.746614 234.01656 
L 200.918894 231.370869 
L 201.263454 210.300245 
L 202.469415 102.067153 
L 202.641696 96.691861 
L 202.813976 95.883668 
L 202.986256 99.793589 
L 203.330816 119.734322 
L 204.192217 180.429935 
L 204.536777 189.959652 
L 204.709057 191.050633 
L 204.881337 189.787386 
L 205.225898 180.974552 
L 205.742738 164.298884 
L 205.915018 163.246692 
L 206.087298 166.341491 
L 206.431859 184.693719 
L 207.293259 243.502017 
L 207.46554 248.384008 
L 207.63782 250.034438 
L 207.8101 248.428198 
L 207.98238 243.55539 
L 208.32694 224.470844 
L 209.360621 147.859463 
L 209.705181 140.259195 
L 209.877462 140.473595 
L 210.222022 146.126428 
L 211.255703 172.919519 
L 211.427983 173.933506 
L 211.600263 172.843936 
L 211.944823 164.655695 
L 212.978504 126.501119 
L 213.150784 124.74346 
L 213.323064 125.931684 
L 213.495345 130.228695 
L 213.839905 146.4012 
L 214.529025 180.215138 
L 214.873586 186.887306 
L 215.045866 188.135071 
L 215.218146 188.56628 
L 215.390426 188.422265 
L 215.562706 187.780915 
L 216.251827 183.438797 
L 216.424107 184.190623 
L 216.596387 186.745563 
L 216.940947 197.258787 
L 217.457788 216.39526 
L 217.630068 219.937754 
L 217.802348 221.007175 
L 217.974628 219.537782 
L 218.319188 210.456836 
L 219.180589 180.83257 
L 219.525149 175.867565 
L 219.69743 175.753672 
L 219.86971 177.23228 
L 220.21427 183.902107 
L 220.73111 193.583075 
L 220.903391 193.466097 
L 221.075671 190.608041 
L 221.420231 175.961626 
L 221.937071 135.786357 
L 222.626192 78.512918 
L 222.970752 65.916289 
L 223.143032 66.389712 
L 223.315313 71.676282 
L 223.659873 95.56304 
L 224.348993 175.499066 
L 224.865834 228.854879 
L 225.210394 245.134569 
L 225.382674 246.214828 
L 225.554954 243.078482 
L 225.899515 227.863656 
L 226.588635 191.734812 
L 226.933196 182.825321 
L 227.105476 181.852444 
L 227.277756 183.310382 
L 227.622316 192.833594 
L 228.311437 218.631658 
L 228.483717 220.587237 
L 228.655997 219.346756 
L 229.000557 208.023125 
L 230.206518 147.666142 
L 230.378798 145.047381 
L 230.551079 145.788488 
L 230.723359 150.071809 
L 231.067919 167.163344 
L 231.584759 194.569113 
L 231.75704 198.664061 
L 231.92932 198.946863 
L 232.1016 195.357187 
L 232.44616 177.959512 
L 233.824401 84.48335 
L 233.996681 84.582782 
L 234.168962 88.84121 
L 234.513522 108.586121 
L 235.891763 222.101469 
L 236.236323 229.6359 
L 236.408603 229.699062 
L 236.580884 227.736909 
L 236.925444 218.796436 
L 237.959125 182.124172 
L 238.131405 181.189804 
L 238.303685 182.548743 
L 238.992806 194.602679 
L 239.165086 194.399139 
L 239.337366 191.935779 
L 239.854206 176.00599 
L 240.371047 162.516905 
L 240.715607 159.54728 
L 240.887887 159.844261 
L 241.060167 161.312112 
L 241.404728 167.681929 
L 242.093848 184.658808 
L 242.266128 185.847188 
L 242.438408 184.583624 
L 242.782969 174.951391 
L 243.472089 148.752242 
L 243.644369 145.967715 
L 243.81665 145.546011 
L 243.98893 147.344827 
L 244.33349 156.278451 
L 245.022611 186.172995 
L 245.367171 199.924536 
L 245.539451 203.934901 
L 245.711731 205.093492 
L 245.884011 203.068817 
L 246.228572 190.172635 
L 247.434533 128.168014 
L 247.606813 127.536653 
L 247.779093 130.626585 
L 248.123653 147.066127 
L 249.329614 223.971682 
L 249.501894 226.583981 
L 249.674174 225.215231 
L 249.846455 219.704216 
L 250.191015 198.359329 
L 250.880135 152.802485 
L 251.052416 148.182381 
L 251.224696 146.954157 
L 251.396976 148.666736 
L 251.741536 158.596446 
L 252.775217 197.650115 
L 252.947497 196.702499 
L 253.119777 191.895628 
L 253.464338 173.257178 
L 253.981178 142.738911 
L 254.325738 133.478025 
L 254.498018 133.143607 
L 254.670299 135.577917 
L 255.014859 148.919244 
L 255.359419 173.951175 
L 256.22082 243.701379 
L 256.3931 246.22442 
L 256.56538 242.582796 
L 256.90994 218.665404 
L 258.115901 96.091797 
L 258.288182 91.551695 
L 258.460462 92.384587 
L 258.632742 98.108492 
L 258.977302 120.551077 
L 260.183263 218.867169 
L 260.355543 224.5829 
L 260.527823 226.586667 
L 260.700104 225.366924 
L 261.044664 217.312016 
L 261.733784 201.510546 
L 262.767465 182.358501 
L 262.939745 182.0047 
L 263.112026 182.266437 
L 263.284306 182.227743 
L 263.456586 180.918502 
L 263.801146 172.287857 
L 264.662547 141.499639 
L 264.834827 140.788143 
L 265.007107 142.553082 
L 265.351667 151.912001 
L 266.040788 182.314783 
L 266.557628 200.322319 
L 266.729909 201.648963 
L 266.902189 199.673341 
L 267.246749 185.957843 
L 268.28043 127.23843 
L 268.45271 125.323055 
L 268.62499 126.898848 
L 268.96955 138.541562 
L 269.830951 175.234321 
L 270.175511 179.474159 
L 270.347792 178.816418 
L 270.692352 173.170511 
L 271.209192 162.393713 
L 271.381472 161.184496 
L 271.553753 162.179663 
L 271.726033 165.567675 
L 272.070593 178.684888 
L 273.276554 237.611876 
L 273.448834 240.748639 
L 273.621114 241.049635 
L 273.793394 238.213722 
L 274.137955 223.070153 
L 275.343916 146.188123 
L 275.516196 146.235644 
L 275.688476 150.282511 
L 276.205316 176.030062 
L 276.722157 197.70834 
L 276.894437 200.304959 
L 277.066717 199.781103 
L 277.238997 195.740309 
L 277.583558 176.475595 
L 278.617238 93.292776 
L 278.789519 90.302594 
L 278.961799 92.156131 
L 279.306359 108.008134 
L 279.823199 150.108959 
L 280.51232 207.397556 
L 280.85688 219.538795 
L 281.02916 218.796437 
L 281.201441 213.531634 
L 281.546001 192.523764 
L 282.235121 143.615856 
L 282.579682 133.559754 
L 282.751962 134.235031 
L 282.924242 138.732818 
L 283.268802 157.393192 
L 284.474763 238.037036 
L 284.647043 242.442413 
L 284.819324 243.807488 
L 284.991604 242.045266 
L 285.336164 230.592329 
L 286.025285 202.429072 
L 286.369845 196.403361 
L 286.714405 191.706389 
L 287.058965 183.056421 
L 287.748086 156.036334 
L 288.609487 114.157114 
L 288.954047 99.681777 
L 289.126327 95.848915 
L 289.298607 95.133015 
L 289.470887 97.731035 
L 289.815448 111.835706 
L 290.504568 158.845597 
L 291.193689 201.39414 
L 291.538249 210.788032 
L 291.710529 211.212499 
L 291.882809 209.006857 
L 292.39965 193.996915 
L 292.74421 185.822713 
L 292.91649 184.035485 
L 293.08877 183.904624 
L 293.261051 185.249143 
L 293.605611 191.078806 
L 294.122451 201.190551 
L 294.294731 202.928023 
L 294.467012 203.149868 
L 294.639292 201.726451 
L 294.983852 194.830837 
L 295.500692 182.446072 
L 295.845253 178.891092 
L 296.017533 179.319697 
L 296.189813 181.25962 
L 296.534373 189.045903 
L 297.223494 206.24838 
L 297.395774 206.579461 
L 297.568054 204.115174 
L 297.912614 190.571154 
L 298.429455 154.214306 
L 299.290856 87.388866 
L 299.635416 75.703048 
L 299.807696 76.72879 
L 299.979976 82.891732 
L 300.324536 108.872445 
L 301.358217 205.314304 
L 301.702778 217.684844 
L 301.875058 218.315839 
L 302.047338 215.084305 
L 302.391898 198.597237 
L 302.908739 167.726889 
L 303.081019 162.467463 
L 303.253299 161.656738 
L 303.425579 165.403487 
L 303.770139 183.804645 
L 304.80382 251.234445 
L 304.9761 255.07415 
L 305.14838 254.918811 
L 305.320661 250.518976 
L 305.665221 230.116356 
L 306.871182 129.675528 
L 307.043462 123.691805 
L 307.215742 121.920842 
L 307.388022 124.412306 
L 307.732583 139.590519 
L 308.421703 174.139065 
L 308.593983 177.544331 
L 308.766263 178.497093 
L 308.938544 177.399398 
L 309.283104 170.550963 
L 309.799944 151.896822 
L 310.316785 135.052257 
L 310.489065 134.156365 
L 310.661345 136.694113 
L 311.005905 150.699533 
L 311.695026 184.508063 
L 312.039586 191.066469 
L 312.211866 191.043916 
L 312.384146 188.864607 
L 312.728707 178.408243 
L 313.590107 143.66492 
L 313.762388 142.468552 
L 313.934668 144.485015 
L 314.279228 157.230621 
L 314.968349 201.539255 
L 315.485189 227.209416 
L 315.657469 230.409538 
L 315.829749 230.519842 
L 316.002029 227.816132 
L 316.34659 216.126252 
L 317.552551 162.893382 
L 317.897111 158.431484 
L 318.069391 158.542599 
L 318.413951 160.265264 
L 318.586232 160.44147 
L 318.758512 159.512999 
L 319.103072 154.222015 
L 319.619912 143.748984 
L 319.792193 142.022597 
L 319.964473 142.180552 
L 320.136753 144.655196 
L 320.481313 157.244947 
L 320.998154 191.172427 
L 321.514994 225.464665 
L 321.859554 236.115889 
L 322.031834 235.597664 
L 322.204115 230.837085 
L 322.548675 209.789008 
L 323.754636 107.585736 
L 324.099196 97.941373 
L 324.271476 99.504552 
L 324.443756 105.759739 
L 324.788317 131.355597 
L 325.649717 211.90377 
L 325.821998 218.440601 
L 325.994278 220.092721 
L 326.166558 217.330502 
L 326.511118 202.201164 
L 327.372519 154.364517 
L 327.544799 150.302675 
L 327.717079 149.883213 
L 327.889359 153.357205 
L 328.23392 170.335504 
L 328.92304 211.875547 
L 329.09532 216.927295 
L 329.2676 218.522661 
L 329.439881 216.531836 
L 329.784441 202.518816 
L 330.818122 139.334883 
L 330.990402 136.432665 
L 331.162682 136.851559 
L 331.334962 140.263104 
L 331.679522 154.408068 
L 332.713203 213.739588 
L 332.885483 215.714906 
L 333.057764 213.208915 
L 333.402324 196.797921 
L 334.436005 134.494471 
L 334.780565 125.916073 
L 334.780565 125.916073 
" clip-path="url(#p2bc8bb71ed)" style="fill: none; stroke-dasharray: 4.81,2.08; stroke-dashoffset: 0; stroke: #c05b2a; stroke-width: 1.3"/>
   </g>
   <g id="patch_3">
    <path d="M 63.620234 288.432 
L 63.620234 50.04 
" style="fill: none; stroke: #000000; stroke-width: 0.8; stroke-linejoin: miter; stroke-linecap: square"/>
   </g>
   <g id="patch_4">
    <path d="M 63.620234 288.432 
L 347.692962 288.432 
" style="fill: none; stroke: #000000; stroke-width: 0.8; stroke-linejoin: miter; stroke-linecap: square"/>
   </g>
   <g id="text_17">
    <text style="font-weight: 600; font-size: 12.5px; font-family: 'DejaVu Serif'; text-anchor: middle" x="205.656598" y="44.04" transform="rotate(-0 205.656598 44.04)">Dipole response reconstruction</text>
   </g>
   <g id="legend_1">
    <g id="line2d_31">
     <path d="M 257.417571 63.793359 
L 267.917571 63.793359 
L 278.417571 63.793359 
" style="fill: none; stroke: #1f2d5f; stroke-width: 1.5; stroke-linecap: square"/>
    </g>
    <g id="text_18">
     <text style="font-size: 10.5px; font-family: 'DejaVu Serif'; text-anchor: start" x="286.817571" y="67.468359" transform="rotate(-0 286.817571 67.468359)">reference</text>
    </g>
    <g id="line2d_32">
     <path d="M 257.417571 79.205391 
L 267.917571 79.205391 
L 278.417571 79.205391 
" style="fill: none; stroke-dasharray: 4.81,2.08; stroke-dashoffset: 0; stroke: #c05b2a; stroke-width: 1.3"/>
    </g>
    <g id="text_19">
     <text style="font-size: 10.5px; font-family: 'DejaVu Serif'; text-anchor: start" x="286.817571" y="82.880391" transform="rotate(-0 286.817571 82.880391)">model</text>
    </g>
   </g>
  </g>
  <g id="axes_2">
   <g id="patch_5">
    <path d="M 404.507507 288.432 
L 688.580234 288.432 
L 688.580234 50.04 
L 404.507507 50.04 
z
" style="fill: #ffffff"/>
   </g>
   <g id="matplotlib.axis_3">
    <g id="xtick_8">
     <g id="line2d_33">
      <path d="M 415.686696 288.432 
L 415.686696 50.04 
" clip-path="url(#pf83fbd65f4)" style="fill: none; stroke-dasharray: 2.22,0.96; stroke-dashoffset: 0; stroke: #b0b0b0; stroke-opacity: 0.2; stroke-width: 0.6"/>
     </g>
     <g id="line2d_34">
      <g>
       <use xlink:href="#m4a13026df9" x="415.686696" y="288.432" style="stroke: #000000; stroke-width: 0.8"/>
      </g>
     </g>
     <g id="text_20">
      <text style="font-size: 10.5px; font-family: 'DejaVu Serif'; text-anchor: middle" x="415.686696" y="303.410359" transform="rotate(-0 415.686696 303.410359)">0.0</text>
     </g>
    </g>
    <g id="xtick_9">
     <g id="line2d_35">
      <path d="M 450.350848 288.432 
L 450.350848 50.04 
" clip-path="url(#pf83fbd65f4)" style="fill: none; stroke-dasharray: 2.22,0.96; stroke-dashoffset: 0; stroke: #b0b0b0; stroke-opacity: 0.2; stroke-width: 0.6"/>
     </g>
     <g id="line2d_36">
      <g>
       <use xlink:href="#m4a13026df9" x="450.350848" y="288.432" style="stroke: #000000; stroke-width: 0.8"/>
      </g>
     </g>
     <g id="text_21">
      <text style="font-size: 10.5px; font-family: 'DejaVu Serif'; text-anchor: middle" x="450.350848" y="303.410359" transform="rotate(-0 450.350848 303.410359)">0.2</text>
     </g>
    </g>
    <g id="xtick_10">
     <g id="line2d_37">
      <path d="M 485.015001 288.432 
L 485.015001 50.04 
" clip-path="url(#pf83fbd65f4)" style="fill: none; stroke-dasharray: 2.22,0.96; stroke-dashoffset: 0; stroke: #b0b0b0; stroke-opacity: 0.2; stroke-width: 0.6"/>
     </g>
     <g id="line2d_38">
      <g>
       <use xlink:href="#m4a13026df9" x="485.015001" y="288.432" style="stroke: #000000; stroke-width: 0.8"/>
      </g>
     </g>
     <g id="text_22">
      <text style="font-size: 10.5px; font-family: 'DejaVu Serif'; text-anchor: middle" x="485.015001" y="303.410359" transform="rotate(-0 485.015001 303.410359)">0.4</text>
     </g>
    </g>
    <g id="xtick_11">
     <g id="line2d_39">
      <path d="M 519.679153 288.432 
L 519.679153 50.04 
" clip-path="url(#pf83fbd65f4)" style="fill: none; stroke-dasharray: 2.22,0.96; stroke-dashoffset: 0; stroke: #b0b0b0; stroke-opacity: 0.2; stroke-width: 0.6"/>
     </g>
     <g id="line2d_40">
      <g>
       <use xlink:href="#m4a13026df9" x="519.679153" y="288.432" style="stroke: #000000; stroke-width: 0.8"/>
      </g>
     </g>
     <g id="text_23">
      <text style="font-size: 10.5px; font-family: 'DejaVu Serif'; text-anchor: middle" x="519.679153" y="303.410359" transform="rotate(-0 519.679153 303.410359)">0.6</text>
     </g>
    </g>
    <g id="xtick_12">
     <g id="line2d_41">
      <path d="M 554.343305 288.432 
L 554.343305 50.04 
" clip-path="url(#pf83fbd65f4)" style="fill: none; stroke-dasharray: 2.22,0.96; stroke-dashoffset: 0; stroke: #b0b0b0; stroke-opacity: 0.2; stroke-width: 0.6"/>
     </g>
     <g id="line2d_42">
      <g>
       <use xlink:href="#m4a13026df9" x="554.343305" y="288.432" style="stroke: #000000; stroke-width: 0.8"/>
      </g>
     </g>
     <g id="text_24">
      <text style="font-size: 10.5px; font-family: 'DejaVu Serif'; text-anchor: middle" x="554.343305" y="303.410359" transform="rotate(-0 554.343305 303.410359)">0.8</text>
     </g>
    </g>
    <g id="xtick_13">
     <g id="line2d_43">
      <path d="M 589.007457 288.432 
L 589.007457 50.04 
" clip-path="url(#pf83fbd65f4)" style="fill: none; stroke-dasharray: 2.22,0.96; stroke-dashoffset: 0; stroke: #b0b0b0; stroke-opacity: 0.2; stroke-width: 0.6"/>
     </g>
     <g id="line2d_44">
      <g>
       <use xlink:href="#m4a13026df9" x="589.007457" y="288.432" style="stroke: #000000; stroke-width: 0.8"/>
      </g>
     </g>
     <g id="text_25">
      <text style="font-size: 10.5px; font-family: 'DejaVu Serif'; text-anchor: middle" x="589.007457" y="303.410359" transform="rotate(-0 589.007457 303.410359)">1.0</text>
     </g>
    </g>
    <g id="xtick_14">
     <g id="line2d_45">
      <path d="M 623.671609 288.432 
L 623.671609 50.04 
" clip-path="url(#pf83fbd65f4)" style="fill: none; stroke-dasharray: 2.22,0.96; stroke-dashoffset: 0; stroke: #b0b0b0; stroke-opacity: 0.2; stroke-width: 0.6"/>
     </g>
     <g id="line2d_46">
      <g>
       <use xlink:href="#m4a13026df9" x="623.671609" y="288.432" style="stroke: #000000; stroke-width: 0.8"/>
      </g>
     </g>
     <g id="text_26">
      <text style="font-size: 10.5px; font-family: 'DejaVu Serif'; text-anchor: middle" x="623.671609" y="303.410359" transform="rotate(-0 623.671609 303.410359)">1.2</text>
     </g>
    </g>
    <g id="xtick_15">
     <g id="line2d_47">
      <path d="M 658.335762 288.432 
L 658.335762 50.04 
" clip-path="url(#pf83fbd65f4)" style="fill: none; stroke-dasharray: 2.22,0.96; stroke-dashoffset: 0; stroke: #b0b0b0; stroke-opacity: 0.2; stroke-width: 0.6"/>
     </g>
     <g id="line2d_48">
      <g>
       <use xlink:href="#m4a13026df9" x="658.335762" y="288.432" style="stroke: #000000; stroke-width: 0.8"/>
      </g>
     </g>
     <g id="text_27">
      <text style="font-size: 10.5px; font-family: 'DejaVu Serif'; text-anchor: middle" x="658.335762" y="303.410359" transform="rotate(-0 658.335762 303.410359)">1.4</text>
     </g>
    </g>
    <g id="text_28">
     <!-- Frequency $\omega$ (a.u.) -->
     <g transform="translate(497.246371 317.574031)">
      <text>
       <tspan x="0" y="-0.640625" style="font-size: 10.5px; font-family: 'DejaVu Serif'">F</tspan>
       <tspan x="7.2854" y="-0.640625" style="font-size: 10.5px; font-family: 'DejaVu Serif'">r</tspan>
       <tspan x="12.304688" y="-0.640625" style="font-size: 10.5px; font-family: 'DejaVu Serif'">e</tspan>
       <tspan x="18.518555" y="-0.640625" style="font-size: 10.5px; font-family: 'DejaVu Serif'">q</tspan>
       <tspan x="25.23999" y="-0.640625" style="font-size: 10.5px; font-family: 'DejaVu Serif'">u</tspan>
       <tspan x="32.002441" y="-0.640625" style="font-size: 10.5px; font-family: 'DejaVu Serif'">e</tspan>
       <tspan x="38.216309" y="-0.640625" style="font-size: 10.5px; font-family: 'DejaVu Serif'">n</tspan>
       <tspan x="44.97876" y="-0.640625" style="font-size: 10.5px; font-family: 'DejaVu Serif'">c</tspan>
       <tspan x="50.859375" y="-0.640625" style="font-size: 10.5px; font-family: 'DejaVu Serif'">y</tspan>
       <tspan x="56.79126" y="-0.640625" style="font-size: 10.5px; font-family: 'DejaVu Serif'"> </tspan>
       <tspan x="67.331909" y="-0.640625" style="font-size: 10.5px; font-family: 'DejaVu Serif'"> </tspan>
       <tspan x="70.669556" y="-0.640625" style="font-size: 10.5px; font-family: 'DejaVu Serif'">(</tspan>
       <tspan x="74.765991" y="-0.640625" style="font-size: 10.5px; font-family: 'DejaVu Serif'">a</tspan>
       <tspan x="81.026001" y="-0.640625" style="font-size: 10.5px; font-family: 'DejaVu Serif'">.</tspan>
       <tspan x="84.363647" y="-0.640625" style="font-size: 10.5px; font-family: 'DejaVu Serif'">u</tspan>
       <tspan x="91.126099" y="-0.640625" style="font-size: 10.5px; font-family: 'DejaVu Serif'">.</tspan>
       <tspan x="94.463745" y="-0.640625" style="font-size: 10.5px; font-family: 'DejaVu Serif'">)</tspan>
       <tspan x="60.128906" y="-0.640625" style="font-style: italic; font-size: 10.5px; font-family: 'STIXGeneral'">ω</tspan>
      </text>
     </g>
    </g>
   </g>
   <g id="matplotlib.axis_4">
    <g id="ytick_8">
     <g id="line2d_49">
      <path d="M 404.507507 278.099594 
L 688.580234 278.099594 
" clip-path="url(#pf83fbd65f4)" style="fill: none; stroke-dasharray: 2.22,0.96; stroke-dashoffset: 0; stroke: #b0b0b0; stroke-opacity: 0.2; stroke-width: 0.6"/>
     </g>
     <g id="line2d_50">
      <g>
       <use xlink:href="#m9c492a3cb2" x="404.507507" y="278.099594" style="stroke: #000000; stroke-width: 0.8"/>
      </g>
     </g>
     <g id="text_29">
      <text style="font-size: 10.5px; font-family: 'DejaVu Serif'; text-anchor: end" x="397.507507" y="282.088773" transform="rotate(-0 397.507507 282.088773)">0.00</text>
     </g>
    </g>
    <g id="ytick_9">
     <g id="line2d_51">
      <path d="M 404.507507 238.333461 
L 688.580234 238.333461 
" clip-path="url(#pf83fbd65f4)" style="fill: none; stroke-dasharray: 2.22,0.96; stroke-dashoffset: 0; stroke: #b0b0b0; stroke-opacity: 0.2; stroke-width: 0.6"/>
     </g>
     <g id="line2d_52">
      <g>
       <use xlink:href="#m9c492a3cb2" x="404.507507" y="238.333461" style="stroke: #000000; stroke-width: 0.8"/>
      </g>
     </g>
     <g id="text_30">
      <text style="font-size: 10.5px; font-family: 'DejaVu Serif'; text-anchor: end" x="397.507507" y="242.322641" transform="rotate(-0 397.507507 242.322641)">0.02</text>
     </g>
    </g>
    <g id="ytick_10">
     <g id="line2d_53">
      <path d="M 404.507507 198.567329 
L 688.580234 198.567329 
" clip-path="url(#pf83fbd65f4)" style="fill: none; stroke-dasharray: 2.22,0.96; stroke-dashoffset: 0; stroke: #b0b0b0; stroke-opacity: 0.2; stroke-width: 0.6"/>
     </g>
     <g id="line2d_54">
      <g>
       <use xlink:href="#m9c492a3cb2" x="404.507507" y="198.567329" style="stroke: #000000; stroke-width: 0.8"/>
      </g>
     </g>
     <g id="text_31">
      <text style="font-size: 10.5px; font-family: 'DejaVu Serif'; text-anchor: end" x="397.507507" y="202.556508" transform="rotate(-0 397.507507 202.556508)">0.04</text>
     </g>
    </g>
    <g id="ytick_11">
     <g id="line2d_55">
      <path d="M 404.507507 158.801196 
L 688.580234 158.801196 
" clip-path="url(#pf83fbd65f4)" style="fill: none; stroke-dasharray: 2.22,0.96; stroke-dashoffset: 0; stroke: #b0b0b0; stroke-opacity: 0.2; stroke-width: 0.6"/>
     </g>
     <g id="line2d_56">
      <g>
       <use xlink:href="#m9c492a3cb2" x="404.507507" y="158.801196" style="stroke: #000000; stroke-width: 0.8"/>
      </g>
     </g>
     <g id="text_32">
      <text style="font-size: 10.5px; font-family: 'DejaVu Serif'; text-anchor: end" x="397.507507" y="162.790376" transform="rotate(-0 397.507507 162.790376)">0.06</text>
     </g>
    </g>
    <g id="ytick_12">
     <g id="line2d_57">
      <path d="M 404.507507 119.035064 
L 688.580234 119.035064 
" clip-path="url(#pf83fbd65f4)" style="fill: none; stroke-dasharray: 2.22,0.96; stroke-dashoffset: 0; stroke: #b0b0b0; stroke-opacity: 0.2; stroke-width: 0.6"/>
     </g>
     <g id="line2d_58">
      <g>
       <use xlink:href="#m9c492a3cb2" x="404.507507" y="119.035064" style="stroke: #000000; stroke-width: 0.8"/>
      </g>
     </g>
     <g id="text_33">
      <text style="font-size: 10.5px; font-family: 'DejaVu Serif'; text-anchor: end" x="397.507507" y="123.024243" transform="rotate(-0 397.507507 123.024243)">0.08</text>
     </g>
    </g>
    <g id="ytick_13">
     <g id="line2d_59">
      <path d="M 404.507507 79.268931 
L 688.580234 79.268931 
" clip-path="url(#pf83fbd65f4)" style="fill: none; stroke-dasharray: 2.22,0.96; stroke-dashoffset: 0; stroke: #b0b0b0; stroke-opacity: 0.2; stroke-width: 0.6"/>
     </g>
     <g id="line2d_60">
      <g>
       <use xlink:href="#m9c492a3cb2" x="404.507507" y="79.268931" style="stroke: #000000; stroke-width: 0.8"/>
      </g>
     </g>
     <g id="text_34">
      <text style="font-size: 10.5px; font-family: 'DejaVu Serif'; text-anchor: end" x="397.507507" y="83.258111" transform="rotate(-0 397.507507 83.258111)">0.10</text>
     </g>
    </g>
    <g id="text_35">
     <!-- $S(\omega)$ -->
     <g transform="translate(367.944929 179.001) rotate(-90)">
      <text>
       <tspan x="0" y="-0.5625" style="font-style: italic; font-size: 10.5px; font-family: 'STIXGeneral'">S</tspan>
       <tspan x="8.74649" y="-0.5625" style="font-style: italic; font-size: 10.5px; font-family: 'STIXGeneral'">ω</tspan>
       <tspan x="5.25" y="-0.5625" style="font-size: 10.5px; font-family: 'STIXGeneral'">(</tspan>
       <tspan x="15.949493" y="-0.5625" style="font-size: 10.5px; font-family: 'STIXGeneral'">)</tspan>
      </text>
     </g>
    </g>
   </g>
   <g id="line2d_61">
    <path d="M 417.419904 277.596 
L 435.853879 277.277573 
L 446.190688 276.898395 
L 452.565053 276.461925 
L 456.699776 275.977656 
L 459.628539 275.42551 
L 461.6959 274.829329 
L 463.246422 274.178638 
L 464.452383 273.470277 
L 465.486064 272.639223 
L 466.347464 271.706177 
L 467.208865 270.444059 
L 467.897986 269.087745 
L 468.587106 267.28701 
L 469.276227 264.863188 
L 469.965347 261.594916 
L 470.654468 257.302204 
L 472.377269 245.442944 
L 472.72183 244.591082 
L 472.89411 244.551213 
L 473.06639 244.772937 
L 473.41095 245.934748 
L 473.927791 248.982766 
L 475.478312 259.26916 
L 476.167432 262.394577 
L 476.856553 264.602752 
L 477.545674 266.11288 
L 478.234794 267.110479 
L 478.923915 267.728754 
L 479.613035 268.057259 
L 480.302156 268.153691 
L 480.991276 268.053062 
L 481.852677 267.676957 
L 482.714078 267.028801 
L 483.575479 266.089484 
L 484.436879 264.812222 
L 485.29828 263.116724 
L 486.159681 260.876795 
L 487.021081 257.898179 
L 487.710202 254.786619 
L 488.399323 250.785158 
L 489.088443 245.563804 
L 489.777564 238.642624 
L 490.466684 229.328897 
L 491.155805 216.661309 
L 491.844925 199.461627 
L 492.534046 176.820147 
L 494.256847 115.745983 
L 494.601408 112.057446 
L 494.773688 112.277559 
L 494.945968 113.874613 
L 495.290528 120.789908 
L 495.807369 137.747698 
L 497.35789 192.990906 
L 498.047011 209.690949 
L 498.736131 221.544308 
L 499.425252 229.679884 
L 500.114372 235.018286 
L 500.631213 237.570273 
L 501.148053 239.066044 
L 501.492613 239.524017 
L 501.837174 239.565148 
L 502.181734 239.1881 
L 502.526294 238.379262 
L 503.043135 236.295005 
L 503.559975 233.028912 
L 504.076816 228.355556 
L 504.593656 221.967164 
L 505.282777 210.131937 
L 505.971897 193.805749 
L 507.866979 142.777212 
L 508.039259 141.238503 
L 508.211539 140.792703 
L 508.383819 141.46785 
L 508.728379 146.004874 
L 509.24522 158.929397 
L 510.968021 209.732332 
L 511.657142 223.515409 
L 512.346262 233.492716 
L 513.035383 240.590431 
L 513.724504 245.558407 
L 514.413624 248.912748 
L 514.930465 250.566948 
L 515.447305 251.569549 
L 515.791865 251.892625 
L 516.136426 251.939246 
L 516.480986 251.700269 
L 516.825546 251.158587 
L 517.342387 249.721945 
L 517.859227 247.43422 
L 518.376067 244.170108 
L 519.065188 238.193582 
L 520.615709 223.127045 
L 520.96027 221.973612 
L 521.13255 222.002125 
L 521.30483 222.449634 
L 521.64939 224.519261 
L 522.166231 229.82694 
L 523.889032 249.787642 
L 524.578153 255.25514 
L 525.267273 259.318069 
L 526.128674 262.966351 
L 526.990075 265.535385 
L 527.851475 267.392775 
L 528.712876 268.770959 
L 529.746557 269.995804 
L 530.780238 270.899605 
L 531.986199 271.676368 
L 533.36444 272.31075 
L 535.087241 272.842291 
L 536.982323 273.190593 
L 539.221965 273.363367 
L 541.461607 273.314676 
L 543.701248 273.039116 
L 545.59633 272.591991 
L 547.319131 271.95736 
L 548.697373 271.232801 
L 549.903334 270.378335 
L 551.109295 269.236458 
L 552.142975 267.937429 
L 553.004376 266.540909 
L 553.865777 264.751547 
L 554.727178 262.418703 
L 555.588578 259.315274 
L 556.277699 256.047975 
L 556.966819 251.799223 
L 557.65594 246.18055 
L 558.345061 238.629762 
L 559.034181 228.357262 
L 559.723302 214.35832 
L 560.412422 195.721355 
L 562.307504 138.080192 
L 562.652064 135.453028 
L 562.824344 135.958205 
L 562.996624 137.660834 
L 563.341185 144.260591 
L 563.858025 159.696848 
L 565.236266 204.409514 
L 565.925387 220.657718 
L 566.614507 232.623326 
L 567.303628 241.333141 
L 567.992749 247.700093 
L 568.681869 252.398243 
L 569.37099 255.895698 
L 570.23239 259.054314 
L 571.093791 261.235365 
L 571.782912 262.455962 
L 572.644312 263.498308 
L 573.505713 264.163722 
L 574.367114 264.519944 
L 575.056234 264.545506 
L 575.745355 264.293401 
L 576.434475 263.718276 
L 577.123596 262.759062 
L 577.812717 261.329212 
L 578.501837 259.325753 
L 579.363238 255.939699 
L 581.086039 248.57157 
L 582.808841 242.904071 
L 583.325681 239.720255 
L 583.842522 235.157452 
L 584.359362 228.880922 
L 585.048483 217.256944 
L 585.737603 201.441761 
L 587.288124 161.751105 
L 587.632685 157.987177 
L 587.804965 157.550462 
L 587.977245 158.1296 
L 588.321805 162.182042 
L 588.838646 173.839901 
L 590.733727 223.600528 
L 591.422848 235.383561 
L 592.111968 244.02094 
L 592.801089 250.349517 
L 593.49021 255.026793 
L 594.35161 259.250597 
L 595.213011 262.246444 
L 596.074412 264.482473 
L 597.280373 266.957185 
L 598.314054 268.636356 
L 599.347734 269.922085 
L 600.553695 271.030998 
L 601.759656 271.84278 
L 603.137898 272.520002 
L 604.860699 273.10567 
L 606.755781 273.512328 
L 608.823142 273.740278 
L 611.062784 273.760424 
L 612.957866 273.56283 
L 614.680667 273.148982 
L 618.987671 271.737931 
L 620.021352 271.035179 
L 621.055032 270.051728 
L 623.466954 267.24779 
L 624.328355 266.056281 
L 625.017476 264.768979 
L 625.706596 263.050671 
L 626.395717 260.769739 
L 627.084837 257.744874 
L 627.773958 253.708632 
L 628.463079 248.266314 
L 629.152199 240.850394 
L 629.84132 230.702311 
L 630.53044 217.008886 
L 631.391841 194.755563 
L 632.425522 168.690585 
L 632.770082 164.232888 
L 632.942362 163.367087 
L 633.114642 163.484232 
L 633.286923 164.578105 
L 633.631483 169.428923 
L 634.148323 181.492316 
L 635.698845 221.604718 
L 636.387965 234.110867 
L 637.077086 243.312348 
L 637.766206 250.042817 
L 638.455327 255.008273 
L 639.316728 259.501588 
L 640.178128 262.703093 
L 641.039529 265.035244 
L 641.90093 266.766047 
L 642.76233 268.069021 
L 643.796011 269.226807 
L 644.829692 270.062289 
L 646.035653 270.73902 
L 647.241614 271.172477 
L 648.619855 271.432132 
L 649.998096 271.475201 
L 651.376338 271.309984 
L 652.754579 270.934059 
L 654.47738 270.232265 
L 655.855621 269.438509 
L 656.889302 268.604091 
L 657.922983 267.499146 
L 658.956664 266.046853 
L 659.818065 264.488855 
L 660.679465 262.51039 
L 661.540866 259.967621 
L 662.402267 256.648761 
L 663.263667 252.235245 
L 663.952788 247.595005 
L 664.641909 241.572416 
L 665.331029 233.626284 
L 666.02015 222.971406 
L 666.70927 208.492747 
L 667.398391 188.722339 
L 668.087511 162.147509 
L 668.948912 119.453776 
L 669.810313 77.430165 
L 670.154873 67.053521 
L 670.327153 64.270683 
L 670.499433 63.302373 
L 670.671714 64.198154 
L 671.016274 71.303338 
L 671.533114 92.220304 
L 673.428196 182.171431 
L 674.117316 203.42103 
L 674.806437 218.936116 
L 675.495558 230.238585 
L 675.667838 232.554117 
L 675.667838 232.554117 
" clip-path="url(#pf83fbd65f4)" style="fill: none; stroke: #1f2d5f; stroke-width: 1.6; stroke-linecap: square"/>
   </g>
   <g id="line2d_62">
    <path d="M 417.419904 277.593683 
L 436.026159 277.27238 
L 446.362968 276.892439 
L 452.737333 276.454703 
L 456.872056 275.967669 
L 459.800819 275.409904 
L 461.868181 274.80435 
L 463.418702 274.139526 
L 464.624663 273.411458 
L 465.658344 272.552164 
L 466.519744 271.581751 
L 467.381145 270.261346 
L 468.070266 268.83489 
L 468.759386 266.933283 
L 469.448507 264.368397 
L 470.137627 260.919859 
L 470.999028 255.196128 
L 472.204989 246.764052 
L 472.549549 245.457967 
L 472.72183 245.158691 
L 472.89411 245.116776 
L 473.06639 245.332224 
L 473.41095 246.470628 
L 473.927791 249.466174 
L 475.478312 259.600784 
L 476.167432 262.687402 
L 476.856553 264.873343 
L 477.545674 266.37457 
L 478.234794 267.374236 
L 478.923915 268.004198 
L 479.613035 268.353551 
L 480.302156 268.480286 
L 481.163557 268.378948 
L 482.024957 268.021488 
L 482.886358 267.416167 
L 483.747759 266.547559 
L 484.609159 265.376491 
L 485.47056 263.835616 
L 486.331961 261.819739 
L 487.193362 259.168515 
L 488.054762 255.636878 
L 488.743883 251.928817 
L 489.433003 247.128337 
L 490.122124 240.814691 
L 490.811245 232.377627 
L 491.500365 220.952038 
L 492.189486 205.404339 
L 492.878606 184.584591 
L 493.912287 144.228852 
L 494.601408 118.977206 
L 494.945968 111.125261 
L 495.118248 109.061965 
L 495.290528 108.389469 
L 495.462808 109.134729 
L 495.807369 114.623672 
L 496.324209 130.438798 
L 498.047011 191.79766 
L 498.736131 207.867791 
L 499.425252 219.014074 
L 500.114372 226.335723 
L 500.631213 229.838685 
L 501.148053 231.906341 
L 501.492613 232.557343 
L 501.664894 232.672621 
L 501.837174 232.648752 
L 502.181734 232.180112 
L 502.526294 231.133643 
L 503.043135 228.397914 
L 503.559975 224.080546 
L 504.076816 217.891509 
L 504.765936 206.103511 
L 505.455057 189.639832 
L 507.177858 141.898167 
L 507.522418 138.497051 
L 507.694699 138.436411 
L 507.866979 139.501741 
L 508.211539 144.764269 
L 508.728379 158.46279 
L 510.451181 209.51172 
L 511.140301 223.093014 
L 511.829422 232.860837 
L 512.518543 239.731247 
L 513.207663 244.421838 
L 513.724504 246.801073 
L 514.241344 248.341657 
L 514.585904 248.934355 
L 514.930465 249.186332 
L 515.275025 249.092609 
L 515.619585 248.639758 
L 515.964145 247.807804 
L 516.480986 245.800141 
L 516.997826 242.84405 
L 517.859227 236.217483 
L 518.548348 231.129266 
L 518.892908 229.64587 
L 519.065188 229.337589 
L 519.237468 229.358292 
L 519.409748 229.717807 
L 519.754309 231.403749 
L 520.271149 235.794508 
L 521.99395 252.692218 
L 522.855351 258.370318 
L 523.544472 261.636606 
L 524.405872 264.59853 
L 525.267273 266.712546 
L 526.128674 268.262804 
L 527.162355 269.627443 
L 528.196036 270.628171 
L 529.401997 271.487079 
L 530.780238 272.19254 
L 532.330759 272.746187 
L 534.225841 273.184208 
L 536.465482 273.458141 
L 538.877404 273.518772 
L 541.289326 273.350392 
L 543.356688 272.998919 
L 545.25177 272.458387 
L 546.802291 271.802137 
L 548.180532 270.99107 
L 549.386493 270.03459 
L 550.420174 268.959518 
L 551.453855 267.556575 
L 552.315256 266.042034 
L 553.176656 264.091979 
L 554.038057 261.534744 
L 554.899458 258.109627 
L 555.588578 254.479224 
L 556.277699 249.727684 
L 556.966819 243.403628 
L 557.65594 234.858147 
L 558.345061 223.202075 
L 559.034181 207.388075 
L 559.895582 180.930931 
L 561.101543 141.692149 
L 561.446103 135.644451 
L 561.618383 134.298919 
L 561.790663 134.181264 
L 561.962944 135.296894 
L 562.307504 140.939604 
L 562.824344 155.682266 
L 564.547146 210.610252 
L 565.236266 225.35236 
L 565.925387 236.14204 
L 566.614507 244.011793 
L 567.303628 249.795851 
L 567.992749 254.09137 
L 568.854149 257.981194 
L 569.71555 260.716723 
L 570.576951 262.676025 
L 571.610631 264.413804 
L 572.644312 265.696878 
L 573.505713 266.417557 
L 574.367114 266.822145 
L 575.056234 266.92552 
L 575.745355 266.829704 
L 576.434475 266.516941 
L 577.123596 265.951983 
L 577.812717 265.080313 
L 578.501837 263.835175 
L 579.363238 261.702127 
L 580.913759 257.549626 
L 581.4306 256.837157 
L 581.94744 256.517839 
L 582.808841 256.084513 
L 583.325681 255.438919 
L 583.842522 254.298299 
L 584.359362 252.559317 
L 584.876202 250.120554 
L 585.565323 245.544704 
L 586.254444 239.017764 
L 586.943564 229.847289 
L 587.632685 217.123297 
L 588.321805 199.998237 
L 590.216887 146.07784 
L 590.561447 143.43907 
L 590.733727 143.8223 
L 590.906007 145.33514 
L 591.250568 151.397563 
L 591.767408 165.820731 
L 593.317929 212.378312 
L 594.00705 226.711808 
L 594.696171 237.250183 
L 595.385291 245.028442 
L 596.246692 252.123467 
L 597.108093 257.224489 
L 597.969493 260.940424 
L 598.830894 263.688912 
L 599.692295 265.760043 
L 600.725976 267.622498 
L 601.759656 269.009773 
L 602.965617 270.211884 
L 604.171578 271.097457 
L 605.54982 271.833767 
L 607.100341 272.405949 
L 608.823142 272.800966 
L 610.545944 272.982566 
L 612.268745 272.945722 
L 614.163827 272.653934 
L 618.29855 271.840639 
L 619.504511 271.223619 
L 620.538192 270.448806 
L 621.571873 269.373068 
L 622.777834 267.730266 
L 625.534316 263.501504 
L 626.223437 261.81302 
L 626.912557 259.540693 
L 627.601678 256.502273 
L 628.290798 252.437676 
L 628.979919 246.961572 
L 629.66904 239.511722 
L 630.35816 229.310476 
L 631.047281 215.432918 
L 631.908681 192.134386 
L 633.114642 157.205998 
L 633.459203 151.66791 
L 633.631483 150.372207 
L 633.803763 150.16236 
L 633.976043 151.0491 
L 634.320603 155.878053 
L 634.837444 168.811428 
L 636.560245 217.778556 
L 637.249366 231.008 
L 637.938486 240.712633 
L 638.627607 247.813504 
L 639.316728 253.060179 
L 640.178128 257.816521 
L 641.039529 261.209807 
L 641.90093 263.6813 
L 642.76233 265.511433 
L 643.623731 266.88208 
L 644.657412 268.087031 
L 645.691093 268.938114 
L 646.724774 269.521755 
L 647.930735 269.936512 
L 649.136696 270.112242 
L 650.342657 270.072267 
L 651.548618 269.817761 
L 652.754579 269.336547 
L 653.96054 268.630188 
L 655.166501 267.681275 
L 656.200182 266.577544 
L 657.233862 265.092078 
L 658.095263 263.46974 
L 658.956664 261.384391 
L 659.818065 258.678059 
L 660.679465 255.11572 
L 661.368586 251.415703 
L 662.057706 246.675422 
L 662.746827 240.509689 
L 663.435948 232.359507 
L 664.125068 221.414078 
L 664.814189 206.524686 
L 665.503309 186.190387 
L 666.19243 158.905978 
L 667.226111 106.138133 
L 667.915231 73.57967 
L 668.259792 63.799404 
L 668.432072 61.410067 
L 668.604352 60.876 
L 668.776632 62.224694 
L 669.121192 70.202396 
L 669.638033 92.105164 
L 671.360834 176.267196 
L 672.049955 199.105922 
L 672.739075 215.853941 
L 673.428196 228.088792 
L 674.117316 237.098164 
L 674.806437 243.806408 
L 675.667838 249.901593 
L 675.667838 249.901593 
" clip-path="url(#pf83fbd65f4)" style="fill: none; stroke-dasharray: 5.18,2.24; stroke-dashoffset: 0; stroke: #c05b2a; stroke-width: 1.4"/>
   </g>
   <g id="patch_6">
    <path d="M 404.507507 288.432 
L 404.507507 50.04 
" style="fill: none; stroke: #000000; stroke-width: 0.8; stroke-linejoin: miter; stroke-linecap: square"/>
   </g>
   <g id="patch_7">
    <path d="M 404.507507 288.432 
L 688.580234 288.432 
" style="fill: none; stroke: #000000; stroke-width: 0.8; stroke-linejoin: miter; stroke-linecap: square"/>
   </g>
   <g id="text_36">
    <text style="font-weight: 600; font-size: 12.5px; font-family: 'DejaVu Serif'; text-anchor: middle" x="546.543871" y="44.04" transform="rotate(-0 546.543871 44.04)">Lorentzian spectrum (overlap = 0.930)</text>
   </g>
   <g id="legend_2">
    <g id="line2d_63">
     <path d="M 413.957507 63.793359 
L 424.457507 63.793359 
L 434.957507 63.793359 
" style="fill: none; stroke: #1f2d5f; stroke-width: 1.6; stroke-linecap: square"/>
    </g>
    <g id="text_37">
     <text style="font-size: 10.5px; font-family: 'DejaVu Serif'; text-anchor: start" x="443.357507" y="67.468359" transform="rotate(-0 443.357507 67.468359)">reference</text>
    </g>
    <g id="line2d_64">
     <path d="M 413.957507 79.205391 
L 424.457507 79.205391 
L 434.957507 79.205391 
" style="fill: none; stroke-dasharray: 5.18,2.24; stroke-dashoffset: 0; stroke: #c05b2a; stroke-width: 1.4"/>
    </g>
    <g id="text_38">
     <text style="font-size: 10.5px; font-family: 'DejaVu Serif'; text-anchor: start" x="443.357507" y="82.880391" transform="rotate(-0 443.357507 82.880391)">model</text>
    </g>
   </g>
  </g>
  <g id="text_39">
   <text style="font-size: 12.6px; font-family: 'DejaVu Serif'; text-anchor: middle" x="366.020234" y="13.174031" transform="rotate(-0 366.020234 13.174031)">From Predicted Peaks to Observable Physics</text>
  </g>
 </g>
 <defs>
  <clipPath id="p2bc8bb71ed">
   <rect x="63.620234" y="50.04" width="284.072727" height="238.392"/>
  </clipPath>
  <clipPath id="pf83fbd65f4">
   <rect x="404.507507" y="50.04" width="284.072727" height="238.392"/>
  </clipPath>
 </defs>
</svg>
